<?xml version="1.0" encoding="utf-8"?>
<!-- Generator: Adobe Illustrator 25.1.0, SVG Export Plug-In . SVG Version: 6.00 Build 0)  -->
<svg version="1.1" id="Layer_1" xmlns="http://www.w3.org/2000/svg" xmlns:xlink="http://www.w3.org/1999/xlink" x="0px" y="0px"
	 viewBox="0 0 796.3 78.2" style="enable-background:new 0 0 796.3 78.2;" xml:space="preserve">
<style type="text/css">
	.st0{fill:#5F758D;}
	.st1{fill:#FFFFFF;}
</style>
<rect x="-10.6" y="-9.6" class="st0" width="823.2" height="109.4"/>
<g>
	<path class="st1" d="M295.9,17.6c-0.6,2.1-1.3,4.4-2.1,6.7c-0.8,2.3-1.6,4.6-2.4,6.8l-0.5,1.4c-0.9,2.5-1.8,5-2.8,7.5
		c-0.9,2.5-1.9,5-2.8,7.5l-1.3,3.5c0.3-0.7,0.7-1.4,1-2c0.4-0.7,0.7-1.3,1-1.9c0.6-1.1,1.3-2.4,2.2-4.1c0.9-1.7,1.9-3.5,3.1-5.4
		c1.2-2,2.4-4,3.8-6.2c1.4-2.1,2.8-4.2,4.3-6.3c1.5-2.1,3-4,4.6-5.9c1.6-1.8,3.1-3.5,4.7-4.8c1.6-1.4,3.1-2.4,4.6-3.2
		c1.5-0.8,3-1.1,4.3-1c1.4,0.2,2.4,0.9,3,2.1c0.6,1.2,0.9,2.7,0.9,4.5c0,1.2-0.1,2.4-0.3,3.8c-0.2,1.3-0.5,2.7-0.8,4.1
		c-0.3,1.4-0.7,2.8-1.1,4.2c-0.4,1.4-0.8,2.7-1.2,3.9c-0.4,1.2-0.8,2.4-1.2,3.5c-0.4,1.1-0.7,2-1,2.7c-0.8,2.3-1.7,4.5-2.6,6.7
		c-0.9,2.2-1.8,4.4-2.7,6.6c-0.4,0.8-0.7,1.7-1.1,2.6c-0.4,0.9-0.7,1.8-1.1,2.6c-0.2,0.5-0.4,0.9-0.5,1.3c-0.2,0.4-0.3,0.9-0.5,1.3
		c0,0.1-0.1,0.3-0.3,0.4c-0.1,0.1-0.3,0.2-0.5,0.2c-0.1,0-0.3,0-0.4-0.1c-0.1-0.1-0.1-0.2-0.1-0.4l0.2-0.6c0-0.1,0-0.2,0.1-0.2
		c0.4-1,0.8-2,1.2-3c0.4-1,0.9-2.1,1.3-3.1l1.4-3.4c0.4-1,0.9-2.2,1.5-3.8c0.6-1.6,1.3-3.3,2.1-5.2c0.7-1.9,1.5-4,2.2-6.1
		c0.7-2.1,1.4-4.3,2-6.4c0.6-2.1,1.1-4.1,1.5-6.1c0.4-2,0.6-3.7,0.6-5.2c0-1.6-0.2-2.9-0.7-3.9c-0.5-1-1.3-1.6-2.4-1.8
		c-1.2-0.2-2.6,0.1-4,0.8c-1.4,0.7-2.9,1.8-4.4,3.1c-1.5,1.4-3,3-4.5,4.8c-1.5,1.8-3,3.8-4.4,5.9c-1.5,2.1-2.9,4.2-4.2,6.3
		c-1.3,2.1-2.6,4.2-3.7,6.2c-1.1,2-2.1,3.7-3,5.4c-0.9,1.6-1.6,2.9-2.1,4c-0.6,1.2-1.2,2.5-1.9,3.9c-0.7,1.4-1.4,2.8-2.1,4.3
		c-0.7,1.4-1.4,2.9-2,4.3c-0.6,1.4-1.2,2.7-1.6,3.9l-0.3,0.8c0,0.1-0.1,0.2-0.1,0.2c0,0.2-0.1,0.3-0.3,0.4c-0.1,0.1-0.3,0.2-0.5,0.2
		c-0.2,0-0.3-0.1-0.4-0.2s-0.1-0.2-0.1-0.4c0.1-0.3,0.2-0.7,0.4-1v0c0,0,0,0,0-0.1c0,0,0,0,0-0.1l0.6-1.9c1.9-5.2,3.8-10.4,5.7-15.6
		c0.9-2.3,1.7-4.7,2.6-7.1c0.9-2.4,1.8-4.8,2.6-7.1c0.1-0.4,0.2-0.7,0.4-1.1c0.1-0.4,0.3-0.8,0.4-1.2c0.7-2.1,1.5-4.2,2.2-6.4
		c0.7-2.2,1.4-4.2,1.9-6.2v0c0-0.2,0.1-0.3,0.3-0.4s0.3-0.2,0.5-0.2c0.2,0,0.3,0,0.4,0.1C295.9,17.3,295.9,17.4,295.9,17.6
		L295.9,17.6z"/>
	<path class="st1" d="M324.5,41.1c0.3,0.2,0.4,0.4,0.3,0.7c0.3-0.3,0.7-0.5,1.1-0.8c0.4-0.2,0.8-0.3,1.1-0.1
		c0.1,0.1,0.2,0.3,0.2,0.6c0,0.3,0,0.5-0.1,0.8c0,0.2-0.1,0.3-0.1,0.4c0,0,0,0,0,0.1c0,0,0,0.1,0,0.1c0,0.2,0,0.4-0.1,0.6
		c0,0.3,0,0.5,0,0.8c0,0.3,0,0.6,0.1,0.8c0.1,0.2,0.2,0.4,0.4,0.4c0.4-0.1,0.8-0.5,1.4-1s1.1-1.1,1.7-1.8c0.6-0.7,1.2-1.5,1.9-2.4
		c0.7-0.9,1.3-1.8,2-2.7s1.3-1.8,1.8-2.7c0.6-0.9,1.1-1.7,1.5-2.4c0.1-0.3,0.2-0.7,0.3-1c0.1-0.3,0.2-0.6,0.3-1c-1.3,0-2.6,0-3.8,0
		c-1.2,0-2.5,0-3.8,0c-0.2,0-0.3-0.1-0.4-0.2c-0.1-0.1-0.2-0.3-0.2-0.4c0-0.4,0.2-0.6,0.6-0.6c0.7,0,1.3,0,2,0c0.7,0,1.3,0,2,0h4
		l1.7-4.6c0-0.1,0.1-0.2,0.1-0.3c0-0.1,0.1-0.2,0.1-0.3c0.2-0.4,0.4-1,0.7-1.7c0.3-0.7,0.6-1.4,1-2c0.4-0.6,0.8-1.1,1.2-1.5
		c0.4-0.3,0.8-0.4,1.2,0v0c0.3,0.2,0.4,0.6,0.3,1.1c-0.1,0.5-0.2,1.1-0.5,1.7s-0.5,1.2-0.8,1.9c-0.3,0.6-0.5,1.1-0.7,1.5l-0.1,0.3
		c-0.2,0.5-0.5,1-0.9,1.7c-0.4,0.7-0.8,1.4-1.2,2.1c1.5,0,2.9,0,4.4,0s2.9,0,4.4,0c1.1,0,2.2,0,3.3,0c1.1,0,2.2,0,3.3,0
		c0.3,0,0.7,0,1.1,0s0.7,0,1.1-0.1c0.1,0,0.3,0,0.4,0.1c0.1,0.1,0.2,0.2,0.3,0.4c0,0.2,0,0.3-0.1,0.4s-0.2,0.2-0.4,0.2
		c-0.3,0-0.5,0-0.8,0.1c-0.2,0-0.5,0-0.8,0c-0.1,0-0.2,0-0.4,0c-0.1,0-0.3,0-0.4,0c-0.9,0-1.9,0-3.1,0c-1.1,0-2.2,0-3.1,0
		c-1.7,0-3.3,0-5,0c-1.7,0-3.3,0-5-0.1c-0.2,0.3-0.4,0.7-0.7,1.1c-0.2,0.4-0.4,0.8-0.6,1.1c-0.6,1.9-1.3,3.9-1.9,5.9
		c-0.6,2-1.3,4-1.9,5.9c-0.6,1.9-1.1,3.6-1.6,5.2c-0.5,1.6-0.9,2.9-1.2,3.9v0c-0.1,0.3-0.2,0.6-0.3,0.9c-0.1,0.3-0.2,0.6-0.3,0.9
		l-1.3,4.4c-0.4,1.5-0.9,3-1.3,4.5c-0.4,1.5-0.9,3-1.4,4.5l-0.4,1.1c0,0.1-0.1,0.3-0.3,0.3c-0.1,0.1-0.3,0.1-0.5,0
		c-0.1,0-0.2-0.2-0.3-0.3c-0.1-0.2-0.1-0.3,0-0.5L327,68c0.5-1.6,1-3.2,1.5-5c0.5-1.8,1-3.5,1.5-5c0.6-2.1,1.2-4.1,1.8-6.2
		c0.6-2,1.2-4.1,1.8-6.1l2.7-8.6c-0.8,1.2-1.5,2.3-2.3,3.4c-0.8,1.1-1.6,2.1-2.3,3c-0.7,0.9-1.5,1.6-2.1,2.2
		c-0.7,0.6-1.3,0.9-1.8,1.1h0c-0.4,0.1-0.7,0.1-1,0s-0.5-0.3-0.6-0.5c-0.1-0.2-0.2-0.5-0.3-0.9c-0.1-0.3-0.1-0.7-0.1-1.1
		c0-0.7,0-1.3,0.1-1.8c-0.2,0.2-0.5,0.4-0.7,0.7c-0.3,0.3-0.5,0.6-0.8,0.9c-0.3,0.3-0.5,0.7-0.8,1c-0.2,0.3-0.4,0.6-0.6,0.8
		l-0.2,0.3l-0.4,0.4h0c-0.3,0.4-0.6,0.8-1.1,1.3c-0.4,0.5-0.9,1-1.4,1.4c-0.5,0.4-1,0.7-1.5,0.9c-0.5,0.2-1,0.1-1.4-0.2l-0.6-0.5
		c-0.2-0.3-0.3-0.6-0.3-1c0-0.5,0.1-0.9,0.4-1.5c0.3-0.5,0.6-1,0.9-1.5c0.4-0.5,0.7-0.9,1.1-1.4c0.4-0.4,0.7-0.8,1-1
		c0.3-0.3,0.7-0.6,1.1-0.8c0.4-0.3,0.8-0.5,1.2-0.7c0.4-0.2,0.9-0.3,1.3-0.4C323.6,40.9,324,40.9,324.5,41.1z M323.9,42.2
		c-0.4-0.2-0.9-0.1-1.5,0.2c-0.6,0.3-1.1,0.7-1.7,1.2c-0.6,0.5-1.1,1-1.6,1.6c-0.5,0.6-0.9,1-1.1,1.4c-0.1,0.1-0.2,0.3-0.3,0.6
		c-0.1,0.3-0.2,0.5-0.3,0.8c-0.1,0.3-0.1,0.5-0.1,0.7c0,0.2,0.2,0.3,0.5,0.4c0.3,0,0.6-0.1,1.1-0.4c0.4-0.3,0.9-0.8,1.4-1.3
		c0.5-0.5,1-1.1,1.4-1.7c0.5-0.6,0.9-1.2,1.3-1.7c0.3-0.3,0.5-0.6,0.7-0.9c0.2-0.3,0.4-0.5,0.5-0.6l0.1-0.1
		C324.2,42.3,324.1,42.3,323.9,42.2z M340.6,27.6l0.4-0.8l-0.3,0.9L340.6,27.6z M341.1,26.8L341.1,26.8c0.1-0.1,0.1-0.1,0.1-0.1
		c0,0,0,0,0-0.1L341.1,26.8z"/>
	<path class="st1" d="M350,42.9c-1.1-0.1-2.2,0.1-3.2,0.6c-1,0.5-2,1.4-2.7,2.5c-0.2,0.3-0.4,0.7-0.6,1.1c-0.2,0.4-0.3,0.7-0.3,1
		c0,0.3,0.1,0.5,0.3,0.6c0.2,0.1,0.5,0.2,0.9,0.2c0.6-0.1,1.1-0.4,1.7-0.8c0.6-0.5,1.2-1,1.8-1.7c0.6-0.6,1.2-1.3,1.7-2
		c0.5-0.7,1-1.3,1.4-1.9l0.4-0.5l0.2-0.3c0.3-0.4,0.6-0.6,0.9-0.5c0.3,0.1,0.4,0.3,0.3,0.7c0,0.1-0.1,0.3-0.1,0.4
		c0,0.2,0,0.4-0.1,0.6c0,0.3-0.1,0.5-0.1,0.8c0,0.3,0,0.6,0,0.9c0,0.4,0,0.8,0.1,1.2c0.1,0.4,0.2,0.7,0.3,1c0.1,0.3,0.3,0.5,0.6,0.7
		c0.2,0.2,0.5,0.3,0.8,0.3c0.4,0,0.8-0.1,1.3-0.3c0.7-0.3,1.4-0.7,2.1-1.3c0.7-0.5,1.3-1.1,1.9-1.6v0l0.2-0.2
		c0.1-0.1,0.3-0.2,0.4-0.2c0.1,0,0.3,0,0.4,0.1v0c0.1,0.1,0.2,0.2,0.1,0.4c0,0.2-0.1,0.3-0.3,0.5c-0.5,0.5-0.9,0.9-1.4,1.2
		c-0.4,0.4-0.8,0.7-1.2,0.9c-0.8,0.6-1.6,1.1-2.2,1.3c-0.7,0.3-1.2,0.4-1.7,0.4c-0.5,0-0.9-0.1-1.2-0.3c-0.3-0.2-0.6-0.5-0.8-0.9
		c-0.2-0.4-0.4-0.8-0.5-1.3c-0.1-0.5-0.1-1-0.1-1.6c0-0.2,0-0.3,0-0.5c0-0.2,0-0.4,0-0.6c-0.5,0.6-1,1.3-1.6,2
		c-0.6,0.7-1.2,1.3-1.8,1.9c-0.6,0.6-1.3,1.1-1.9,1.5c-0.7,0.4-1.3,0.6-2,0.7c-0.8,0.1-1.3,0-1.7-0.3c-0.3-0.3-0.5-0.7-0.5-1.2
		c0-0.5,0.1-1.1,0.4-1.7c0.3-0.6,0.7-1.2,1.1-1.8c1-1.3,2.2-2.2,3.4-2.7c1.2-0.5,2.4-0.7,3.7-0.6c0.1,0,0.2,0.1,0.3,0.3
		c0.1,0.1,0,0.3-0.1,0.5c-0.1,0.1-0.2,0.3-0.3,0.3C350.3,42.9,350.2,42.9,350,42.9z"/>
	<path class="st1" d="M366.8,41.9c-0.6-0.3-1-0.5-1.4-0.5c-0.4,0-0.7,0.1-1.1,0.3c-0.4,0.2-0.8,0.4-1.1,0.8
		c-0.3,0.3-0.7,0.7-1.1,1.2c-0.4,0.5-0.8,1-1.1,1.6c-0.3,0.6-0.6,1.1-0.8,1.7c-0.2,0.6-0.2,1.1-0.1,1.5c0,0.3,0.2,0.4,0.4,0.4
		c0.2,0,0.4,0,0.7,0h0c1.5-0.5,3-1.4,4.3-2.5c1.3-1.1,2.6-2.4,3.8-3.9c1.2-1.4,2.2-2.9,3.2-4.5c1-1.6,1.9-3.1,2.8-4.4l1.2-2
		c0.4-1.3,0.9-2.6,1.4-4c0.5-1.4,1-2.8,1.6-4.2c0.6-1.4,1.1-2.7,1.7-4c0.6-1.3,1.1-2.5,1.7-3.5c0.6-1,1.1-1.9,1.6-2.5
		c0.5-0.7,1-1.1,1.5-1.3c0.5-0.2,0.8-0.1,0.9,0.1c0.1,0.2,0.2,0.5,0.1,0.9c0,0.4-0.2,0.8-0.3,1.2c-0.2,0.4-0.3,0.8-0.4,1l-0.1,0.1
		c0,0,0,0,0,0.1h0c-0.4,1.1-1,2.2-1.6,3.5c-0.6,1.3-1.3,2.7-2,4.1c-0.7,1.4-1.5,2.9-2.4,4.4c-0.9,1.5-1.7,3-2.6,4.5
		c-0.7,2-1.3,3.9-1.9,5.9c-0.6,2-1.2,3.8-1.8,5.4l-1.3,4c0.5-0.6,1-1.1,1.5-1.7c0.5-0.6,1-1.1,1.5-1.6c0.5-0.5,1-0.9,1.4-1.3
		c0.4-0.4,0.8-0.7,1.2-1c0.1-0.1,0.3-0.2,0.5-0.4c0.2-0.1,0.5-0.3,0.7-0.4s0.5-0.2,0.8-0.3c0.3-0.1,0.5-0.1,0.8-0.1
		c0.5,0,0.9,0.2,1.1,0.7c0.2,0.4,0.2,0.9,0.1,1.5c-0.1,0.6-0.3,1.3-0.5,1.9c-0.1,0.5-0.3,1-0.4,1.5c-0.1,0.5-0.1,0.9-0.1,1.2
		c0,0.3,0.2,0.5,0.3,0.6c0.2,0.1,0.5,0.1,0.9,0.1c0.3-0.1,0.7-0.2,1.1-0.4c0.4-0.2,0.9-0.4,1.3-0.6c0.4-0.3,0.9-0.5,1.4-0.8
		c0.5-0.3,0.9-0.6,1.3-0.9c0.2-0.1,0.4-0.3,0.6-0.4s0.3-0.3,0.5-0.4v0c0.1-0.1,0.3-0.2,0.4-0.2c0.2,0,0.3,0.1,0.4,0.2
		c0.1,0.1,0.1,0.3,0.1,0.4c0,0.2-0.1,0.3-0.2,0.4c-0.6,0.5-1.3,1-2.1,1.5c-0.8,0.6-1.6,1-2.3,1.4c-0.5,0.3-1,0.5-1.5,0.6
		c-0.5,0.2-1,0.3-1.5,0.3c-0.5,0-0.9-0.1-1.2-0.4s-0.5-0.6-0.6-1.2c0-0.2-0.1-0.4-0.1-0.7c0-0.3,0-0.5,0.1-0.8c0,0,0,0,0-0.1
		c0-0.1,0.1-0.2,0.1-0.3c0-0.1,0.1-0.3,0.1-0.5c0-0.2,0.1-0.3,0.1-0.5c0.1-0.3,0.1-0.6,0.2-0.9c0.1-0.3,0.1-0.6,0.2-0.9
		c0-0.3,0.1-0.5,0.1-0.8c0-0.2,0-0.4,0-0.5H381c-0.4,0-0.8,0.1-1.3,0.4c-0.5,0.3-1,0.7-1.6,1.2c-0.6,0.5-1.2,1.1-1.8,1.7
		c-0.6,0.6-1.2,1.3-1.8,1.9c-0.6,0.6-1.1,1.3-1.6,1.9c-0.5,0.6-0.9,1.1-1.2,1.5l-0.2,0.3v0c0,0,0,0,0,0.1c0,0,0,0,0,0.1l-0.1,0.1
		c0,0.1-0.1,0.3-0.3,0.3c-0.2,0.1-0.3,0.1-0.4,0h0c-0.2,0-0.3-0.1-0.4-0.3c-0.1-0.2-0.1-0.3,0-0.5c0,0,0,0,0-0.1c0,0,0,0,0-0.1
		c0-0.1,0.1-0.2,0.1-0.3c0-0.1,0-0.2,0.1-0.3c0.4-1.2,0.8-2.3,1.2-3.5c0.4-1.2,0.7-2.3,1.1-3.6c0.2-0.6,0.4-1.3,0.6-2.1
		c0.2-0.8,0.5-1.4,0.7-2.1c0.1-0.4,0.2-0.8,0.4-1.2c0.1-0.3,0.3-0.8,0.4-1.2l-1,1.5c-1.3,1.9-2.6,3.8-4,5.7c-1.4,1.8-3,3.5-4.8,4.8
		c-0.2,0.1-0.5,0.3-0.8,0.6c-0.3,0.2-0.7,0.5-1.2,0.7c-0.4,0.2-0.9,0.4-1.3,0.6c-0.5,0.2-0.9,0.2-1.3,0.2c-0.4,0-0.8-0.1-1.1-0.3
		c-0.3-0.2-0.5-0.6-0.6-1.1c-0.1-0.6-0.1-1.3,0.2-2.1s0.6-1.5,1-2.3c0.4-0.7,1-1.4,1.5-2c0.6-0.6,1.1-1.1,1.7-1.4
		c0.7-0.4,1.4-0.6,2.1-0.6c0.7,0,1.4,0.2,2.2,0.7c0.1,0.1,0.2,0.3,0.2,0.4c0,0.2,0,0.3-0.1,0.4l-0.3,0.2
		C367.2,42.1,367,42.1,366.8,41.9L366.8,41.9z M379.2,26.6l0.5-0.9l-0.3,0.9L379.2,26.6z M385.5,13.6c-0.4,0.4-0.8,1-1.3,1.7
		c-0.4,0.8-0.9,1.7-1.4,2.7c-0.5,1.1-1,2.2-1.5,3.5c-0.5,1.3-1.1,2.7-1.6,4.1c0.3-0.6,0.6-1.1,0.9-1.6c0.3-0.5,0.5-1,0.8-1.4
		l0.3-0.5c0.2-0.4,0.5-0.9,0.8-1.6c0.4-0.7,0.7-1.5,1.1-2.3c0.4-0.8,0.8-1.7,1.1-2.5C385,14.9,385.3,14.2,385.5,13.6z"/>
	<path class="st1" d="M394.8,42.9c-1.1-0.1-2.2,0.1-3.2,0.6c-1,0.5-2,1.4-2.7,2.5c-0.2,0.3-0.4,0.7-0.6,1.1c-0.2,0.4-0.3,0.7-0.3,1
		c0,0.3,0.1,0.5,0.3,0.6c0.2,0.1,0.5,0.2,0.9,0.2c0.6-0.1,1.1-0.4,1.7-0.8c0.6-0.5,1.2-1,1.8-1.7c0.6-0.6,1.2-1.3,1.7-2
		c0.5-0.7,1-1.3,1.4-1.9l0.4-0.5l0.2-0.3c0.3-0.4,0.6-0.6,0.9-0.5c0.3,0.1,0.4,0.3,0.3,0.7c0,0.1-0.1,0.3-0.1,0.4
		c0,0.2,0,0.4-0.1,0.6c0,0.3-0.1,0.5-0.1,0.8c0,0.3,0,0.6,0,0.9c0,0.4,0,0.8,0.1,1.2c0.1,0.4,0.2,0.7,0.3,1c0.1,0.3,0.3,0.5,0.6,0.7
		c0.2,0.2,0.5,0.3,0.8,0.3c0.4,0,0.8-0.1,1.3-0.3c0.7-0.3,1.4-0.7,2.1-1.3s1.3-1.1,1.9-1.6v0l0.2-0.2c0.1-0.1,0.3-0.2,0.4-0.2
		c0.1,0,0.3,0,0.4,0.1v0c0.1,0.1,0.2,0.2,0.1,0.4c0,0.2-0.1,0.3-0.3,0.5c-0.5,0.5-0.9,0.9-1.4,1.2c-0.4,0.4-0.8,0.7-1.2,0.9
		c-0.8,0.6-1.6,1.1-2.2,1.3s-1.2,0.4-1.7,0.4c-0.5,0-0.9-0.1-1.2-0.3c-0.3-0.2-0.6-0.5-0.8-0.9c-0.2-0.4-0.4-0.8-0.5-1.3
		c-0.1-0.5-0.1-1-0.1-1.6c0-0.2,0-0.3,0-0.5c0-0.2,0-0.4,0-0.6c-0.5,0.6-1,1.3-1.6,2c-0.6,0.7-1.2,1.3-1.8,1.9
		c-0.6,0.6-1.3,1.1-1.9,1.5c-0.7,0.4-1.3,0.6-2,0.7c-0.8,0.1-1.3,0-1.7-0.3s-0.5-0.7-0.5-1.2c0-0.5,0.1-1.1,0.4-1.7
		c0.3-0.6,0.7-1.2,1.1-1.8c1-1.3,2.2-2.2,3.4-2.7s2.4-0.7,3.7-0.6c0.1,0,0.2,0.1,0.3,0.3c0.1,0.1,0,0.3-0.1,0.5
		c-0.1,0.1-0.2,0.3-0.3,0.3C395.1,42.9,394.9,42.9,394.8,42.9z"/>
	<path class="st1" d="M456.6,43c-3.1,3.5-6.6,6.5-10.4,9.1c-3.8,2.6-7.6,4.8-11.6,6.7c-0.3,0.7-0.5,1.4-0.7,2.2
		c-0.2,0.7-0.5,1.5-0.7,2.2l-0.3,1c0,0.1-0.1,0.2-0.1,0.3s-0.1,0.2-0.1,0.3c-0.1,0.3-0.4,0.5-0.8,0.5c-0.4,0-0.5-0.2-0.4-0.7
		l0.2-0.5c0.3-0.8,0.5-1.6,0.8-2.4c0.2-0.8,0.5-1.6,0.8-2.4l-0.3,0.1v0.1c0,0.1,0,0.3,0,0.4c-0.1,0.2-0.2,0.3-0.4,0.4
		c-0.2,0.1-0.3,0.2-0.5,0.1c-0.2,0-0.3-0.1-0.3-0.3l-0.1-0.2v0c-0.1,0-0.2,0.1-0.3,0.1c-0.1,0-0.2,0.1-0.3,0.1l-0.2,0.1h0
		c-3.4,1.4-6.8,2.5-10.1,3.4c-3.4,0.9-6.7,1.7-10,2.2c-0.4,0-0.6-0.1-0.5-0.5c0.1-0.4,0.3-0.6,0.7-0.7c3.3-0.6,6.6-1.3,10.1-2.3
		c3.4-0.9,6.9-2.1,10.3-3.5c-0.4-1.3-0.7-2.7-0.9-4.1c-0.2-1.4-0.3-2.9-0.3-4.3c0-3.8,0.6-7.7,1.9-11.7c1.3-4,3.2-8,5.7-12
		c0.9-1.5,2.1-3.1,3.4-4.9c1.4-1.7,2.8-3.4,4.4-5c1.6-1.6,3.3-3,5.1-4.2c1.8-1.2,3.6-2.1,5.4-2.6c0.9-0.2,1.7-0.3,2.4-0.3
		c1,0,1.9,0.2,2.8,0.5c0.9,0.3,1.6,0.8,2.3,1.3c0.7,0.5,1.3,1.2,1.8,1.9c0.5,0.7,0.9,1.5,1.1,2.3c0.2,0.7,0.4,1.5,0.5,2.2
		c0.1,0.8,0.2,1.6,0.2,2.4c0,1.7-0.3,3.6-0.8,5.5c-0.6,1.9-1.3,3.9-2.2,5.8c-0.9,2-2.1,3.9-3.3,5.8C459.4,39.6,458,41.4,456.6,43z
		 M447.6,20.1c-0.8,2.4-1.7,4.7-2.5,7.1c-0.8,2.4-1.6,4.7-2.4,7.1l-1.2,3.5l-1.2,3.6c-0.9,2.7-1.8,5.4-2.7,8.1
		c-0.9,2.6-1.8,5.3-2.7,8.1c4-1.9,7.9-4.2,11.6-6.8c3.7-2.7,7.1-5.8,10.1-9.3c1.3-1.5,2.5-3.2,3.6-4.9c1.1-1.7,2.1-3.4,2.9-5.2
		c0.8-1.8,1.4-3.5,1.9-5.3c0.5-1.8,0.7-3.4,0.7-5c0-1.7-0.3-3.2-0.8-4.6c-0.3-0.7-0.6-1.3-1-1.9c-0.4-0.6-0.9-1.2-1.5-1.6
		c-0.6-0.5-1.3-0.8-2-1.1c-0.8-0.3-1.6-0.4-2.4-0.4c-0.6,0-1.3,0.1-2.2,0.3c-1.1,0.3-2.2,0.8-3.3,1.4c-1.1,0.6-2.2,1.3-3.2,2.2
		c-1.1,0.8-2.1,1.7-3.1,2.7c-1,1-1.9,2-2.8,3c-0.9,1-1.7,2.1-2.5,3.1c-0.8,1-1.4,2-2,2.9c-2.5,4-4.5,7.9-5.8,12
		c-1.3,4-1.9,7.9-1.9,11.6c0,1.4,0.1,2.8,0.3,4.2c0.2,1.4,0.5,2.7,0.9,4l1.1-0.5c1.1-3.3,2.2-6.7,3.4-10.2s2.3-6.9,3.4-10.2l1-2.9
		c0.8-2.4,1.6-4.9,2.5-7.4c0.9-2.5,1.7-5,2.6-7.4c0-0.2,0.1-0.3,0.3-0.4c0.2-0.1,0.3-0.1,0.5-0.1C447.6,19.4,447.7,19.6,447.6,20.1z
		"/>
	<path class="st1" d="M465.8,42.5L465.8,42.5c-0.3,0.4-0.6,0.8-0.9,1.5c-0.3,0.6-0.6,1.2-0.8,1.9c-0.2,0.6-0.4,1.2-0.4,1.8
		c-0.1,0.6,0,0.9,0.3,1.2c0.2,0.2,0.5,0.2,1,0c0.4-0.2,0.9-0.5,1.4-1c0.5-0.4,1-0.9,1.5-1.3s0.9-0.9,1.2-1.2l0.6-0.6
		c0.2-0.1,0.4-0.3,0.6-0.5c0.2-0.2,0.5-0.4,0.7-0.6c0.5-0.4,0.9-0.6,1.4-0.8c0.5-0.2,0.8-0.1,1,0.2c0,0.1,0.1,0.2,0.1,0.4
		c0,0.2,0,0.4-0.1,0.7c0,0,0,0,0,0.1c0,0,0,0,0,0.1c0,0.3-0.1,0.7-0.2,1c-0.1,0.3-0.1,0.6-0.2,0.9c-0.1,0.3-0.1,0.7-0.2,1
		c0,0.3-0.1,0.6-0.1,0.8c0,0.5,0.2,0.8,0.6,0.8c0.4,0,1.1-0.3,2.1-0.9c1-0.6,2.5-1.5,4.4-2.9l0.3-0.2l0.3-0.3
		c0.2-0.1,0.3-0.1,0.5-0.1s0.3,0.1,0.3,0.2c0.1,0.1,0.1,0.3,0,0.4c-0.1,0.2-0.2,0.3-0.4,0.4l-1.2,0.8c-0.6,0.4-1.2,0.8-1.8,1.3
		c-0.6,0.4-1.2,0.8-1.8,1.2c-0.6,0.3-1.2,0.6-1.7,0.9c-0.5,0.2-1,0.3-1.4,0.3c-0.5,0-0.9-0.2-1.1-0.7c-0.3-0.4-0.4-1.1-0.3-2.1
		c0-0.2,0.1-0.5,0.1-0.8c0.1-0.3,0.1-0.6,0.2-0.9c0-0.3,0.1-0.5,0.1-0.7c0-0.2,0.1-0.4,0.1-0.6l-0.1,0c-0.3,0.2-0.7,0.5-1.1,0.8
		c-0.4,0.4-0.9,0.8-1.3,1.2c-0.6,0.6-1.1,1.1-1.7,1.7c-0.6,0.6-1.2,1-1.8,1.4s-1.1,0.7-1.6,0.8s-0.9,0.1-1.3-0.1
		c-0.5-0.3-0.7-0.9-0.7-1.6c0-0.5,0.1-1,0.2-1.6c0.2-0.6,0.4-1.2,0.6-1.7c0.3-0.6,0.5-1.1,0.8-1.6c0.3-0.5,0.6-1,0.8-1.3
		c0.1-0.1,0.3-0.2,0.5-0.3c0.2-0.1,0.3-0.1,0.4,0c0.2,0.1,0.3,0.3,0.1,0.6L465.8,42.5z"/>
	<path class="st1" d="M480.4,44.5c0.6-0.4,1.4-1,2.3-1.9c0.9-0.9,1.9-1.9,2.9-3l0,0c0.3-1.3,0.6-2.5,1-3.6s0.6-1.9,0.8-2.4
		c0.2-0.7,0.6-1.7,1.1-2.9c0.5-1.2,1-2.5,1.7-3.9c0.6-1.4,1.3-2.8,2.1-4.2c0.8-1.4,1.6-2.7,2.4-3.8c0.9-1.1,1.7-2,2.6-2.7
		c0.9-0.7,1.7-0.9,2.6-0.8c0.6,0.1,1,0.4,1.3,0.8c0.3,0.4,0.4,0.9,0.4,1.4c0,0.6-0.1,1.2-0.3,1.8s-0.5,1.3-0.8,2.1
		c-0.3,0.7-0.7,1.4-1.1,2.1s-0.8,1.4-1.2,2.1c-0.4,0.6-0.8,1.2-1.2,1.8c-0.4,0.6-0.7,1-1,1.4c-0.4,0.6-0.9,1.2-1.6,2.1
		c-0.6,0.8-1.4,1.8-2.2,2.8c-0.8,1-1.7,2.1-2.6,3.2c-0.9,1.1-1.9,2.2-2.8,3.2l0,0c-0.2,0.9-0.4,1.8-0.5,2.6
		c-0.2,0.9-0.3,1.7-0.3,2.4c0,0.5-0.1,1,0,1.5c0,0.5,0.1,0.9,0.1,1.3c0.2,0.9,0.6,1.3,1.2,1.3c0.4,0,0.8-0.1,1.4-0.4
		c0.5-0.2,0.9-0.4,1.3-0.8c-0.3-0.2-0.6-0.5-0.8-0.8c-0.2-0.3-0.4-0.7-0.5-1c-0.1-0.4-0.2-0.8-0.2-1.2c0-0.6,0.2-1.2,0.6-1.8
		c0.4-0.6,1-1,1.8-1.2c0.9-0.2,1.6-0.1,2.2,0.2c0.6,0.4,0.9,0.9,0.9,1.6c0,0.4-0.1,0.7-0.2,1.1c0,0,0,0.1,0,0.1
		c-0.1,0.3-0.3,0.7-0.5,1c-0.2,0.3-0.4,0.7-0.7,1c1.1-0.2,2.2-0.6,3.3-1c1.1-0.5,2.2-0.9,3-1.5c0.1-0.1,0.3-0.1,0.5-0.1
		c0.2,0,0.3,0.1,0.4,0.2c0.1,0.1,0.1,0.3,0,0.4c-0.1,0.2-0.2,0.3-0.4,0.4c-0.5,0.3-1.1,0.7-1.8,1c-0.7,0.3-1.4,0.6-2.1,0.9
		s-1.5,0.5-2.2,0.7c-0.7,0.2-1.3,0.3-1.9,0.3c-0.6,0.6-1.3,1-2,1.3c-0.7,0.3-1.5,0.5-2.2,0.6c-0.8,0-1.4-0.3-1.8-1s-0.6-1.6-0.6-2.7
		c0-0.2,0-0.5,0-0.7c0-0.2,0-0.5,0.1-0.8c0-0.6,0.1-1.1,0.2-1.7c0.1-0.6,0.2-1.2,0.3-1.7c-0.7,0.8-1.4,1.5-2.1,2.1
		c-0.6,0.6-1.2,1.1-1.8,1.5l-0.7,0.5c-0.2,0.1-0.4,0.1-0.5,0.1c-0.1,0-0.2-0.1-0.3-0.3c0-0.2,0-0.3,0.1-0.5
		C480,44.7,480.2,44.5,480.4,44.5z M487,37.9l0.1-0.2c0,0,0,0.1,0,0.1c0,0,0,0.1,0,0.1L487,37.9z M490,29.5
		c-0.4,1.1-0.9,2.3-1.4,3.8s-1,2.9-1.4,4.4c0.7-0.7,1.3-1.5,1.9-2.2c0.6-0.8,1.2-1.5,1.8-2.1c0.6-0.7,1-1.3,1.5-1.9
		c0.4-0.6,0.8-1,1.1-1.4c0.2-0.3,0.6-0.8,1-1.3c0.4-0.6,0.9-1.2,1.4-2c0.5-0.7,1-1.5,1.5-2.4c0.5-0.8,1-1.6,1.4-2.5s0.8-1.6,1-2.3
		c0.3-0.7,0.4-1.4,0.4-1.9c0-0.8-0.3-1.2-1-1.4c-0.6-0.1-1.2,0.1-1.8,0.6s-1.2,1.2-1.9,2c-0.6,0.8-1.2,1.8-1.8,2.8
		c-0.6,1-1.2,2.1-1.7,3.1c-0.5,1-0.9,1.9-1.3,2.8C490.4,28.5,490.1,29.1,490,29.5z M491,46.8c0.3-0.3,0.6-0.7,0.8-1.1
		s0.5-0.8,0.6-1.1c0-0.1,0.1-0.3,0.1-0.5c0-0.2,0-0.3,0-0.4c0-0.3-0.2-0.6-0.4-0.8c-0.2-0.2-0.5-0.3-0.8-0.3c-0.5,0-0.9,0.2-1.3,0.5
		c-0.4,0.3-0.6,0.8-0.5,1.4c0.1,0.5,0.4,1.1,1,1.9h0C490.6,46.7,490.7,46.8,491,46.8z"/>
	<path class="st1" d="M500.7,41c0.1,0.1,0.2,0.2,0.2,0.3c0,0.1,0,0.3-0.1,0.4c0.1-0.1,0.2-0.2,0.3-0.3c0.4-0.3,0.8-0.5,1.3-0.7
		c0.5-0.2,0.9-0.3,1.4-0.3c0.4,0,0.8,0.1,1,0.4v0c0.3,0.3,0.4,0.7,0.4,1.3c0,0.4-0.1,0.9-0.2,1.4c-0.1,0.5-0.3,1.1-0.6,1.6
		s-0.5,1-0.8,1.5c-0.3,0.5-0.5,0.9-0.8,1.2c-0.6,0.7-1.2,1.3-1.9,1.7c-0.7,0.4-1.3,0.6-1.9,0.6c-0.5,0-0.9-0.1-1.2-0.4
		c-0.3-0.3-0.5-0.7-0.6-1.2c-0.1-0.5-0.1-1.1,0-1.7c0.1-0.6,0.3-1.2,0.5-1.9c0.2-0.6,0.5-1.3,0.9-1.9c0.4-0.6,0.7-1.2,1.2-1.7
		c0.1-0.1,0.3-0.2,0.5-0.3C500.4,41,500.5,41,500.7,41z M498.5,46.2c0,0.2-0.1,0.4-0.1,0.5c0,0.2,0,0.3,0,0.5c0,0.3,0.1,0.7,0.2,1
		c0.2,0.4,0.5,0.6,0.9,0.6c0.3,0,0.6-0.1,1-0.3c0.4-0.2,0.7-0.4,1-0.8c0.3-0.3,0.7-0.8,1-1.3c0.3-0.5,0.6-1.1,0.8-1.6
		c0.2-0.6,0.4-1.1,0.5-1.6c0.1-0.5,0.1-1,0-1.3c-0.1-0.1-0.2-0.2-0.4-0.2c-0.2,0-0.4,0-0.6,0.1c-0.2,0-0.4,0.1-0.7,0.2
		c-0.2,0.1-0.4,0.2-0.6,0.3c-0.6,0.5-1.2,1.1-1.7,1.8C499.3,45,498.9,45.6,498.5,46.2L498.5,46.2z"/>
	<path class="st1" d="M510.3,41c-0.1,0.2-0.3,0.5-0.6,1c-0.3,0.5-0.5,1-0.7,1.5c-0.2,0.5-0.3,1.1-0.4,1.5c-0.1,0.5,0,0.8,0.3,0.9
		c0.3,0.2,0.7,0.2,1.2,0c0.5-0.2,1.1-0.4,1.7-0.7c0.6-0.3,1.3-0.7,1.9-1.1c0.6-0.4,1.2-0.8,1.7-1.1c0-0.2,0-0.5,0-0.8
		c0.1-0.6,0.4-1.1,0.7-1.6c0.4-0.5,0.7-1,1.1-1.4c0.1-0.1,0.4-0.4,0.9-0.8c0.4-0.4,0.9-0.7,1.3-1s0.9-0.5,1.3-0.5
		c0.4-0.1,0.7,0.2,0.8,0.7v0c0.1,0.3,0,0.6-0.2,1s-0.5,0.8-0.8,1.3c-0.4,0.5-0.8,1-1.4,1.5c-0.5,0.5-1.1,1-1.7,1.5
		c0,0-0.1,0-0.3,0.2c-0.2,0.1-0.3,0.3-0.4,0.4c0.1,0.1,0.2,0.2,0.4,0.3c0.2,0.1,0.3,0.2,0.5,0.3c0.2,0.1,0.5,0.3,0.8,0.5
		c0.3,0.2,0.5,0.4,0.7,0.6l0.9-0.1c0.3,0,0.7-0.1,1.1-0.1c0.4-0.1,0.8-0.1,1.2-0.2c0.4-0.1,0.8-0.1,1.1-0.2c0.3-0.1,0.6-0.1,0.7-0.2
		c0.1,0,0.3,0,0.4,0s0.3,0.2,0.3,0.4v0c0,0.1,0,0.3,0,0.4c-0.1,0.2-0.2,0.3-0.3,0.3c-0.7,0.2-1.4,0.3-2,0.4
		c-0.6,0.1-1.1,0.1-1.6,0.2l-1.5,0.2c0,0.1,0,0.2,0,0.4c0,0.5-0.1,1.1-0.2,1.6c-0.2,0.5-0.4,1-0.8,1.4c-0.3,0.4-0.7,0.7-1.2,0.9
		c-0.5,0.2-1,0.3-1.5,0.1c-0.6-0.1-1-0.4-1.3-0.9c-0.2-0.5-0.2-1,0.1-1.5c0.4-0.8,0.8-1.4,1.4-1.8c0.5-0.4,1.1-0.8,1.7-1l-0.6-0.4
		c-0.1-0.1-0.3-0.2-0.4-0.3c-0.2-0.1-0.3-0.2-0.5-0.3v0l-0.3-0.3c-0.6,0.5-1.3,0.9-2,1.3c-0.7,0.4-1.3,0.8-2,1.1
		c-0.6,0.3-1.2,0.5-1.7,0.7c-0.5,0.1-1,0.2-1.3,0.1c-0.5-0.1-0.8-0.3-1-0.7c-0.2-0.3-0.3-0.7-0.3-1.2c0-0.4,0.1-0.9,0.2-1.4
		c0.1-0.5,0.3-1,0.5-1.4c0.2-0.5,0.4-0.9,0.6-1.3s0.4-0.7,0.5-0.9c0.3-0.3,0.5-0.4,0.8-0.2c0.2,0.1,0.3,0.4,0.3,0.7L510.3,41z
		 M511.3,39.3c-0.1,0.1-0.3,0.2-0.4,0.2c-0.2,0-0.3,0-0.4-0.1c-0.1-0.1-0.2-0.3-0.2-0.4c0-0.2,0-0.3,0.1-0.4l0.3-0.3l0.6-0.8
		c0.1-0.1,0.3-0.2,0.4-0.2c0.2,0,0.3,0,0.4,0.1c0.1,0.1,0.2,0.2,0.2,0.4s0,0.3-0.1,0.4L511.3,39.3z M518.3,47.8
		c0.2-0.6,0.3-1.1,0.2-1.4c-0.4,0.1-0.8,0.3-1.2,0.5c-0.1,0-0.2,0.2-0.5,0.4c-0.2,0.2-0.5,0.4-0.6,0.7c-0.2,0.3-0.3,0.5-0.4,0.7
		c-0.1,0.2,0,0.4,0.2,0.5c0.2,0.1,0.5,0.2,0.7,0.1c0.3,0,0.5-0.2,0.7-0.3c0.2-0.2,0.4-0.4,0.6-0.6C518.1,48.3,518.2,48.1,518.3,47.8
		z M516.6,42.1c0.1,0,0.2-0.1,0.2-0.1l-0.1,0.3L516.6,42.1z M518.6,46.4C518.6,46.4,518.5,46.5,518.6,46.4c-0.1,0-0.1,0-0.1,0v-0.1
		L518.6,46.4z"/>
</g>
</svg>
