<svg enable-background="new 0 0 1920 800" viewBox="0 0 1920 800" xmlns="http://www.w3.org/2000/svg"><path d="m-17.7-26.2h1957.7v859.3h-1957.7z" fill="#b7cfd8"/><g fill="#fff"><g enable-background="new"><path d="m693 414c-.7 1.7-1.5 4.1-2.3 6.7-2 5.6-4.1 12.1-6.9 16.8-1.9 3.1-4.1 5.5-6.7 6.1-3.1.8-8.2-1.6-10.2-6.2-4.2-9.5.8-20.3-3.1-30-.2-.3-.5-.3-.7-.1-1.5 2.1-2.2 5.2-2.8 7.3-1.1 4.1-2 8.2-3.1 12.3-.6 2.5-1.6 6.5-3.6 9.3-2.9 4.4-10 4.6-13.6-.4-3.3-4.5-4.1-12.3-3.4-19.5-.9.9-2.8.2-2.2-1.2 1.8-5 3.5-19.7 10.8-15.6 9.8 5.7 2.6 28.5 5.8 35.1.1.2.5.3.6.1 2.9-4 4-12.4 4.7-15.1 1.2-4.9 2.2-13.4 7.4-16.2.9-.5 8-1.4 11.1 6 3.2 7.6 1.3 19.9 2.3 24.7 1.5 6.9 2.2 5.7 4.5 1.7 2.6-4.5 4.8-11.1 6.5-16 .9-2.7 1.7-5 2.4-6.8.3-.7 1.1-1 1.8-.7.7.2 1 1 .7 1.7z"/><path d="m743.5 414c-.7 1.7-1.6 4.1-2.4 6.7-2.5 7.2-5.4 15.8-9.4 20.2-2.6 2.9-6.2 3.9-9.5 3-6.5-1.9-10.8-8.4-12.1-15.2-.4-2.1-.6-4.3-.6-6.4-1.4 4-2.3 7.7-4 12.2-.4 1-1.1 3.3-2.3 3.7-10.2 3.9-16-9.1-14.8-22.7.7-8.2 3.7-16.5 11.2-17.6 5.2-.8 8.9 3.1 11.8 7.8.6-3.4 1.3-6.7 1.9-10 .1-.7 1.4-1.6 2.2-1.5 7.4 1 9 8.8 8.2 15.2-.3 2.4-1.9 11.1-2 18.7-.1 3.5.1 7.2 1.2 9.7 1 2.1 3.6 4.7 6.8 1.4 3.6-3.9 6.7-13 8.8-19.4 1-2.7 1.7-5 2.5-6.8.3-.7 1-1 1.7-.7.7.2 1 1 .8 1.7zm-32.9-4.1c-1.3-2.6-3.3-6.2-5.8-8.1-.8-.6-2-.3-2.4.7-2.9 7.4-3.4 16.6-1.4 24.5.5 2.4 1.4 4.2 2.6 2.5 2.7-4.1 5.1-12.5 6.5-16.5.2-1 .3-2.1.5-3.1z"/><path d="m773.4 414c-.7 1.7-1.5 4.1-2.4 6.7-2.2 6.7-4.9 14.6-8.5 19.3-4.6 5.7-12.9 6.1-18.4-1.8-8.8-12.3-.3-26.9-.6-61.3-5.4-1-8.6.5-10 2.3-.5.6-1.4.7-1.9.2-.6-.5-.7-1.3-.2-1.9 2.8-3.5 7.6-4 12.1-3.3-.1-3.3-.3-6.8-.5-10.5-.1-.9-2.2-9.1 3.6-8.2 2.9.5 5.6 2.4 7.2 5.2s1.6 11.3 1.5 15.7c2.4.1 4.8-.2 7.1-.8 4.7-1.3 5.5-3.8 5-5.2-.3-.8-1.4-1.5-2.1-1.1-.7.3-1.5.1-1.9-.6-.3-.6-.1-1.4.6-1.8 2.2-1.2 5.1.3 5.9 2.7 1 2.8-.5 6.9-6.8 8.5-2.5.7-5.2 1-7.8 1 .2 22.6-2.7 42.9-2.7 43.6-.8 11.4 1.1 24.3 7.9 15.5 3.2-4.3 6-12.5 8-18.4.9-2.7 1.7-5 2.4-6.8.3-.7 1.1-1 1.8-.7.7.2 1 1 .7 1.7z"/><path d="m824.1 414c-.7 1.7-1.6 4.1-2.4 6.7-2.5 7.2-5.4 15.8-9.4 20.2-2.6 2.9-6.2 3.9-9.5 3-6.5-1.9-10.8-8.4-12.1-15.2-.4-2.1-.6-4.3-.6-6.4-1.4 4-2.3 7.7-4 12.2-.4 1-1.1 3.3-2.3 3.7-10.2 3.9-16-9.1-14.8-22.7.7-8.2 3.7-16.5 11.2-17.6 5.2-.8 8.9 3.1 11.8 7.8.6-3.4 1.3-6.7 1.9-10 .1-.7 1.4-1.6 2.2-1.5 7.4 1 9 8.8 8.2 15.2-.3 2.4-1.9 11.1-2 18.7-.1 3.5.1 7.2 1.2 9.7 1 2.1 3.6 4.7 6.8 1.4 3.6-3.9 6.7-13 8.8-19.4 1-2.7 1.7-5 2.5-6.8.3-.7 1-1 1.7-.7.7.2 1 1 .8 1.7zm-32.9-4.1c-1.3-2.6-3.3-6.2-5.8-8.1-.8-.6-2-.3-2.4.7-2.9 7.4-3.4 16.6-1.4 24.5.5 2.4 1.4 4.2 2.6 2.5 2.7-4.1 5.1-12.5 6.5-16.5.2-1 .3-2.1.5-3.1z"/><path d="m869 413.9c-2.5 8.1-7.1 15.9-14 21.3-20.9 16.3-38.2 5.3-35.3-16.5 1.3-10.4 9.1-20.9 16.2-24.4 7.6-3.8 17.8-1.8 16.9 8-.2 2.2-2.9 2.1-3.1.4-.5-6.3-12-2.2-16.6 10.7-6.5 18.3 2.3 25.9 13.4 22.8 10.4-3.7 16.8-12.6 19.9-23.1.2-.7 1-1.1 1.7-.9s1.1 1 .9 1.7z"/><path d="m927.4 414.4c-3.7 10.5-7.3 21.1-12 31.2-7.6 16.1-23.9 8.2-25.6-2.9-1.7-10.5 6.3-29.2 4.6-35.6-.2-.8-1-1.3-1.8-1.2-2.9.6-9.6 3.7-14.7 19.6.3 3.3.7 5.8 1.2 6.5 1.7 2.9-1.4 7-7.8 3.9-9.4-4.6-6.1-38.7-5.1-49.2 1-11 2.2-22.5 6.5-32.8 12.6-30 49.7-20.1 29.3 16.9-6.1 11-14.7 20.3-24.9 27.5 0 2.4 0 10.8.3 18.6 10.8-23 27.7-15.9 28.8 1.2.4 5.5-.7 11-1.9 16.4-4.6 20.4 3 20.9 8.7 10 3.2-6 10-25.5 11.8-30.8.6-1.6 3.2-.9 2.6.7zm-50.2-19.5c8-5.9 15-13.3 20.3-21.8 21.6-34.5-6.4-43.4-15.3-15.9-2.7 8.4-3.8 17.2-4.4 25.9-.3 3.9-.5 7.9-.6 11.8z"/><path d="m977.9 414c-.7 1.7-1.6 4.1-2.4 6.7-2.5 7.2-5.4 15.8-9.4 20.2-2.6 2.9-6.2 3.9-9.5 3-6.5-1.9-10.8-8.4-12.1-15.2-.4-2.1-.6-4.3-.6-6.4-1.4 4-2.3 7.7-4 12.2-.4 1-1.1 3.3-2.3 3.7-10.2 3.9-16-9.1-14.8-22.7.7-8.2 3.7-16.5 11.2-17.6 5.2-.8 8.9 3.1 11.8 7.8.6-3.4 1.3-6.7 1.9-10 .1-.7 1.4-1.6 2.2-1.5 7.4 1 9 8.8 8.2 15.2-.3 2.4-1.9 11.1-2 18.7-.1 3.5.1 7.2 1.2 9.7 1 2.1 3.6 4.7 6.8 1.4 3.6-3.9 6.7-13 8.8-19.4 1-2.7 1.7-5 2.5-6.8.3-.7 1-1 1.7-.7.7.2 1 1 .8 1.7zm-32.9-4.1c-1.3-2.6-3.3-6.2-5.8-8.1-.8-.6-2-.3-2.4.7-2.9 7.4-3.4 16.6-1.4 24.5.5 2.4 1.4 4.2 2.6 2.5 2.7-4.1 5.1-12.5 6.5-16.5.2-1 .3-2.1.5-3.1z"/></g><path d="m1083.5 414.4c-3.6 10.5-7.3 21.1-12 31.2-6.4 13.7-22.5 13.8-26.2-17l-.5-8.8c-2.2 7-4.7 15-5.1 15.9-.6 1.5-.9 2.3-4 2.7-8.4 1.1-12.4-10-12.6-17.1-.4-10.1 2.4-18.1 6.6-21.8 5.3-4.7 10.5-1.6 15 3.8.9-14.8 4.2-38.8 10-50.6 14.4-29.2 50.9-17.1 28.3 18.6-6.7 10.6-15.8 19.3-26.4 25.9-.7 10-.8 20.4-.2 31.3.9 14.9 3.4 27.3 9.4 20.9 3.9-4.2 6.8-13.1 7.8-15.7 2.6-6.6 5-13.3 7.3-20 .6-1.6 3.2-.9 2.6.7zm-39-.4c-.1-2.7.1-2.5-.1-6.4-1.3-2.5-3.2-5.3-5.5-6.7-.5-.4-1.2-.1-1.4.4-3.4 8.1-3.9 18.8-1.1 27.5.1.2.7 1.8 1.5.6 2.4-3.5 5-10.5 6.6-15.4zm12.3-20.1c8.4-5.5 15.8-12.4 21.6-20.5 23.5-33.2-3.8-43.8-14.3-16.8-4.4 11.1-6.2 25.3-7.3 37.3z"/><g enable-background="new"><path d="m1139.1 414c-.7 1.7-1.5 4.1-2.4 6.7-1.7 5-3.6 10.7-5.9 15.1-6.4 12.1-15.3 11.3-18.7 4.1-2.2-4.7-2.3-11.2-2.2-16.2 0-1.3.1-2.5.1-3.8-5.7 16.5-18 19.5-24.1 8.6-2.2-4-2.5-9.3-2.3-14.5-.2.8-.5 1.4-.8 2.3-.6 1.6-3.1.4-2.5-1.2 1.1-3 1.5-6.1 2.6-9.2 2.5-6.7 8.3-9.1 10.6-3.8 2.8 6.5 1 15.7 2 22.2 2.5 16.7 17.6-9 12.2-22.1-.9-2.1 9.3-8.2 13.9 2.2 2 4.5 1.5 9.7 1.4 14.4-.1 2.9-.1 5.7-.2 8.5 0 5 1.3 15.3 5.5 7.4 2.3-4.4 4.3-10.3 5.9-14.9.9-2.7 1.7-5 2.4-6.8.3-.7 1.1-1 1.8-.7.6.2 1 1 .7 1.7z"/><path d="m1195.5 414.3c-1.6 4.7-3.4 9.8-7.3 13.1-3.8 3.2-8.4 5.1-13.1 6.6l-.3 1.1c-1.1 2.9-2.3 5.4-3.9 8.1-7 11.2-17.8 8.9-18.3 2.7-.5-5.5 6.8-9.4 11.9-11.4 1.6-7.8 1.1-17.1-.5-22.5-1-3.3-2.5-5.3-4.2-5.6-3.3-.7-9.2 8.8-11.6 13.2.3 6 .8 11.2 1.5 12.4 1.7 2.9-1.3 7-7.8 3.9-9.4-4.6-6-38.7-5-49.2 1-11 2.1-22.5 6.4-32.8 12.7-30 49.8-20.1 29.3 16.9-6 11-14.6 20.3-24.8 27.5-.1 1.9 0 9 .2 16.3 4.8-7.5 12.5-16.6 19.2-15.8 3.7.4 7.6 3.4 9.3 11.2 1.6 7 1.3 14.5-.4 20.8 3.6-1.2 7.1-2.8 10-5.2 3.8-3 5.3-7.6 6.8-12 .5-1.6 3.1-.9 2.6.7zm-47.7-19.4c8.1-5.9 15-13.3 20.3-21.8 21.6-34.5-6.3-43.4-15.2-15.9-2.7 8.4-3.8 17.2-4.5 25.9-.3 3.9-.4 7.9-.6 11.8zm16 42.8c-6.5 2.8-8.7 6-8.5 8 .2 2.7 3.7.7 5.4-1.5 1.3-1.7 2.3-3.9 3.1-6.5z"/></g><path d="m1231.9 414.2c-2.4 7.4-5.9 12.3-12.1 14.1-2.6 9.6-9 20.2-20.2 15.9-10.4-4-12.5-16.2-9.3-27-6.4-14.5 5.9-27 18.5-21.8 11.6 4.7 13.8 18.9 11.7 30 4.7-2 7.2-6.5 8.9-11.9.5-1.6 3.1-.9 2.5.7zm-39.9-.4c6.4-8.7 19.4-2.5 13 1.3h-.1c-1.6 2.9-2.8 5.9-3.3 9.1 5.7 2.6 12.6 2.6 15.9 2 2.4-10.7 1.1-23-8.6-27.8-11.4-5.7-19.8 5.4-16.9 15.4zm24.8 15.1c-4.5.6-10.5-.1-15.4-2 0 10.7 11 16.2 15.4 2z"/><path d="m1261.8 414c-.7 1.7-1.5 4.1-2.4 6.7-2 5.7-4.4 12.6-7.3 17.3-6.5 10.7-15.2 7.8-18 1.9-2.2-4.7-2.3-11.1-2.2-16.1.2-5.7.3-9.3.4-11.7-.2 1.1-.4 2-1.1 3.7-.7 1.6-3.2.9-2.6-.7 1.1-3 1.8-6 1.6-9.2-.8-11 9.9-9.5 13.4-1.4 2.4 5.3 1.2 11.6 1.4 16.9v3.9c-.6 7.5 1.1 10.9 2.9 12.4.4.4 1 .3 1.4-.1 3.1-4.5 5.7-12.2 7.6-17.8.9-2.7 1.6-5 2.4-6.8.2-.6.9-1 1.5-.8.8.2 1.3 1.1 1 1.8zm-25.9-36.7c10.7-.9 8.6 14-.1 14-8.6 0-8.5-13.3.1-14z"/><path d="m1292.7 414.1c-1.5 4.5-3.2 9.5-7.1 12.6-1.8 1.5-4 2.4-6.3 3 4.1 19.3-8.7 29.8-19.9 27.6-7.5-1.9-12.2-10.1-8.2-17.2 3.1-5.4 9.9-7.7 17.1-10.2-.4-2.5-1-5.1-1.8-8-1-3.3-2.2-6.1-3.4-9.4-1 1.6-1.3 2.4-2.5 4.9-.3.7-.9 1.2-1.6 1s-1.1-.9-1-1.6c.8-3.1 2.2-5.7 3.9-7.9-.9-3-1.4-6-1-9.1 2.2-20.2 28.5-13 10.1 3.4l-1.5 1.4c1.1 2.8 2.4 5.6 3.6 8.3 2.1 4.7 4.3 9.4 5.6 14.2 1.6-.4 3.1-1 4.5-1.9 3.9-2.6 5.5-7.6 6.9-11.8.6-1.7 3.2-1 2.6.7zm-24 18.5c-6.5 2.3-12.7 4.4-15.1 8.8-3.1 5.4.4 11.7 6.5 13.3 4.7.9 10.3-7.2 8.6-22.1zm.6-31.4c14.6-13.1-4.8-16.2-1.4-1.6.2.7.4 1.5.7 2.3.2-.2.4-.5.7-.7z"/></g></svg>