<svg id="Layer_1" data-name="Layer 1" xmlns="http://www.w3.org/2000/svg" viewBox="0 0 796.31 144.05"><defs><style>.cls-1{fill:#5f758d;}.cls-2{fill:#fff;}</style></defs><rect class="cls-1" width="796.31" height="144.05"/><path class="cls-2" d="M224.36,36q-1.44,5.34-3.48,11.16t-4,11.4L216,60.86q-2.28,6.3-4.59,12.48t-4.65,12.48l-2.22,5.88q.84-1.74,1.74-3.39L208,85.1q1.44-2.7,3.72-6.84t5.19-9q2.91-4.89,6.33-10.26t7.14-10.5q3.72-5.13,7.65-9.75a77.18,77.18,0,0,1,7.83-8,37.66,37.66,0,0,1,7.68-5.34,13.73,13.73,0,0,1,7.2-1.68,6.31,6.31,0,0,1,5,3.54,16.54,16.54,0,0,1,1.5,7.44,42.11,42.11,0,0,1-.51,6.3q-.51,3.36-1.32,6.87t-1.83,7q-1,3.45-2,6.57t-2,5.76q-1,2.64-1.62,4.5-2.1,5.64-4.32,11.1t-4.5,11q-.9,2.1-1.83,4.38t-1.77,4.38q-.48,1.14-.87,2.22t-.75,2.22a1.48,1.48,0,0,1-.48.66,1.27,1.27,0,0,1-.84.3.62.62,0,0,1-.6-.21.69.69,0,0,1-.12-.69l.3-1a.49.49,0,0,1,.12-.36q.9-2.46,2-5.07t2.13-5.19l2.34-5.7q1-2.4,2.58-6.3t3.45-8.7q1.83-4.8,3.69-10.17t3.36-10.62q1.5-5.25,2.43-10.14a47,47,0,0,0,.93-8.67,15.28,15.28,0,0,0-1.2-6.54,5,5,0,0,0-4.08-2.94A11.29,11.29,0,0,0,253.28,27,33.06,33.06,0,0,0,246,32.18a78,78,0,0,0-7.5,8q-3.78,4.62-7.41,9.81t-7,10.56q-3.36,5.37-6.18,10.26t-5,8.94q-2.22,4-3.54,6.63-1.5,2.94-3.24,6.45T202.64,100q-1.74,3.6-3.3,7.11t-2.7,6.45l-.48,1.32a.92.92,0,0,0-.12.36,1.44,1.44,0,0,1-.48.72,1.55,1.55,0,0,1-.78.36.82.82,0,0,1-.69-.27.74.74,0,0,1-.09-.69q.3-.78.6-1.74v.06a.27.27,0,0,1,0-.12.27.27,0,0,0,0-.12l1.08-3.12q4.68-13,9.54-25.92,2.16-5.82,4.41-11.79T214,60.74l.63-1.86q.33-1,.69-1.92,1.86-5.16,3.72-10.59T222.32,36v.06a1.44,1.44,0,0,1,.48-.72,1.55,1.55,0,0,1,.78-.36.67.67,0,0,1,.78.9Z"/><path class="cls-2" d="M272,75.14a.89.89,0,0,1,.48,1.14A12.19,12.19,0,0,1,274.31,75a1.82,1.82,0,0,1,1.83-.18,1.22,1.22,0,0,1,.36,1,6.58,6.58,0,0,1-.12,1.29,3.61,3.61,0,0,0-.12.6.27.27,0,0,1,0,.12.42.42,0,0,0,0,.18q-.06.42-.12,1.08T276,80.48a4.11,4.11,0,0,0,.21,1.41.85.85,0,0,0,.69.63,7.66,7.66,0,0,0,2.31-1.62,36.83,36.83,0,0,0,2.88-3.06q1.53-1.8,3.18-4t3.27-4.5q1.62-2.28,3.06-4.5t2.58-4q.3-.84.54-1.59t.54-1.59q-3.24-.06-6.36-.06h-6.36a.89.89,0,0,1-.69-.3,1,1,0,0,1-.27-.72.85.85,0,0,1,1-1q1.68,0,3.33,0t3.39,0h6.66L298.82,48a3.29,3.29,0,0,1,.18-.42,3.29,3.29,0,0,0,.18-.42l1.17-2.82A24,24,0,0,1,302.06,41a10.18,10.18,0,0,1,2-2.43,1.29,1.29,0,0,1,1.92,0v-.06a2,2,0,0,1,.48,1.89,13.89,13.89,0,0,1-.75,2.91,31.86,31.86,0,0,1-1.32,3.09q-.75,1.53-1.17,2.43l-.24.48q-.54,1.14-1.47,2.88t-2,3.54q3.66.06,7.35.06h12.84q2.73,0,5.43-.06h1.77a12.52,12.52,0,0,0,1.77-.12,1.29,1.29,0,0,1,.72.24.89.89,0,0,1,.42.6.85.85,0,0,1-.21.72,1.07,1.07,0,0,1-.63.36l-1.26.09q-.6,0-1.26,0l-.63,0-.63,0q-2.28.06-5.13.06H314.9l-8.28,0-8.28-.09q-.54.84-1.11,1.83l-1.05,1.83Q294.62,66,293,71.09t-3.09,9.81q-1.47,4.74-2.67,8.7T285.32,96V96q-.18.72-.42,1.47t-.42,1.47l-2.1,7.26q-1.08,3.78-2.16,7.53t-2.28,7.53l-.6,1.8a.91.91,0,0,1-.48.54,1,1,0,0,1-.84,0,.81.81,0,0,1-.51-.51,1.08,1.08,0,0,1,0-.75l.78-2.4q1.2-3.9,2.49-8.37t2.43-8.37q1.5-5.16,3-10.26t3.06-10.2l4.44-14.28q-1.92,2.94-3.9,5.7T283.94,79a33.77,33.77,0,0,1-3.54,3.6,8.23,8.23,0,0,1-3,1.8h.06a2.67,2.67,0,0,1-1.65,0,2.09,2.09,0,0,1-1-.87,4.24,4.24,0,0,1-.51-1.47,10.76,10.76,0,0,1-.15-1.83,23.78,23.78,0,0,1,.18-3.06,16.89,16.89,0,0,0-1.2,1.2q-.66.72-1.35,1.56t-1.29,1.65q-.6.81-1,1.35l-.36.48-.6.66h.06q-.72,1-1.8,2.22a20.45,20.45,0,0,1-2.28,2.28A7.47,7.47,0,0,1,262,90a2.7,2.7,0,0,1-2.4-.3l-1-.9a2.89,2.89,0,0,1-.48-1.74,5.75,5.75,0,0,1,.63-2.46,16,16,0,0,1,1.53-2.55,27,27,0,0,1,1.86-2.28q1-1,1.62-1.65a16.6,16.6,0,0,1,1.77-1.41,15.12,15.12,0,0,1,2-1.2,7.09,7.09,0,0,1,2.16-.66A4.35,4.35,0,0,1,272,75.14Zm-.9,1.8a3,3,0,0,0-2.46.27,12.75,12.75,0,0,0-2.85,1.92,29.58,29.58,0,0,0-2.64,2.61A22,22,0,0,0,261.32,84q-.18.3-.51,1a6.92,6.92,0,0,0-.51,1.35,3,3,0,0,0-.09,1.23q.09.54.75.6a2.42,2.42,0,0,0,1.77-.72A21.39,21.39,0,0,0,265,85.31q1.2-1.29,2.4-2.79t2.22-2.82q.66-.84,1.2-1.5l.9-1.08.12-.12A.88.88,0,0,1,271.1,76.94Zm27.84-24.36.72-1.32-.48,1.44Zm.72-1.32.12-.12a.12.12,0,0,1,0-.09.24.24,0,0,0,0-.15Z"/><path class="cls-2" d="M314.6,78.14a9.42,9.42,0,0,0-5.37,1,12,12,0,0,0-4.53,4.2,13.68,13.68,0,0,0-1,1.77,4.09,4.09,0,0,0-.42,1.65,1.18,1.18,0,0,0,.51,1,2.28,2.28,0,0,0,1.47.3,6.83,6.83,0,0,0,2.91-1.41,27.23,27.23,0,0,0,3.06-2.76,41.4,41.4,0,0,0,2.88-3.33q1.35-1.74,2.37-3.12l.66-.78.36-.54q.84-1,1.56-.81t.48,1.17a3.15,3.15,0,0,0-.18.72q-.06.42-.12,1t-.18,1.41q-.06.75-.06,1.53a12.81,12.81,0,0,0,.15,2,6.12,6.12,0,0,0,.51,1.71,3.33,3.33,0,0,0,.93,1.2,2.2,2.2,0,0,0,1.41.45,5.67,5.67,0,0,0,2.16-.54,15.79,15.79,0,0,0,3.42-2.13q1.68-1.35,3.18-2.67v.06l.3-.3a1.83,1.83,0,0,1,.72-.39.66.66,0,0,1,.66.21v-.06a.51.51,0,0,1,.21.6,1.57,1.57,0,0,1-.45.78q-1.2,1.14-2.25,2T328,85.64a16.28,16.28,0,0,1-3.75,2.19,8.32,8.32,0,0,1-2.91.63,3.69,3.69,0,0,1-2-.54A4.24,4.24,0,0,1,318,86.45a6.91,6.91,0,0,1-.78-2.19,14.09,14.09,0,0,1-.24-2.64v-.87a7.5,7.5,0,0,1,.06-.93q-1.2,1.56-2.61,3.27a35.15,35.15,0,0,1-3,3.21,20.3,20.3,0,0,1-3.24,2.52,7.88,7.88,0,0,1-3.27,1.2,3.35,3.35,0,0,1-2.76-.54,2.65,2.65,0,0,1-.84-2,7.13,7.13,0,0,1,.72-2.91,13.19,13.19,0,0,1,1.86-3,14.51,14.51,0,0,1,5.61-4.44,12.65,12.65,0,0,1,6.15-1,.83.83,0,0,1,.45.45.86.86,0,0,1-.15.81,1.31,1.31,0,0,1-.57.57A1.16,1.16,0,0,1,314.6,78.14Z"/><path class="cls-2" d="M342.56,76.52a4.81,4.81,0,0,0-2.4-.84,4,4,0,0,0-1.83.48,11.08,11.08,0,0,0-1.89,1.26,14.84,14.84,0,0,0-1.83,2,19.47,19.47,0,0,0-1.8,2.67,17,17,0,0,0-1.29,2.85,4.63,4.63,0,0,0-.24,2.49q.12.66.6.72A3.82,3.82,0,0,0,333,88H333a22.31,22.31,0,0,0,7.2-4.17,48.9,48.9,0,0,0,6.27-6.42,77.55,77.55,0,0,0,5.4-7.5q2.49-3.93,4.59-7.41l2-3.3q1.08-3.18,2.37-6.75t2.67-7.05q1.38-3.48,2.82-6.72t2.82-5.79a32.07,32.07,0,0,1,2.67-4.23,6,6,0,0,1,2.43-2.1q1.2-.42,1.56.12a2.11,2.11,0,0,1,.24,1.47,9,9,0,0,1-.51,2q-.39,1-.63,1.65l-.12.24a.17.17,0,0,0-.06.12h.06q-1.08,2.64-2.61,5.91T368.78,45q-1.86,3.6-4,7.38t-4.41,7.5q-1.68,4.92-3.24,9.81t-2.94,9L352,85.34q1.2-1.38,2.52-2.76T357.14,80q1.26-1.23,2.37-2.22t1.95-1.65l.9-.6a8.5,8.5,0,0,1,1.2-.66q.66-.3,1.32-.54a3.84,3.84,0,0,1,1.32-.24,2,2,0,0,1,1.86,1.14,3.79,3.79,0,0,1,.15,2.52q-.33,1.62-.81,3.18-.36,1.26-.63,2.43a5.31,5.31,0,0,0-.15,2,1.56,1.56,0,0,0,.54,1,1.73,1.73,0,0,0,1.44.09,10.43,10.43,0,0,0,1.89-.63,21.73,21.73,0,0,0,2.16-1.08q1.11-.63,2.25-1.35t2.1-1.44q.54-.36,1-.72l.81-.66v.06a.89.89,0,0,1,.72-.27,1.1,1.1,0,0,1,.72.33.85.85,0,0,1,.18.69,1.22,1.22,0,0,1-.36.69,39.26,39.26,0,0,1-3.54,2.58q-2.1,1.38-3.84,2.34A13.75,13.75,0,0,1,370.13,88a8.27,8.27,0,0,1-2.43.42,3.05,3.05,0,0,1-2-.63,2.89,2.89,0,0,1-1-2,4.15,4.15,0,0,1-.09-1.17,10,10,0,0,1,.15-1.35s0,0,.06-.15.09-.33.15-.57a7.73,7.73,0,0,0,.15-.78,4.46,4.46,0,0,1,.18-.78q.18-.72.36-1.47t.3-1.47l.21-1.26a2.14,2.14,0,0,0,0-.78h-.12a3.9,3.9,0,0,0-2.16.69,18.74,18.74,0,0,0-2.7,2q-1.44,1.26-3,2.82t-3,3.18q-1.44,1.62-2.67,3.12t-2,2.52l-.3.42v-.06a.1.1,0,0,1-.06.09.1.1,0,0,0-.06.09l-.12.24a.9.9,0,0,1-.51.54.83.83,0,0,1-.75,0h.06a.76.76,0,0,1-.6-.48.9.9,0,0,1-.06-.84.17.17,0,0,1,.06-.12.17.17,0,0,0,.06-.12,3.29,3.29,0,0,0,.18-.42q.06-.18.12-.42,1-2.94,1.95-5.82t1.89-5.94Q353,75.92,353.6,74t1.14-3.45q.3-1.08.63-2t.69-2l-1.68,2.52q-3.18,4.86-6.6,9.45a40.68,40.68,0,0,1-8,8.07l-1.41,1a19.32,19.32,0,0,1-1.95,1.17,15.5,15.5,0,0,1-2.22,1,6.53,6.53,0,0,1-2.1.39,2.84,2.84,0,0,1-1.77-.57,3.15,3.15,0,0,1-1.05-1.89,6.74,6.74,0,0,1,.33-3.42,18.83,18.83,0,0,1,1.74-3.78,19.53,19.53,0,0,1,2.55-3.39,12.26,12.26,0,0,1,2.82-2.31,6.74,6.74,0,0,1,3.42-1,6.89,6.89,0,0,1,3.6,1.14,1.1,1.1,0,0,1,.33.72,1.2,1.2,0,0,1-.15.72l-.42.3a.79.79,0,0,1-1-.18ZM363.26,51l.78-1.44-.54,1.56Zm10.44-21.6a13,13,0,0,0-2.13,2.85q-1.11,1.89-2.34,4.53t-2.55,5.91q-1.32,3.27-2.64,6.87.78-1.38,1.44-2.64l1.26-2.4.48-.9,1.38-2.73q.9-1.77,1.86-3.84t1.86-4.14Q373.22,30.8,373.7,29.36Z"/><path class="cls-2" d="M389.18,78.14a9.42,9.42,0,0,0-5.37,1,12,12,0,0,0-4.53,4.2,13.68,13.68,0,0,0-1,1.77,4.09,4.09,0,0,0-.42,1.65,1.18,1.18,0,0,0,.51,1,2.28,2.28,0,0,0,1.47.3,6.83,6.83,0,0,0,2.91-1.41,27.23,27.23,0,0,0,3.06-2.76,41.4,41.4,0,0,0,2.88-3.33q1.35-1.74,2.37-3.12l.66-.78.36-.54q.84-1,1.56-.81t.48,1.17a3.15,3.15,0,0,0-.18.72q-.06.42-.12,1t-.18,1.41q-.06.75-.06,1.53a12.81,12.81,0,0,0,.15,2,6.12,6.12,0,0,0,.51,1.71,3.33,3.33,0,0,0,.93,1.2,2.2,2.2,0,0,0,1.41.45,5.67,5.67,0,0,0,2.16-.54,15.79,15.79,0,0,0,3.42-2.13q1.68-1.35,3.18-2.67v.06l.3-.3a1.83,1.83,0,0,1,.72-.39.66.66,0,0,1,.66.21v-.06a.51.51,0,0,1,.21.6,1.57,1.57,0,0,1-.45.78q-1.2,1.14-2.25,2t-1.95,1.56a16.28,16.28,0,0,1-3.75,2.19,8.32,8.32,0,0,1-2.91.63,3.69,3.69,0,0,1-2-.54,4.24,4.24,0,0,1-1.38-1.47,6.91,6.91,0,0,1-.78-2.19,14.09,14.09,0,0,1-.24-2.64v-.87a7.5,7.5,0,0,1,.06-.93q-1.2,1.56-2.61,3.27a35.15,35.15,0,0,1-3,3.21,20.3,20.3,0,0,1-3.24,2.52,7.88,7.88,0,0,1-3.27,1.2,3.35,3.35,0,0,1-2.76-.54,2.65,2.65,0,0,1-.84-2,7.13,7.13,0,0,1,.72-2.91,13.19,13.19,0,0,1,1.86-3,14.51,14.51,0,0,1,5.61-4.44,12.65,12.65,0,0,1,6.15-1,.83.83,0,0,1,.45.45.86.86,0,0,1-.15.81,1.31,1.31,0,0,1-.57.57A1.16,1.16,0,0,1,389.18,78.14Z"/><path class="cls-2" d="M492.2,78.32A101.21,101.21,0,0,1,474.89,93.5a132.35,132.35,0,0,1-19.35,11.16q-.66,1.8-1.23,3.63T453.14,112l-.54,1.74a4.74,4.74,0,0,1-.15.57,4.74,4.74,0,0,0-.15.57,1.46,1.46,0,0,1-1.32.9q-1,0-.66-1.14l.3-.9q.66-2,1.26-4t1.26-4l-.54.24v.12a.86.86,0,0,1-.06.69,1.77,1.77,0,0,1-.6.69,1,1,0,0,1-.81.21.65.65,0,0,1-.51-.45l-.12-.3v-.06l-.54.21-.54.21-.36.12h.06a152.82,152.82,0,0,1-16.89,5.73q-8.43,2.31-16.65,3.75-1,.12-.9-.84a1.34,1.34,0,0,1,1.2-1.14q8.22-1.44,16.8-3.81a152.56,152.56,0,0,0,17.22-5.91,40.21,40.21,0,0,1-1.56-6.87,53.32,53.32,0,0,1-.48-7.23,64,64,0,0,1,3.21-19.53A91.57,91.57,0,0,1,466.25,43.4a84.4,84.4,0,0,1,7.41-8.25,63.26,63.26,0,0,1,8.49-7,29.29,29.29,0,0,1,9-4.26,16.64,16.64,0,0,1,4-.54,13,13,0,0,1,4.65.81,14.43,14.43,0,0,1,3.84,2.16,13.91,13.91,0,0,1,2.94,3.18,15.74,15.74,0,0,1,1.89,3.81,23.1,23.1,0,0,1,.9,3.69,25.45,25.45,0,0,1,.3,4,33.34,33.34,0,0,1-1.38,9.15,60.25,60.25,0,0,1-3.75,9.72,77.78,77.78,0,0,1-5.55,9.6A91.46,91.46,0,0,1,492.2,78.32ZM477.26,40q-2.1,5.88-4.14,11.79t-4,11.85l-1.92,5.82-2,6q-2.28,6.84-4.5,13.44t-4.44,13.5A123.53,123.53,0,0,0,475.64,91a92.17,92.17,0,0,0,16.8-15.54,83.42,83.42,0,0,0,6-8.1,65.12,65.12,0,0,0,4.8-8.67,54,54,0,0,0,3.15-8.79,33.34,33.34,0,0,0,1.14-8.4,21.81,21.81,0,0,0-1.32-7.68,15.9,15.9,0,0,0-1.74-3.24A12.73,12.73,0,0,0,502,27.89,11.9,11.9,0,0,0,498.59,26a11.72,11.72,0,0,0-4-.69,16,16,0,0,0-3.6.48,25.73,25.73,0,0,0-5.43,2.31,43.68,43.68,0,0,0-5.4,3.6,57,57,0,0,0-5.13,4.5q-2.46,2.43-4.71,5t-4.14,5.16q-1.89,2.58-3.33,4.86a85.69,85.69,0,0,0-9.6,19.92A62.7,62.7,0,0,0,450,90.5a51.11,51.11,0,0,0,.48,7A38.89,38.89,0,0,0,452,104.3l1.86-.84q2.76-8.34,5.67-17t5.73-17l1.62-4.86q2-6.12,4.11-12.39t4.29-12.27a1.11,1.11,0,0,1,.51-.66,1.52,1.52,0,0,1,.81-.24Q477.56,39,477.26,40Z"/><path class="cls-2" d="M507.56,77.42h.06a15.76,15.76,0,0,0-1.53,2.43A23.9,23.9,0,0,0,504.71,83a13,13,0,0,0-.72,3,2.35,2.35,0,0,0,.45,2q.54.54,1.65,0a14,14,0,0,0,2.37-1.59q1.26-1,2.49-2.22t1.95-2l1-1q.42-.36,1-.9a10.06,10.06,0,0,1,1.2-1,11.15,11.15,0,0,1,2.34-1.38q1.14-.48,1.62.3a1.76,1.76,0,0,1,.12.75A6.63,6.63,0,0,1,520,80a.27.27,0,0,1,0,.12.27.27,0,0,0,0,.12q-.12.84-.27,1.62t-.27,1.56q-.18.84-.3,1.59A8.34,8.34,0,0,0,519,86.3q0,1.26,1,1.26a8.82,8.82,0,0,0,3.51-1.44q2.49-1.44,7.29-4.8l.42-.3.54-.42a1.63,1.63,0,0,1,.81-.24.62.62,0,0,1,.57.3.66.66,0,0,1,.06.72,1.71,1.71,0,0,1-.6.72l-2,1.38-3,2.1q-1.53,1.08-3,2A27,27,0,0,1,521.78,89a6,6,0,0,1-2.34.57,2.13,2.13,0,0,1-1.89-1.11A5.84,5.84,0,0,1,517,85q.06-.54.21-1.29t.33-1.53q.12-.66.24-1.23t.18-1.05l-.12.06a12.57,12.57,0,0,0-1.8,1.41q-1,.93-2.22,2.07-1.38,1.38-2.91,2.76a29,29,0,0,1-3,2.37,11,11,0,0,1-2.7,1.41,2.39,2.39,0,0,1-2.22-.24,3.13,3.13,0,0,1-1.14-2.7,10.17,10.17,0,0,1,.39-2.64,20.66,20.66,0,0,1,1-2.88,26.79,26.79,0,0,1,1.38-2.73,24.93,24.93,0,0,1,1.41-2.19,2.2,2.2,0,0,1,.75-.48,1,1,0,0,1,.75-.06q.54.3.24,1.08Z"/><path class="cls-2" d="M531.8,80.72a30.79,30.79,0,0,0,3.9-3.21q2.34-2.19,4.86-5l-.06.06q.78-3.24,1.59-5.94t1.29-4.08q.6-1.74,1.8-4.8T548,51.2q1.59-3.48,3.54-7.05a51.76,51.76,0,0,1,4.08-6.39,22.58,22.58,0,0,1,4.32-4.47,5.81,5.81,0,0,1,4.35-1.35,3.71,3.71,0,0,1,2.16,1.32,3.79,3.79,0,0,1,.72,2.34,10.33,10.33,0,0,1-.51,3,25.72,25.72,0,0,1-1.35,3.42q-.84,1.77-1.86,3.57T561.35,49q-1.05,1.62-2,3t-1.62,2.28q-1,1.38-2.64,3.48t-3.66,4.62q-2,2.52-4.38,5.28T542.3,73l.06-.06q-.48,2.22-.87,4.38a35.65,35.65,0,0,0-.51,4,16.37,16.37,0,0,0-.06,2.43,14.65,14.65,0,0,0,.24,2.13q.48,2.22,2,2.22a6,6,0,0,0,2.28-.6,9.36,9.36,0,0,0,2.22-1.26A4.34,4.34,0,0,1,546.29,85a8.12,8.12,0,0,1-.87-1.71,5.29,5.29,0,0,1-.36-2,5.59,5.59,0,0,1,1-3,5.28,5.28,0,0,1,3.06-2,4.51,4.51,0,0,1,3.6.36,2.92,2.92,0,0,1,1.44,2.64,5.28,5.28,0,0,1-.36,1.86.35.35,0,0,0-.06.24,13.45,13.45,0,0,1-.87,1.68,17.84,17.84,0,0,1-1.11,1.62,36.77,36.77,0,0,0,5.49-1.74,36.32,36.32,0,0,0,5.07-2.46,1.48,1.48,0,0,1,.78-.15.71.71,0,0,1,.6.33.66.66,0,0,1,0,.69,2,2,0,0,1-.63.69,27.92,27.92,0,0,1-3,1.65q-1.71.81-3.54,1.5a33.86,33.86,0,0,1-3.6,1.14,13,13,0,0,1-3.15.45A13.77,13.77,0,0,1,546.35,89a11.15,11.15,0,0,1-3.63,1,2.92,2.92,0,0,1-3-1.59,9.48,9.48,0,0,1-.93-4.53q0-.6,0-1.2t.09-1.26q.12-1.38.33-2.82t.51-2.88q-1.86,1.92-3.48,3.48a23.29,23.29,0,0,1-2.94,2.46l-1.14.78a1,1,0,0,1-.81.12.72.72,0,0,1-.45-.42,1.4,1.4,0,0,1,.15-.84A1.21,1.21,0,0,1,531.8,80.72ZM543,69.8l.24-.3a.66.66,0,0,1,0,.21.66.66,0,0,0,0,.21Zm4.86-14q-1.08,2.7-2.34,6.3T543.2,69.5q1.68-1.86,3.24-3.75l2.94-3.57q1.38-1.68,2.49-3.09l1.83-2.31q.6-.78,1.65-2.22t2.31-3.3q1.26-1.86,2.58-3.93t2.37-4.11a37.14,37.14,0,0,0,1.74-3.87A9.18,9.18,0,0,0,565,36.2a2.23,2.23,0,0,0-1.74-2.4,4,4,0,0,0-3,1.08,18.38,18.38,0,0,0-3.12,3.36,50,50,0,0,0-3.06,4.68q-1.5,2.58-2.76,5.1t-2.19,4.62Q548.24,54.74,547.82,55.82Zm1.68,28.86a12.47,12.47,0,0,0,1.35-1.77,16.7,16.7,0,0,0,1-1.89,4.56,4.56,0,0,0,.18-.75,4.34,4.34,0,0,0,.06-.63,1.58,1.58,0,0,0-.66-1.26A2.35,2.35,0,0,0,550.1,78a3.23,3.23,0,0,0-2.13.84,2.56,2.56,0,0,0-.81,2.4,7.27,7.27,0,0,0,1.62,3.12h-.06A1.29,1.29,0,0,0,549.5,84.68Z"/><path class="cls-2" d="M565.64,75a.74.74,0,0,1,.36.54.88.88,0,0,1-.24.72,3.65,3.65,0,0,1,.54-.42,9.5,9.5,0,0,1,2.1-1.14,6.14,6.14,0,0,1,2.28-.48,2.27,2.27,0,0,1,1.68.6v-.06a2.72,2.72,0,0,1,.72,2.1,9.2,9.2,0,0,1-.36,2.4,18.49,18.49,0,0,1-.93,2.61,23.67,23.67,0,0,1-1.26,2.46,19.4,19.4,0,0,1-1.29,2,12.36,12.36,0,0,1-3.18,2.79,6.3,6.3,0,0,1-3.18,1,3,3,0,0,1-2-.66,3.57,3.57,0,0,1-1.08-2,7.72,7.72,0,0,1,0-2.79,17.41,17.41,0,0,1,.87-3.12,20.25,20.25,0,0,1,1.5-3.12,27.25,27.25,0,0,1,1.92-2.85,1.44,1.44,0,0,1,.75-.48A1.19,1.19,0,0,1,565.64,75ZM562,83.66a8.94,8.94,0,0,0-.18.9,6.37,6.37,0,0,0-.06.9,4.47,4.47,0,0,0,.3,1.62,1.58,1.58,0,0,0,1.5,1,3.6,3.6,0,0,0,1.68-.48,7.1,7.1,0,0,0,1.68-1.26,13.18,13.18,0,0,0,1.68-2.13,15.77,15.77,0,0,0,1.41-2.7,16,16,0,0,0,.84-2.7,4.78,4.78,0,0,0,0-2.19.7.7,0,0,0-.63-.39,3.51,3.51,0,0,0-1,.09,5.27,5.27,0,0,0-1.11.39,4.39,4.39,0,0,0-.93.57,14.43,14.43,0,0,0-2.88,3Q563,82.16,562,83.72Z"/><path class="cls-2" d="M581.78,74.9q-.3.48-1,1.71a21.58,21.58,0,0,0-1.17,2.58,11.17,11.17,0,0,0-.66,2.55q-.15,1.2.51,1.56a2.38,2.38,0,0,0,2,0,18.51,18.51,0,0,0,2.88-1.23,35,35,0,0,0,3.15-1.86q1.59-1,2.79-1.89a3.34,3.34,0,0,1,0-1.26,7.69,7.69,0,0,1,1.2-2.7A19.13,19.13,0,0,1,593.36,72q.36-.36,1.44-1.32A16,16,0,0,1,597.05,69a5.87,5.87,0,0,1,2.22-.87q1.05-.15,1.35,1.11V69.2a2.54,2.54,0,0,1-.3,1.71,12.77,12.77,0,0,1-1.41,2.19,22.86,22.86,0,0,1-2.28,2.49q-1.35,1.29-2.85,2.55a2.69,2.69,0,0,0-.42.3,7,7,0,0,0-.72.6,2.16,2.16,0,0,0,.63.42,5,5,0,0,1,.81.48,9,9,0,0,1,1.26.78,5.87,5.87,0,0,1,1.14,1.08l1.56-.18q.84-.06,1.89-.21l2-.3q1-.15,1.8-.33a7.35,7.35,0,0,0,1.23-.36,1,1,0,0,1,.75.06.92.92,0,0,1,.51.66v-.06a.86.86,0,0,1-.06.69.93.93,0,0,1-.48.51,32.45,32.45,0,0,1-3.27.69q-1.41.21-2.61.33l-2.58.36a2.52,2.52,0,0,1,.06.6,7.12,7.12,0,0,1-.39,2.64,7,7,0,0,1-1.29,2.31,5.79,5.79,0,0,1-2,1.53,3.94,3.94,0,0,1-2.55.24A2.77,2.77,0,0,1,589,89.51,2.81,2.81,0,0,1,589,87a9,9,0,0,1,2.28-3,9.55,9.55,0,0,1,2.82-1.62l-1-.6q-.36-.24-.75-.45a3.24,3.24,0,0,1-.75-.57v-.06l-.54-.54q-1.62,1.14-3.33,2.16t-3.3,1.77a18,18,0,0,1-2.91,1.11,4.93,4.93,0,0,1-2.22.18,2.75,2.75,0,0,1-1.74-1.14,3.58,3.58,0,0,1-.54-2,8.94,8.94,0,0,1,.33-2.31,19.91,19.91,0,0,1,.81-2.4q.48-1.17,1-2.16a16.55,16.55,0,0,1,.87-1.53q.66-.84,1.38-.3a1.12,1.12,0,0,1,.42,1.2Zm1.62-2.82a1.42,1.42,0,0,1-.72.39.74.74,0,0,1-.72-.21,1.22,1.22,0,0,1-.36-.69.85.85,0,0,1,.18-.69l.42-.54L583.28,69a1.22,1.22,0,0,1,.69-.36.85.85,0,0,1,.69.18.8.8,0,0,1,.3.66,1.94,1.94,0,0,1-.12.72ZM595,86.36a4.65,4.65,0,0,0,.3-2.28,11.69,11.69,0,0,0-2,.9q-.18.12-.78.63a7.29,7.29,0,0,0-1.08,1.14,5.3,5.3,0,0,0-.72,1.23.64.64,0,0,0,.3.9,1.71,1.71,0,0,0,1.23.24,2.72,2.72,0,0,0,1.17-.54,5.34,5.34,0,0,0,1-1A3.86,3.86,0,0,0,595,86.36Zm-2.82-9.54a1.4,1.4,0,0,0,.36-.24l-.18.42Zm3.3,7.2a.12.12,0,0,0-.09,0,.12.12,0,0,1-.09,0V83.9Z"/></svg>