<?xml version="1.0" encoding="utf-8"?>
<!-- Generator: Adobe Illustrator 24.1.3, SVG Export Plug-In . SVG Version: 6.00 Build 0)  -->
<svg version="1.1" id="Layer_1" xmlns="http://www.w3.org/2000/svg" xmlns:xlink="http://www.w3.org/1999/xlink" x="0px" y="0px"
	 viewBox="0 0 1920 800" style="enable-background:new 0 0 1920 800;" xml:space="preserve">
<style type="text/css">
	.st0{fill:#B9D4D0;}
	.st1{enable-background:new    ;}
	.st2{fill:#FFFFFF;}
</style>
<path class="st0" d="M-17.7-26.2H1940v859.3H-17.7L-17.7-26.2z"/>
<g>
	<g class="st1">
		<path class="st2" d="M693,414c-0.7,1.7-1.5,4.1-2.3,6.7c-2,5.6-4.1,12.1-6.9,16.8c-1.9,3.1-4.1,5.5-6.7,6.1
			c-3.1,0.8-8.2-1.6-10.2-6.2c-4.2-9.5,0.8-20.3-3.1-30c-0.2-0.3-0.5-0.3-0.7-0.1c-1.5,2.1-2.2,5.2-2.8,7.3c-1.1,4.1-2,8.2-3.1,12.3
			c-0.6,2.5-1.6,6.5-3.6,9.3c-2.9,4.4-10,4.6-13.6-0.4c-3.3-4.5-4.1-12.3-3.4-19.5c-0.9,0.9-2.8,0.2-2.2-1.2
			c1.8-5,3.5-19.7,10.8-15.6c9.8,5.7,2.6,28.5,5.8,35.1c0.1,0.2,0.5,0.3,0.6,0.1c2.9-4,4-12.4,4.7-15.1c1.2-4.9,2.2-13.4,7.4-16.2
			c0.9-0.5,8-1.4,11.1,6c3.2,7.6,1.3,19.9,2.3,24.7c1.5,6.9,2.2,5.7,4.5,1.7c2.6-4.5,4.8-11.1,6.5-16c0.9-2.7,1.7-5,2.4-6.8
			c0.3-0.7,1.1-1,1.8-0.7C693,412.5,693.3,413.3,693,414L693,414z"/>
		<path class="st2" d="M743.5,414c-0.7,1.7-1.6,4.1-2.4,6.7c-2.5,7.2-5.4,15.8-9.4,20.2c-2.6,2.9-6.2,3.9-9.5,3
			c-6.5-1.9-10.8-8.4-12.1-15.2c-0.4-2.1-0.6-4.3-0.6-6.4c-1.4,4-2.3,7.7-4,12.2c-0.4,1-1.1,3.3-2.3,3.7c-10.2,3.9-16-9.1-14.8-22.7
			c0.7-8.2,3.7-16.5,11.2-17.6c5.2-0.8,8.9,3.1,11.8,7.8c0.6-3.4,1.3-6.7,1.9-10c0.1-0.7,1.4-1.6,2.2-1.5c7.4,1,9,8.8,8.2,15.2
			c-0.3,2.4-1.9,11.1-2,18.7c-0.1,3.5,0.1,7.2,1.2,9.7c1,2.1,3.6,4.7,6.8,1.4c3.6-3.9,6.7-13,8.8-19.4c1-2.7,1.7-5,2.5-6.8
			c0.3-0.7,1-1,1.7-0.7C743.4,412.5,743.7,413.3,743.5,414L743.5,414z M710.6,409.9c-1.3-2.6-3.3-6.2-5.8-8.1
			c-0.8-0.6-2-0.3-2.4,0.7c-2.9,7.4-3.4,16.6-1.4,24.5c0.5,2.4,1.4,4.2,2.6,2.5c2.7-4.1,5.1-12.5,6.5-16.5
			C710.3,412,710.4,410.9,710.6,409.9L710.6,409.9z"/>
		<path class="st2" d="M773.4,414c-0.7,1.7-1.5,4.1-2.4,6.7c-2.2,6.7-4.9,14.6-8.5,19.3c-4.6,5.7-12.9,6.1-18.4-1.8
			c-8.8-12.3-0.3-26.9-0.6-61.3c-5.4-1-8.6,0.5-10,2.3c-0.5,0.6-1.4,0.7-1.9,0.2c-0.6-0.5-0.7-1.3-0.2-1.9c2.8-3.5,7.6-4,12.1-3.3
			c-0.1-3.3-0.3-6.8-0.5-10.5c-0.1-0.9-2.2-9.1,3.6-8.2c2.9,0.5,5.6,2.4,7.2,5.2s1.6,11.3,1.5,15.7c2.4,0.1,4.8-0.2,7.1-0.8
			c4.7-1.3,5.5-3.8,5-5.2c-0.3-0.8-1.4-1.5-2.1-1.1c-0.7,0.3-1.5,0.1-1.9-0.6c-0.3-0.6-0.1-1.4,0.6-1.8c2.2-1.2,5.1,0.3,5.9,2.7
			c1,2.8-0.5,6.9-6.8,8.5c-2.5,0.7-5.2,1-7.8,1c0.2,22.6-2.7,42.9-2.7,43.6c-0.8,11.4,1.1,24.3,7.9,15.5c3.2-4.3,6-12.5,8-18.4
			c0.9-2.7,1.7-5,2.4-6.8c0.3-0.7,1.1-1,1.8-0.7C773.4,412.5,773.7,413.3,773.4,414L773.4,414z"/>
		<path class="st2" d="M824.1,414c-0.7,1.7-1.6,4.1-2.4,6.7c-2.5,7.2-5.4,15.8-9.4,20.2c-2.6,2.9-6.2,3.9-9.5,3
			c-6.5-1.9-10.8-8.4-12.1-15.2c-0.4-2.1-0.6-4.3-0.6-6.4c-1.4,4-2.3,7.7-4,12.2c-0.4,1-1.1,3.3-2.3,3.7c-10.2,3.9-16-9.1-14.8-22.7
			c0.7-8.2,3.7-16.5,11.2-17.6c5.2-0.8,8.9,3.1,11.8,7.8c0.6-3.4,1.3-6.7,1.9-10c0.1-0.7,1.4-1.6,2.2-1.5c7.4,1,9,8.8,8.2,15.2
			c-0.3,2.4-1.9,11.1-2,18.7c-0.1,3.5,0.1,7.2,1.2,9.7c1,2.1,3.6,4.7,6.8,1.4c3.6-3.9,6.7-13,8.8-19.4c1-2.7,1.7-5,2.5-6.8
			c0.3-0.7,1-1,1.7-0.7C824,412.5,824.3,413.3,824.1,414L824.1,414z M791.2,409.9c-1.3-2.6-3.3-6.2-5.8-8.1c-0.8-0.6-2-0.3-2.4,0.7
			c-2.9,7.4-3.4,16.6-1.4,24.5c0.5,2.4,1.4,4.2,2.6,2.5c2.7-4.1,5.1-12.5,6.5-16.5C790.9,412,791,410.9,791.2,409.9L791.2,409.9z"/>
		<path class="st2" d="M869,413.9c-2.5,8.1-7.1,15.9-14,21.3c-20.9,16.3-38.2,5.3-35.3-16.5c1.3-10.4,9.1-20.9,16.2-24.4
			c7.6-3.8,17.8-1.8,16.9,8c-0.2,2.2-2.9,2.1-3.1,0.4c-0.5-6.3-12-2.2-16.6,10.7c-6.5,18.3,2.3,25.9,13.4,22.8
			c10.4-3.7,16.8-12.6,19.9-23.1c0.2-0.7,1-1.1,1.7-0.9S869.2,413.2,869,413.9L869,413.9z"/>
		<path class="st2" d="M927.4,414.4c-3.7,10.5-7.3,21.1-12,31.2c-7.6,16.1-23.9,8.2-25.6-2.9c-1.7-10.5,6.3-29.2,4.6-35.6
			c-0.2-0.8-1-1.3-1.8-1.2c-2.9,0.6-9.6,3.7-14.7,19.6c0.3,3.3,0.7,5.8,1.2,6.5c1.7,2.9-1.4,7-7.8,3.9c-9.4-4.6-6.1-38.7-5.1-49.2
			c1-11,2.2-22.5,6.5-32.8c12.6-30,49.7-20.1,29.3,16.9c-6.1,11-14.7,20.3-24.9,27.5c0,2.4,0,10.8,0.3,18.6
			c10.8-23,27.7-15.9,28.8,1.2c0.4,5.5-0.7,11-1.9,16.4c-4.6,20.4,3,20.9,8.7,10c3.2-6,10-25.5,11.8-30.8
			C925.4,412.1,928,412.8,927.4,414.4L927.4,414.4z M877.2,394.9c8-5.9,15-13.3,20.3-21.8c21.6-34.5-6.4-43.4-15.3-15.9
			c-2.7,8.4-3.8,17.2-4.4,25.9C877.5,387,877.3,391,877.2,394.9z"/>
		<path class="st2" d="M977.9,414c-0.7,1.7-1.6,4.1-2.4,6.7c-2.5,7.2-5.4,15.8-9.4,20.2c-2.6,2.9-6.2,3.9-9.5,3
			c-6.5-1.9-10.8-8.4-12.1-15.2c-0.4-2.1-0.6-4.3-0.6-6.4c-1.4,4-2.3,7.7-4,12.2c-0.4,1-1.1,3.3-2.3,3.7c-10.2,3.9-16-9.1-14.8-22.7
			c0.7-8.2,3.7-16.5,11.2-17.6c5.2-0.8,8.9,3.1,11.8,7.8c0.6-3.4,1.3-6.7,1.9-10c0.1-0.7,1.4-1.6,2.2-1.5c7.4,1,9,8.8,8.2,15.2
			c-0.3,2.4-1.9,11.1-2,18.7c-0.1,3.5,0.1,7.2,1.2,9.7c1,2.1,3.6,4.7,6.8,1.4c3.6-3.9,6.7-13,8.8-19.4c1-2.7,1.7-5,2.5-6.8
			c0.3-0.7,1-1,1.7-0.7C977.8,412.5,978.1,413.3,977.9,414L977.9,414z M945,409.9c-1.3-2.6-3.3-6.2-5.8-8.1c-0.8-0.6-2-0.3-2.4,0.7
			c-2.9,7.4-3.4,16.6-1.4,24.5c0.5,2.4,1.4,4.2,2.6,2.5c2.7-4.1,5.1-12.5,6.5-16.5C944.7,412,944.8,410.9,945,409.9L945,409.9z"/>
	</g>
	<path class="st2" d="M1083.5,414.4c-3.6,10.5-7.3,21.1-12,31.2c-6.4,13.7-22.5,13.8-26.2-17l-0.5-8.8c-2.2,7-4.7,15-5.1,15.9
		c-0.6,1.5-0.9,2.3-4,2.7c-8.4,1.1-12.4-10-12.6-17.1c-0.4-10.1,2.4-18.1,6.6-21.8c5.3-4.7,10.5-1.6,15,3.8
		c0.9-14.8,4.2-38.8,10-50.6c14.4-29.2,50.9-17.1,28.3,18.6c-6.7,10.6-15.8,19.3-26.4,25.9c-0.7,10-0.8,20.4-0.2,31.3
		c0.9,14.9,3.4,27.3,9.4,20.9c3.9-4.2,6.8-13.1,7.8-15.7c2.6-6.6,5-13.3,7.3-20C1081.5,412.1,1084.1,412.8,1083.5,414.4
		L1083.5,414.4z M1044.5,414c-0.1-2.7,0.1-2.5-0.1-6.4c-1.3-2.5-3.2-5.3-5.5-6.7c-0.5-0.4-1.2-0.1-1.4,0.4
		c-3.4,8.1-3.9,18.8-1.1,27.5c0.1,0.2,0.7,1.8,1.5,0.6C1040.3,425.9,1042.9,418.9,1044.5,414z M1056.8,393.9
		c8.4-5.5,15.8-12.4,21.6-20.5c23.5-33.2-3.8-43.8-14.3-16.8C1059.7,367.7,1057.9,381.9,1056.8,393.9L1056.8,393.9z"/>
	<g class="st1">
		<path class="st2" d="M1139.1,414c-0.7,1.7-1.5,4.1-2.4,6.7c-1.7,5-3.6,10.7-5.9,15.1c-6.4,12.1-15.3,11.3-18.7,4.1
			c-2.2-4.7-2.3-11.2-2.2-16.2c0-1.3,0.1-2.5,0.1-3.8c-5.7,16.5-18,19.5-24.1,8.6c-2.2-4-2.5-9.3-2.3-14.5c-0.2,0.8-0.5,1.4-0.8,2.3
			c-0.6,1.6-3.1,0.4-2.5-1.2c1.1-3,1.5-6.1,2.6-9.2c2.5-6.7,8.3-9.1,10.6-3.8c2.8,6.5,1,15.7,2,22.2c2.5,16.7,17.6-9,12.2-22.1
			c-0.9-2.1,9.3-8.2,13.9,2.2c2,4.5,1.5,9.7,1.4,14.4c-0.1,2.9-0.1,5.7-0.2,8.5c0,5,1.3,15.3,5.5,7.4c2.3-4.4,4.3-10.3,5.9-14.9
			c0.9-2.7,1.7-5,2.4-6.8c0.3-0.7,1.1-1,1.8-0.7C1139,412.5,1139.4,413.3,1139.1,414L1139.1,414z"/>
		<path class="st2" d="M1195.5,414.3c-1.6,4.7-3.4,9.8-7.3,13.1c-3.8,3.2-8.4,5.1-13.1,6.6l-0.3,1.1c-1.1,2.9-2.3,5.4-3.9,8.1
			c-7,11.2-17.8,8.9-18.3,2.7c-0.5-5.5,6.8-9.4,11.9-11.4c1.6-7.8,1.1-17.1-0.5-22.5c-1-3.3-2.5-5.3-4.2-5.6
			c-3.3-0.7-9.2,8.8-11.6,13.2c0.3,6,0.8,11.2,1.5,12.4c1.7,2.9-1.3,7-7.8,3.9c-9.4-4.6-6-38.7-5-49.2c1-11,2.1-22.5,6.4-32.8
			c12.7-30,49.8-20.1,29.3,16.9c-6,11-14.6,20.3-24.8,27.5c-0.1,1.9,0,9,0.2,16.3c4.8-7.5,12.5-16.6,19.2-15.8
			c3.7,0.4,7.6,3.4,9.3,11.2c1.6,7,1.3,14.5-0.4,20.8c3.6-1.2,7.1-2.8,10-5.2c3.8-3,5.3-7.6,6.8-12
			C1193.4,412,1196,412.7,1195.5,414.3L1195.5,414.3z M1147.8,394.9c8.1-5.9,15-13.3,20.3-21.8c21.6-34.5-6.3-43.4-15.2-15.9
			c-2.7,8.4-3.8,17.2-4.5,25.9C1148.1,387,1148,391,1147.8,394.9L1147.8,394.9z M1163.8,437.7c-6.5,2.8-8.7,6-8.5,8
			c0.2,2.7,3.7,0.7,5.4-1.5C1162,442.5,1163,440.3,1163.8,437.7z"/>
	</g>
	<path class="st2" d="M1231.9,414.2c-2.4,7.4-5.9,12.3-12.1,14.1c-2.6,9.6-9,20.2-20.2,15.9c-10.4-4-12.5-16.2-9.3-27
		c-6.4-14.5,5.9-27,18.5-21.8c11.6,4.7,13.8,18.9,11.7,30c4.7-2,7.2-6.5,8.9-11.9C1229.9,411.9,1232.5,412.6,1231.9,414.2
		L1231.9,414.2z M1192,413.8c6.4-8.7,19.4-2.5,13,1.3h-0.1c-1.6,2.9-2.8,5.9-3.3,9.1c5.7,2.6,12.6,2.6,15.9,2
		c2.4-10.7,1.1-23-8.6-27.8C1197.5,392.7,1189.1,403.8,1192,413.8z M1216.8,428.9c-4.5,0.6-10.5-0.1-15.4-2
		C1201.4,437.6,1212.4,443.1,1216.8,428.9z"/>
	<path class="st2" d="M1261.8,414c-0.7,1.7-1.5,4.1-2.4,6.7c-2,5.7-4.4,12.6-7.3,17.3c-6.5,10.7-15.2,7.8-18,1.9
		c-2.2-4.7-2.3-11.1-2.2-16.1c0.2-5.7,0.3-9.3,0.4-11.7c-0.2,1.1-0.4,2-1.1,3.7c-0.7,1.6-3.2,0.9-2.6-0.7c1.1-3,1.8-6,1.6-9.2
		c-0.8-11,9.9-9.5,13.4-1.4c2.4,5.3,1.2,11.6,1.4,16.9v3.9c-0.6,7.5,1.1,10.9,2.9,12.4c0.4,0.4,1,0.3,1.4-0.1
		c3.1-4.5,5.7-12.2,7.6-17.8c0.9-2.7,1.6-5,2.4-6.8c0.2-0.6,0.9-1,1.5-0.8C1261.6,412.4,1262.1,413.3,1261.8,414L1261.8,414z
		 M1235.9,377.3c10.7-0.9,8.6,14-0.1,14C1227.2,391.3,1227.3,378,1235.9,377.3z"/>
	<path class="st2" d="M1292.7,414.1c-1.5,4.5-3.2,9.5-7.1,12.6c-1.8,1.5-4,2.4-6.3,3c4.1,19.3-8.7,29.8-19.9,27.6
		c-7.5-1.9-12.2-10.1-8.2-17.2c3.1-5.4,9.9-7.7,17.1-10.2c-0.4-2.5-1-5.1-1.8-8c-1-3.3-2.2-6.1-3.4-9.4c-1,1.6-1.3,2.4-2.5,4.9
		c-0.3,0.7-0.9,1.2-1.6,1s-1.1-0.9-1-1.6c0.8-3.1,2.2-5.7,3.9-7.9c-0.9-3-1.4-6-1-9.1c2.2-20.2,28.5-13,10.1,3.4l-1.5,1.4
		c1.1,2.8,2.4,5.6,3.6,8.3c2.1,4.7,4.3,9.4,5.6,14.2c1.6-0.4,3.1-1,4.5-1.9c3.9-2.6,5.5-7.6,6.9-11.8
		C1290.7,411.7,1293.3,412.4,1292.7,414.1L1292.7,414.1z M1268.7,432.6c-6.5,2.3-12.7,4.4-15.1,8.8c-3.1,5.4,0.4,11.7,6.5,13.3
		C1264.8,455.6,1270.4,447.5,1268.7,432.6L1268.7,432.6z M1269.3,401.2c14.6-13.1-4.8-16.2-1.4-1.6c0.2,0.7,0.4,1.5,0.7,2.3
		C1268.8,401.7,1269,401.4,1269.3,401.2L1269.3,401.2z"/>
</g>
</svg>
