<?xml version="1.0" encoding="utf-8"?>
<!-- Generator: Adobe Illustrator 25.1.0, SVG Export Plug-In . SVG Version: 6.00 Build 0)  -->
<svg version="1.1" id="Layer_1" xmlns="http://www.w3.org/2000/svg" xmlns:xlink="http://www.w3.org/1999/xlink" x="0px" y="0px"
	 viewBox="0 0 796.3 144.1" style="enable-background:new 0 0 796.3 144.1;" xml:space="preserve">
<style type="text/css">
	.st0{fill:#5F758D;}
	.st1{fill:#FFFFFF;}
</style>
<rect x="-10.6" y="-9.6" class="st0" width="823.2" height="163"/>
<g>
	<path class="st1" d="M224.4,36c-1,3.6-2.1,7.3-3.5,11.2c-1.4,3.9-2.7,7.7-4,11.4l-0.8,2.3c-1.5,4.2-3.1,8.4-4.6,12.5
		c-1.5,4.1-3.1,8.3-4.6,12.5l-2.2,5.9c0.6-1.2,1.1-2.3,1.7-3.4c0.6-1.1,1.2-2.2,1.7-3.2c1-1.8,2.2-4.1,3.7-6.8
		c1.5-2.8,3.2-5.8,5.2-9c1.9-3.3,4-6.7,6.3-10.3c2.3-3.6,4.7-7.1,7.1-10.5c2.5-3.4,5-6.7,7.7-9.8c2.6-3.1,5.2-5.8,7.8-8
		c2.6-2.3,5.2-4.1,7.7-5.3c2.5-1.3,4.9-1.8,7.2-1.7c2.3,0.4,4,1.5,5,3.5c1,2,1.5,4.5,1.5,7.4c0,2-0.2,4.1-0.5,6.3
		c-0.3,2.2-0.8,4.5-1.3,6.9c-0.5,2.3-1.2,4.7-1.8,7c-0.7,2.3-1.4,4.5-2,6.6c-0.7,2.1-1.3,4-2,5.8c-0.6,1.8-1.2,3.3-1.6,4.5
		c-1.4,3.8-2.8,7.5-4.3,11.1c-1.5,3.6-3,7.3-4.5,11c-0.6,1.4-1.2,2.9-1.8,4.4c-0.6,1.5-1.2,3-1.8,4.4c-0.3,0.8-0.6,1.5-0.9,2.2
		c-0.3,0.7-0.5,1.5-0.8,2.2c-0.1,0.2-0.2,0.5-0.5,0.7c-0.2,0.2-0.5,0.3-0.8,0.3c-0.2,0-0.4,0-0.6-0.2c-0.2-0.2-0.2-0.4-0.1-0.7
		l0.3-1c0-0.2,0-0.3,0.1-0.4c0.6-1.6,1.3-3.3,2-5.1c0.7-1.7,1.4-3.5,2.1-5.2l2.3-5.7c0.6-1.6,1.5-3.7,2.6-6.3
		c1.1-2.6,2.2-5.5,3.4-8.7c1.2-3.2,2.4-6.6,3.7-10.2c1.2-3.6,2.4-7.1,3.4-10.6c1-3.5,1.8-6.9,2.4-10.1c0.6-3.3,0.9-6.1,0.9-8.7
		c0-2.7-0.4-4.9-1.2-6.5c-0.8-1.7-2.2-2.7-4.1-2.9c-2.1-0.3-4.3,0.2-6.7,1.4c-2.4,1.2-4.8,2.9-7.3,5.2c-2.5,2.3-5,5-7.5,8
		c-2.5,3.1-5,6.4-7.4,9.8c-2.4,3.5-4.8,7-7,10.6c-2.2,3.6-4.3,7-6.2,10.3c-1.9,3.3-3.6,6.2-5,8.9c-1.5,2.7-2.7,4.9-3.5,6.6
		c-1,2-2.1,4.1-3.2,6.5c-1.2,2.3-2.3,4.7-3.5,7.1c-1.2,2.4-2.3,4.8-3.3,7.1c-1,2.3-1.9,4.5-2.7,6.5l-0.5,1.3
		c-0.1,0.2-0.1,0.3-0.1,0.4c-0.1,0.3-0.2,0.5-0.5,0.7c-0.2,0.2-0.5,0.3-0.8,0.4c-0.3,0-0.6-0.1-0.7-0.3c-0.1-0.2-0.2-0.4-0.1-0.7
		c0.2-0.5,0.4-1.1,0.6-1.7v0.1c0,0,0-0.1,0-0.1c0,0,0-0.1,0-0.1l1.1-3.1c3.1-8.6,6.3-17.3,9.5-25.9c1.4-3.9,2.9-7.8,4.4-11.8
		c1.5-4,2.9-7.9,4.4-11.8c0.2-0.6,0.4-1.2,0.6-1.9c0.2-0.6,0.5-1.3,0.7-1.9c1.2-3.4,2.5-7,3.7-10.6c1.2-3.6,2.3-7.1,3.2-10.4v0.1
		c0.1-0.3,0.2-0.5,0.5-0.7c0.2-0.2,0.5-0.3,0.8-0.4c0.3,0,0.5,0,0.7,0.2C224.4,35.4,224.4,35.6,224.4,36L224.4,36z"/>
	<path class="st1" d="M272,75.1c0.5,0.3,0.6,0.7,0.5,1.1c0.5-0.4,1.1-0.9,1.8-1.3c0.7-0.4,1.3-0.5,1.8-0.2c0.2,0.2,0.4,0.5,0.4,1
		s0,0.9-0.1,1.3c-0.1,0.3-0.1,0.5-0.1,0.6c0,0,0,0.1,0,0.1c0,0,0,0.1,0,0.2c0,0.3-0.1,0.6-0.1,1.1c0,0.4-0.1,0.9-0.1,1.4
		c0,0.6,0.1,1,0.2,1.4c0.1,0.4,0.4,0.6,0.7,0.6c0.6-0.2,1.4-0.8,2.3-1.6c0.9-0.8,1.9-1.9,2.9-3.1s2.1-2.5,3.2-4
		c1.1-1.5,2.2-3,3.3-4.5c1.1-1.5,2.1-3,3.1-4.5s1.8-2.8,2.6-4c0.2-0.6,0.4-1.1,0.5-1.6c0.2-0.5,0.3-1,0.5-1.6
		c-2.2,0-4.3-0.1-6.4-0.1c-2.1,0-4.2,0-6.4,0c-0.3,0-0.5-0.1-0.7-0.3c-0.2-0.2-0.3-0.4-0.3-0.7c0-0.6,0.3-1,1-1c1.1,0,2.2,0,3.3,0
		c1.1,0,2.2,0,3.4,0h6.7l2.9-7.6c0-0.1,0.1-0.3,0.2-0.4c0.1-0.2,0.1-0.3,0.2-0.4c0.3-0.7,0.7-1.6,1.2-2.8c0.5-1.2,1.1-2.3,1.7-3.4
		c0.6-1,1.3-1.8,2-2.4c0.7-0.6,1.3-0.6,1.9,0v-0.1c0.4,0.4,0.6,1,0.5,1.9c-0.1,0.9-0.4,1.9-0.8,2.9c-0.4,1-0.8,2.1-1.3,3.1
		c-0.5,1-0.9,1.8-1.2,2.4l-0.2,0.5c-0.4,0.8-0.9,1.7-1.5,2.9c-0.6,1.2-1.3,2.3-2,3.5c2.4,0,4.9,0.1,7.3,0.1c2.5,0,4.9,0,7.4,0
		c1.8,0,3.7,0,5.5,0c1.8,0,3.6,0,5.4-0.1c0.6,0,1.1,0,1.8,0c0.6,0,1.2,0,1.8-0.1c0.2,0,0.5,0.1,0.7,0.2c0.2,0.2,0.4,0.4,0.4,0.6
		c0,0.3,0,0.5-0.2,0.7c-0.2,0.2-0.4,0.3-0.6,0.4c-0.4,0-0.9,0.1-1.3,0.1c-0.4,0-0.8,0-1.3,0c-0.2,0-0.4,0-0.6,0c-0.2,0-0.4,0-0.6,0
		c-1.5,0-3.2,0.1-5.1,0.1c-1.9,0-3.6,0-5.1,0c-2.8,0-5.5,0-8.3,0c-2.8,0-5.5,0-8.3-0.1c-0.4,0.6-0.7,1.2-1.1,1.8
		c-0.4,0.7-0.7,1.3-1.1,1.8c-1,3.2-2.1,6.4-3.2,9.8c-1.1,3.4-2.1,6.7-3.1,9.8c-1,3.2-1.9,6.1-2.7,8.7c-0.8,2.6-1.4,4.8-1.9,6.4V96
		c-0.1,0.5-0.3,1-0.4,1.5c-0.2,0.5-0.3,1-0.4,1.5l-2.1,7.3c-0.7,2.5-1.4,5-2.2,7.5c-0.7,2.5-1.5,5-2.3,7.5l-0.6,1.8
		c-0.1,0.2-0.2,0.4-0.5,0.5c-0.2,0.1-0.5,0.1-0.8,0c-0.2-0.1-0.4-0.2-0.5-0.5c-0.1-0.3-0.1-0.5,0-0.8l0.8-2.4
		c0.8-2.6,1.6-5.4,2.5-8.4c0.9-3,1.7-5.8,2.4-8.4c1-3.4,2-6.9,3-10.3c1-3.4,2-6.8,3.1-10.2l4.4-14.3c-1.3,2-2.6,3.9-3.9,5.7
		s-2.6,3.5-3.8,4.9c-1.2,1.4-2.4,2.6-3.5,3.6c-1.1,1-2.1,1.6-3,1.8h0.1c-0.7,0.2-1.2,0.1-1.6,0c-0.4-0.2-0.8-0.5-1-0.9
		c-0.2-0.4-0.4-0.9-0.5-1.5c-0.1-0.6-0.2-1.2-0.2-1.8c0-1.1,0.1-2.1,0.2-3.1c-0.4,0.3-0.8,0.7-1.2,1.2c-0.4,0.5-0.9,1-1.3,1.6
		c-0.5,0.6-0.9,1.1-1.3,1.6c-0.4,0.5-0.7,1-1,1.4l-0.4,0.5l-0.6,0.7h0.1c-0.5,0.6-1.1,1.4-1.8,2.2c-0.7,0.8-1.5,1.6-2.3,2.3
		c-0.8,0.7-1.6,1.2-2.5,1.4c-0.8,0.3-1.6,0.2-2.4-0.3l-1-0.9c-0.3-0.4-0.5-1-0.5-1.7c0-0.8,0.2-1.6,0.6-2.5c0.4-0.9,0.9-1.7,1.5-2.5
		c0.6-0.8,1.2-1.6,1.9-2.3c0.6-0.7,1.2-1.2,1.6-1.7c0.5-0.5,1.1-0.9,1.8-1.4c0.7-0.5,1.3-0.9,2-1.2c0.7-0.3,1.4-0.6,2.2-0.7
		C270.5,74.8,271.3,74.9,272,75.1z M271.1,76.9c-0.7-0.3-1.5-0.2-2.5,0.3c-1,0.5-1.9,1.1-2.8,1.9c-0.9,0.8-1.8,1.7-2.6,2.6
		c-0.8,0.9-1.4,1.7-1.8,2.3c-0.1,0.2-0.3,0.5-0.5,1c-0.2,0.4-0.4,0.9-0.5,1.4s-0.1,0.9-0.1,1.2c0.1,0.4,0.3,0.6,0.8,0.6
		c0.5,0.1,1.1-0.2,1.8-0.7c0.7-0.6,1.4-1.3,2.2-2.1c0.8-0.9,1.6-1.8,2.4-2.8c0.8-1,1.5-1.9,2.2-2.8c0.4-0.6,0.8-1.1,1.2-1.5
		c0.4-0.4,0.7-0.8,0.9-1.1l0.1-0.1C271.5,77.1,271.3,77.1,271.1,76.9z M298.9,52.6l0.7-1.3l-0.5,1.4L298.9,52.6z M299.7,51.3
		l0.1-0.1c0,0,0-0.1,0-0.1c0,0,0-0.1,0-0.1L299.7,51.3z"/>
	<path class="st1" d="M314.6,78.1c-1.8-0.2-3.6,0.1-5.4,1c-1.7,0.9-3.3,2.3-4.5,4.2c-0.4,0.6-0.7,1.2-1,1.8
		c-0.3,0.6-0.4,1.2-0.4,1.7c0,0.4,0.2,0.8,0.5,1c0.3,0.2,0.8,0.3,1.5,0.3c0.9-0.2,1.9-0.6,2.9-1.4c1-0.8,2-1.7,3.1-2.8
		c1-1.1,2-2.2,2.9-3.3c0.9-1.2,1.7-2.2,2.4-3.1l0.7-0.8l0.4-0.5c0.6-0.7,1.1-1,1.6-0.8c0.5,0.1,0.6,0.5,0.5,1.2
		c-0.1,0.2-0.1,0.4-0.2,0.7c0,0.3-0.1,0.6-0.1,1c-0.1,0.4-0.1,0.9-0.2,1.4c0,0.5-0.1,1-0.1,1.5c0,0.7,0,1.3,0.2,2
		c0.1,0.6,0.3,1.2,0.5,1.7c0.2,0.5,0.5,0.9,0.9,1.2c0.4,0.3,0.8,0.4,1.4,0.4c0.6,0,1.3-0.2,2.2-0.5c1.2-0.5,2.3-1.2,3.4-2.1
		c1.1-0.9,2.2-1.8,3.2-2.7v0.1l0.3-0.3c0.2-0.2,0.5-0.3,0.7-0.4c0.2-0.1,0.5,0,0.7,0.2v-0.1c0.2,0.1,0.3,0.3,0.2,0.6
		c-0.1,0.3-0.2,0.5-0.5,0.8c-0.8,0.8-1.6,1.4-2.2,2c-0.7,0.6-1.4,1.1-2,1.6c-1.4,1-2.6,1.8-3.8,2.2c-1.1,0.4-2.1,0.6-2.9,0.6
		c-0.8,0-1.5-0.2-2-0.5c-0.6-0.4-1-0.8-1.4-1.5c-0.4-0.6-0.6-1.4-0.8-2.2c-0.2-0.8-0.2-1.7-0.2-2.6c0-0.3,0-0.6,0-0.9s0-0.6,0.1-0.9
		c-0.8,1-1.7,2.1-2.6,3.3c-0.9,1.1-1.9,2.2-3,3.2c-1.1,1-2.1,1.8-3.2,2.5c-1.1,0.7-2.2,1.1-3.3,1.2c-1.3,0.2-2.2,0-2.8-0.5
		c-0.6-0.5-0.8-1.2-0.8-2c0-0.9,0.2-1.9,0.7-2.9s1.1-2,1.9-3c1.7-2.1,3.6-3.6,5.6-4.4c2-0.8,4.1-1.2,6.1-1c0.2,0.1,0.3,0.2,0.5,0.5
		c0.1,0.2,0,0.5-0.1,0.8c-0.1,0.2-0.3,0.4-0.6,0.6C315.1,78.1,314.8,78.2,314.6,78.1z"/>
	<path class="st1" d="M342.6,76.5c-0.9-0.6-1.7-0.8-2.4-0.8c-0.6,0-1.2,0.2-1.8,0.5c-0.6,0.3-1.3,0.7-1.9,1.3
		c-0.6,0.5-1.2,1.1-1.8,2c-0.7,0.8-1.3,1.7-1.8,2.7s-1,1.9-1.3,2.8c-0.3,0.9-0.4,1.8-0.2,2.5c0.1,0.4,0.3,0.7,0.6,0.7
		c0.3,0,0.7,0,1.1-0.1H333c2.6-0.9,5-2.3,7.2-4.2c2.2-1.9,4.3-4,6.3-6.4c1.9-2.4,3.7-4.9,5.4-7.5c1.7-2.6,3.2-5.1,4.6-7.4l2-3.3
		c0.7-2.1,1.5-4.4,2.4-6.8c0.9-2.4,1.7-4.7,2.7-7c0.9-2.3,1.9-4.6,2.8-6.7c1-2.2,1.9-4.1,2.8-5.8c0.9-1.7,1.8-3.1,2.7-4.2
		c0.9-1.1,1.7-1.8,2.4-2.1c0.8-0.3,1.3-0.2,1.6,0.1c0.2,0.4,0.3,0.9,0.2,1.5c-0.1,0.6-0.3,1.3-0.5,2c-0.3,0.7-0.5,1.3-0.6,1.7
		l-0.1,0.2c0,0-0.1,0.1-0.1,0.1h0.1c-0.7,1.8-1.6,3.7-2.6,5.9c-1,2.2-2.2,4.5-3.4,6.9c-1.2,2.4-2.6,4.9-4,7.4
		c-1.4,2.5-2.9,5-4.4,7.5c-1.1,3.3-2.2,6.6-3.2,9.8c-1,3.3-2,6.3-2.9,9l-2.2,6.7c0.8-0.9,1.6-1.8,2.5-2.8c0.9-0.9,1.7-1.8,2.6-2.6
		c0.8-0.8,1.6-1.6,2.4-2.2c0.7-0.7,1.4-1.2,1.9-1.7c0.2-0.2,0.5-0.4,0.9-0.6c0.4-0.2,0.8-0.5,1.2-0.7c0.4-0.2,0.9-0.4,1.3-0.5
		c0.4-0.2,0.9-0.2,1.3-0.2c0.8,0,1.5,0.4,1.9,1.1c0.3,0.6,0.4,1.4,0.1,2.5c-0.2,1.1-0.5,2.1-0.8,3.2c-0.2,0.8-0.4,1.6-0.6,2.4
		c-0.2,0.8-0.2,1.4-0.1,2c0.1,0.4,0.3,0.8,0.5,1c0.3,0.2,0.8,0.3,1.4,0.1c0.6-0.1,1.2-0.3,1.9-0.6c0.7-0.3,1.4-0.7,2.2-1.1
		c0.7-0.4,1.5-0.9,2.2-1.4c0.8-0.5,1.5-1,2.1-1.4c0.4-0.2,0.7-0.5,1-0.7c0.3-0.2,0.6-0.5,0.8-0.7v0.1c0.2-0.2,0.4-0.3,0.7-0.3
		c0.3,0,0.5,0.1,0.7,0.3c0.2,0.2,0.2,0.4,0.2,0.7c0,0.3-0.2,0.5-0.4,0.7c-1,0.8-2.1,1.7-3.5,2.6c-1.4,0.9-2.7,1.7-3.8,2.3
		c-0.8,0.4-1.6,0.8-2.6,1.1c-0.9,0.3-1.7,0.4-2.4,0.4c-0.8,0-1.5-0.2-2-0.6c-0.5-0.4-0.8-1.1-1-1.9c-0.1-0.3-0.1-0.7-0.1-1.2
		c0-0.5,0.1-0.9,0.2-1.4c0,0,0,0,0.1-0.1c0-0.1,0.1-0.3,0.2-0.6s0.1-0.5,0.1-0.8c0-0.3,0.1-0.5,0.2-0.8c0.1-0.5,0.2-1,0.4-1.5
		c0.1-0.5,0.2-1,0.3-1.5c0.1-0.5,0.1-0.9,0.2-1.3c0.1-0.4,0.1-0.6,0-0.8h-0.1c-0.6,0-1.3,0.2-2.2,0.7c-0.8,0.5-1.7,1.2-2.7,2
		s-2,1.8-3,2.8c-1,1-2,2.1-3,3.2c-1,1.1-1.9,2.1-2.7,3.1c-0.8,1-1.5,1.8-2,2.5l-0.3,0.4v-0.1c0,0,0,0.1-0.1,0.1c0,0-0.1,0-0.1,0.1
		l-0.1,0.2c-0.1,0.2-0.3,0.4-0.5,0.5c-0.3,0.1-0.5,0.1-0.8,0h0.1c-0.3-0.1-0.5-0.2-0.6-0.5c-0.2-0.3-0.2-0.6-0.1-0.8
		c0,0,0-0.1,0.1-0.1c0,0,0.1-0.1,0.1-0.1c0.1-0.2,0.1-0.3,0.2-0.4c0-0.1,0.1-0.3,0.1-0.4c0.7-2,1.3-3.9,1.9-5.8
		c0.6-1.9,1.2-3.9,1.9-5.9c0.3-1.1,0.7-2.2,1.1-3.5c0.4-1.3,0.8-2.4,1.1-3.5c0.2-0.7,0.4-1.4,0.6-2c0.2-0.6,0.5-1.2,0.7-2l-1.7,2.5
		c-2.1,3.2-4.3,6.4-6.6,9.5c-2.3,3.1-4.9,5.8-8,8.1c-0.4,0.2-0.8,0.6-1.4,1c-0.6,0.4-1.2,0.8-2,1.2c-0.7,0.4-1.5,0.7-2.2,1
		c-0.8,0.3-1.5,0.4-2.1,0.4c-0.7,0-1.3-0.2-1.8-0.6c-0.5-0.4-0.9-1-1-1.9c-0.2-1-0.1-2.1,0.3-3.4c0.4-1.3,1-2.5,1.7-3.8
		c0.7-1.2,1.6-2.4,2.5-3.4c1-1,1.9-1.8,2.8-2.3c1.2-0.7,2.3-1,3.4-1c1.2,0,2.4,0.4,3.6,1.1c0.2,0.2,0.3,0.4,0.3,0.7
		c0,0.3,0,0.5-0.2,0.7l-0.4,0.3C343.2,76.8,342.8,76.7,342.6,76.5L342.6,76.5z M363.3,51l0.8-1.4l-0.5,1.6L363.3,51z M373.7,29.4
		c-0.7,0.6-1.4,1.6-2.1,2.8c-0.7,1.3-1.5,2.8-2.3,4.5c-0.8,1.8-1.7,3.7-2.5,5.9c-0.9,2.2-1.8,4.5-2.6,6.9c0.5-0.9,1-1.8,1.4-2.6
		c0.4-0.8,0.9-1.6,1.3-2.4l0.5-0.9c0.3-0.6,0.8-1.5,1.4-2.7c0.6-1.2,1.2-2.5,1.9-3.8c0.6-1.4,1.3-2.8,1.9-4.1
		C372.9,31.5,373.4,30.3,373.7,29.4z"/>
	<path class="st1" d="M389.2,78.1c-1.8-0.2-3.6,0.1-5.4,1c-1.7,0.9-3.3,2.3-4.5,4.2c-0.4,0.6-0.7,1.2-1,1.8
		c-0.3,0.6-0.4,1.2-0.4,1.7c0,0.4,0.2,0.8,0.5,1c0.3,0.2,0.8,0.3,1.5,0.3c0.9-0.2,1.9-0.6,2.9-1.4c1-0.8,2-1.7,3.1-2.8
		c1-1.1,2-2.2,2.9-3.3c0.9-1.2,1.7-2.2,2.4-3.1l0.7-0.8l0.4-0.5c0.6-0.7,1.1-1,1.6-0.8c0.5,0.1,0.6,0.5,0.5,1.2
		c-0.1,0.2-0.1,0.4-0.2,0.7c0,0.3-0.1,0.6-0.1,1c-0.1,0.4-0.1,0.9-0.2,1.4c0,0.5-0.1,1-0.1,1.5c0,0.7,0,1.3,0.2,2
		c0.1,0.6,0.3,1.2,0.5,1.7c0.2,0.5,0.5,0.9,0.9,1.2c0.4,0.3,0.8,0.4,1.4,0.4c0.6,0,1.3-0.2,2.2-0.5c1.2-0.5,2.3-1.2,3.4-2.1
		c1.1-0.9,2.2-1.8,3.2-2.7v0.1l0.3-0.3c0.2-0.2,0.5-0.3,0.7-0.4c0.2-0.1,0.5,0,0.7,0.2v-0.1c0.2,0.1,0.3,0.3,0.2,0.6
		c-0.1,0.3-0.2,0.5-0.5,0.8c-0.8,0.8-1.6,1.4-2.2,2c-0.7,0.6-1.4,1.1-2,1.6c-1.4,1-2.7,1.8-3.8,2.2c-1.1,0.4-2.1,0.6-2.9,0.6
		c-0.8,0-1.5-0.2-2-0.5c-0.6-0.4-1-0.8-1.4-1.5c-0.4-0.6-0.6-1.4-0.8-2.2c-0.2-0.8-0.2-1.7-0.2-2.6c0-0.3,0-0.6,0-0.9s0-0.6,0.1-0.9
		c-0.8,1-1.7,2.1-2.6,3.3c-0.9,1.1-1.9,2.2-3,3.2c-1.1,1-2.1,1.8-3.2,2.5c-1.1,0.7-2.2,1.1-3.3,1.2c-1.3,0.2-2.2,0-2.8-0.5
		c-0.6-0.5-0.8-1.2-0.8-2c0-0.9,0.2-1.9,0.7-2.9s1.1-2,1.9-3c1.7-2.1,3.6-3.6,5.6-4.4c2-0.8,4.1-1.2,6.1-1c0.2,0.1,0.3,0.2,0.5,0.5
		c0.1,0.2,0,0.5-0.1,0.8c-0.1,0.2-0.3,0.4-0.6,0.6C389.7,78.1,389.4,78.2,389.2,78.1z"/>
	<path class="st1" d="M492.2,78.3c-5.2,5.8-11,10.8-17.3,15.2c-6.3,4.4-12.8,8.1-19.3,11.2c-0.4,1.2-0.8,2.4-1.2,3.6
		c-0.4,1.2-0.8,2.4-1.2,3.7l-0.5,1.7c0,0.2-0.1,0.4-0.2,0.6s-0.1,0.4-0.2,0.6c-0.2,0.5-0.6,0.8-1.3,0.9c-0.6,0-0.9-0.4-0.7-1.1
		l0.3-0.9c0.4-1.4,0.9-2.7,1.3-4s0.8-2.6,1.3-4l-0.5,0.2v0.1c0.1,0.2,0.1,0.4-0.1,0.7c-0.1,0.3-0.3,0.5-0.6,0.7
		c-0.3,0.2-0.6,0.3-0.8,0.2c-0.3-0.1-0.4-0.2-0.5-0.5l-0.1-0.3v-0.1c-0.2,0.1-0.4,0.2-0.5,0.2c-0.2,0.1-0.3,0.1-0.5,0.2l-0.4,0.1
		h0.1c-5.6,2.3-11.3,4.2-16.9,5.7c-5.6,1.5-11.2,2.8-16.7,3.8c-0.7,0.1-1-0.2-0.9-0.8c0.1-0.6,0.5-1,1.2-1.1
		c5.5-1,11.1-2.2,16.8-3.8c5.7-1.6,11.5-3.6,17.2-5.9c-0.7-2.2-1.2-4.5-1.6-6.9c-0.3-2.3-0.5-4.8-0.5-7.2c0-6.3,1.1-12.8,3.2-19.5
		c2.1-6.7,5.3-13.4,9.5-20.1c1.6-2.5,3.5-5.2,5.7-8.1c2.3-2.9,4.7-5.6,7.4-8.2c2.7-2.6,5.5-5,8.5-7c3-2,6-3.5,9-4.3
		c1.4-0.4,2.8-0.5,4-0.5c1.7,0,3.2,0.3,4.7,0.8s2.7,1.3,3.8,2.2c1.1,0.9,2.1,2,2.9,3.2c0.8,1.2,1.5,2.5,1.9,3.8
		c0.4,1.2,0.7,2.4,0.9,3.7c0.2,1.3,0.3,2.6,0.3,4c0,2.9-0.5,5.9-1.4,9.2s-2.2,6.5-3.8,9.7c-1.6,3.3-3.4,6.5-5.6,9.6
		C496.9,72.6,494.6,75.6,492.2,78.3z M477.3,40c-1.4,3.9-2.8,7.9-4.1,11.8c-1.4,3.9-2.7,7.9-4,11.8l-1.9,5.8l-2,6
		c-1.5,4.6-3,9-4.5,13.4c-1.5,4.4-3,8.9-4.4,13.5c6.7-3.2,13.2-7,19.4-11.4c6.2-4.4,11.8-9.6,16.8-15.5c2.2-2.6,4.2-5.3,6-8.1
		c1.9-2.8,3.5-5.7,4.8-8.7c1.3-2.9,2.4-5.9,3.2-8.8c0.8-2.9,1.1-5.7,1.1-8.4c0-2.8-0.4-5.3-1.3-7.7c-0.4-1.1-1-2.2-1.7-3.2
		c-0.7-1-1.6-2-2.6-2.7c-1-0.8-2.1-1.4-3.4-1.9s-2.6-0.7-4.1-0.7c-1,0-2.2,0.2-3.6,0.5c-1.8,0.5-3.6,1.3-5.4,2.3
		c-1.8,1-3.6,2.2-5.4,3.6c-1.8,1.4-3.5,2.9-5.1,4.5c-1.6,1.6-3.2,3.3-4.7,5s-2.9,3.4-4.1,5.2s-2.4,3.3-3.3,4.9
		c-4.2,6.6-7.4,13.2-9.6,19.9c-2.2,6.7-3.2,13.1-3.2,19.3c0,2.4,0.2,4.7,0.5,7c0.3,2.3,0.8,4.5,1.6,6.8l1.9-0.8
		c1.8-5.6,3.7-11.2,5.7-17c1.9-5.8,3.8-11.5,5.7-17l1.6-4.9c1.3-4.1,2.7-8.2,4.1-12.4c1.4-4.2,2.8-8.3,4.3-12.3
		c0.1-0.3,0.2-0.5,0.5-0.7c0.3-0.2,0.5-0.2,0.8-0.2C477.2,39,477.5,39.4,477.3,40z"/>
	<path class="st1" d="M507.6,77.4L507.6,77.4c-0.4,0.6-0.9,1.4-1.5,2.4c-0.5,1-1,2.1-1.4,3.1c-0.4,1.1-0.6,2.1-0.7,3
		c-0.1,0.9,0,1.6,0.5,2c0.4,0.4,0.9,0.4,1.6,0c0.7-0.4,1.5-0.9,2.4-1.6c0.8-0.7,1.7-1.4,2.5-2.2c0.8-0.8,1.5-1.5,2-2l1-1
		c0.3-0.2,0.6-0.5,1-0.9c0.4-0.4,0.8-0.7,1.2-1c0.8-0.6,1.6-1.1,2.3-1.4s1.3-0.2,1.6,0.3c0.1,0.2,0.1,0.4,0.1,0.8s0,0.7-0.1,1.2
		c0,0,0,0.1,0,0.1c0,0,0,0.1,0,0.1c-0.1,0.6-0.2,1.1-0.3,1.6s-0.2,1-0.3,1.6c-0.1,0.6-0.2,1.1-0.3,1.6c-0.1,0.5-0.1,0.9-0.1,1.3
		c0,0.8,0.3,1.3,1,1.3c0.7,0,1.8-0.5,3.5-1.4c1.7-1,4.1-2.6,7.3-4.8l0.4-0.3l0.5-0.4c0.3-0.2,0.5-0.2,0.8-0.2s0.5,0.1,0.6,0.3
		c0.2,0.2,0.2,0.4,0.1,0.7c-0.1,0.3-0.3,0.5-0.6,0.7l-2,1.4c-1,0.7-2,1.4-3,2.1c-1,0.7-2,1.4-3,2c-1,0.6-1.9,1.1-2.8,1.4
		c-0.9,0.4-1.7,0.6-2.3,0.6c-0.8,0-1.4-0.4-1.9-1.1c-0.5-0.7-0.6-1.9-0.5-3.5c0-0.4,0.1-0.8,0.2-1.3s0.2-1,0.3-1.5
		c0.1-0.4,0.2-0.8,0.2-1.2c0.1-0.4,0.1-0.7,0.2-1l-0.1,0.1c-0.5,0.3-1.1,0.8-1.8,1.4c-0.7,0.6-1.4,1.3-2.2,2.1
		c-0.9,0.9-1.9,1.8-2.9,2.8c-1,0.9-2,1.7-3,2.4s-1.9,1.1-2.7,1.4s-1.6,0.2-2.2-0.2c-0.8-0.6-1.1-1.5-1.1-2.7c0-0.8,0.1-1.7,0.4-2.6
		c0.3-1,0.6-1.9,1-2.9s0.9-1.9,1.4-2.7c0.5-0.9,1-1.6,1.4-2.2c0.2-0.2,0.5-0.4,0.8-0.5s0.5-0.1,0.8-0.1c0.4,0.2,0.4,0.6,0.2,1.1
		L507.6,77.4z"/>
	<path class="st1" d="M531.8,80.7c1-0.7,2.3-1.7,3.9-3.2c1.6-1.5,3.2-3.1,4.9-5l-0.1,0.1c0.5-2.2,1-4.1,1.6-5.9s1-3.2,1.3-4.1
		c0.4-1.2,1-2.8,1.8-4.8s1.7-4.2,2.8-6.5c1.1-2.3,2.2-4.7,3.5-7s2.7-4.5,4.1-6.4c1.4-1.9,2.9-3.4,4.3-4.5c1.5-1.1,2.9-1.5,4.3-1.3
		c1,0.2,1.7,0.7,2.2,1.3c0.5,0.6,0.7,1.4,0.7,2.3c0,0.9-0.2,1.9-0.5,3c-0.3,1.1-0.8,2.2-1.3,3.4c-0.6,1.2-1.2,2.4-1.9,3.6
		c-0.7,1.2-1.4,2.3-2.1,3.4c-0.7,1.1-1.4,2.1-2,3c-0.6,0.9-1.2,1.7-1.6,2.3c-0.7,0.9-1.6,2.1-2.6,3.5c-1.1,1.4-2.3,2.9-3.7,4.6
		c-1.4,1.7-2.8,3.4-4.4,5.3c-1.6,1.8-3.1,3.6-4.7,5.3l0.1-0.1c-0.3,1.5-0.6,2.9-0.9,4.4c-0.3,1.4-0.4,2.8-0.5,4
		c-0.1,0.8-0.1,1.6-0.1,2.4c0,0.8,0.1,1.5,0.2,2.1c0.3,1.5,1,2.2,2,2.2c0.6,0,1.4-0.2,2.3-0.6c0.8-0.3,1.5-0.7,2.2-1.3
		c-0.5-0.3-1-0.8-1.3-1.3c-0.4-0.6-0.7-1.1-0.9-1.7c-0.2-0.6-0.4-1.3-0.4-2c0-1,0.4-2,1-3c0.6-0.9,1.7-1.6,3.1-2
		c1.4-0.4,2.6-0.2,3.6,0.4c1,0.6,1.4,1.5,1.4,2.6c0,0.6-0.1,1.2-0.4,1.9c0,0-0.1,0.1-0.1,0.2c-0.2,0.6-0.5,1.1-0.9,1.7
		c-0.3,0.6-0.7,1.1-1.1,1.6c1.8-0.4,3.6-1,5.5-1.7c1.9-0.8,3.6-1.6,5.1-2.5c0.2-0.1,0.5-0.2,0.8-0.1c0.3,0,0.5,0.1,0.6,0.3
		c0.1,0.2,0.1,0.4,0,0.7c-0.1,0.3-0.4,0.5-0.6,0.7c-0.9,0.6-1.9,1.1-3,1.7c-1.1,0.5-2.3,1-3.5,1.5c-1.2,0.5-2.4,0.8-3.6,1.1
		s-2.2,0.5-3.1,0.5c-1,0.9-2.2,1.7-3.4,2.2c-1.2,0.6-2.4,0.9-3.6,1c-1.4,0.1-2.3-0.4-3-1.6c-0.6-1.1-0.9-2.6-0.9-4.5
		c0-0.4,0-0.8,0-1.2c0-0.4,0-0.8,0.1-1.3c0.1-0.9,0.2-1.9,0.3-2.8c0.1-1,0.3-1.9,0.5-2.9c-1.2,1.3-2.4,2.4-3.5,3.5
		c-1.1,1-2.1,1.9-2.9,2.5l-1.1,0.8c-0.3,0.2-0.6,0.2-0.8,0.1c-0.2-0.1-0.4-0.2-0.5-0.4c0-0.3,0-0.6,0.2-0.8
		C531.2,81,531.5,80.8,531.8,80.7z M543,69.8l0.2-0.3c0,0.1,0,0.2,0,0.2c0,0.1,0,0.1,0,0.2L543,69.8z M547.8,55.8
		c-0.7,1.8-1.5,3.9-2.3,6.3c-0.8,2.4-1.6,4.9-2.3,7.4c1.1-1.2,2.2-2.5,3.2-3.8c1-1.3,2-2.5,2.9-3.6c0.9-1.1,1.8-2.1,2.5-3.1
		c0.7-0.9,1.3-1.7,1.8-2.3c0.4-0.5,0.9-1.3,1.7-2.2c0.7-1,1.5-2.1,2.3-3.3c0.8-1.2,1.7-2.5,2.6-3.9c0.9-1.4,1.7-2.8,2.4-4.1
		c0.7-1.4,1.3-2.6,1.7-3.9c0.5-1.2,0.7-2.3,0.7-3.1c0-1.3-0.6-2.1-1.7-2.4c-1-0.1-2,0.2-3,1.1s-2.1,2-3.1,3.4s-2.1,3-3.1,4.7
		c-1,1.7-1.9,3.4-2.8,5.1c-0.8,1.7-1.6,3.2-2.2,4.6C548.5,54,548.1,55.1,547.8,55.8z M549.5,84.7c0.5-0.5,0.9-1.1,1.4-1.8
		c0.4-0.7,0.8-1.3,1-1.9c0.1-0.2,0.1-0.5,0.2-0.8c0-0.3,0.1-0.5,0.1-0.6c0-0.6-0.3-1-0.7-1.3c-0.4-0.3-0.9-0.4-1.4-0.4
		c-0.8,0-1.5,0.3-2.1,0.8c-0.7,0.6-0.9,1.4-0.8,2.4c0.1,0.8,0.7,1.9,1.6,3.1h-0.1C548.8,84.5,549.1,84.6,549.5,84.7z"/>
	<path class="st1" d="M565.6,75c0.2,0.1,0.3,0.3,0.4,0.5c0,0.2,0,0.5-0.2,0.7c0.1-0.1,0.3-0.3,0.5-0.4c0.6-0.4,1.3-0.8,2.1-1.1
		c0.8-0.3,1.6-0.5,2.3-0.5c0.7,0,1.3,0.2,1.7,0.6v-0.1c0.5,0.4,0.7,1.1,0.7,2.1c0,0.7-0.1,1.5-0.4,2.4s-0.5,1.8-0.9,2.6
		c-0.4,0.9-0.8,1.7-1.3,2.5c-0.5,0.8-0.9,1.4-1.3,2c-1,1.2-2.1,2.1-3.2,2.8s-2.2,1-3.2,1c-0.8,0-1.5-0.2-2-0.7
		c-0.5-0.4-0.9-1.1-1.1-2c-0.2-0.8-0.2-1.8,0-2.8c0.2-1,0.5-2.1,0.9-3.1c0.4-1.1,0.9-2.1,1.5-3.1c0.6-1,1.2-2,1.9-2.8
		c0.2-0.2,0.5-0.4,0.8-0.5C565.2,74.9,565.4,74.9,565.6,75z M562,83.7c-0.1,0.3-0.1,0.6-0.2,0.9c0,0.3-0.1,0.6-0.1,0.9
		c0,0.6,0.1,1.1,0.3,1.6c0.3,0.7,0.8,1,1.5,1c0.5,0,1.1-0.2,1.7-0.5c0.6-0.3,1.2-0.7,1.7-1.3c0.6-0.6,1.1-1.3,1.7-2.1
		c0.6-0.9,1-1.8,1.4-2.7c0.4-0.9,0.7-1.8,0.8-2.7c0.2-0.9,0.2-1.6,0-2.2c-0.1-0.2-0.3-0.4-0.6-0.4c-0.3,0-0.6,0-1,0.1
		c-0.4,0.1-0.7,0.2-1.1,0.4c-0.4,0.2-0.7,0.4-0.9,0.6c-1,0.8-2,1.8-2.9,3C563.4,81.6,562.7,82.7,562,83.7L562,83.7z"/>
	<path class="st1" d="M581.8,74.9c-0.2,0.3-0.5,0.9-1,1.7c-0.4,0.8-0.8,1.7-1.2,2.6c-0.3,0.9-0.6,1.8-0.7,2.5
		c-0.1,0.8,0.1,1.3,0.5,1.6c0.4,0.3,1.1,0.3,2,0c0.9-0.3,1.8-0.7,2.9-1.2c1-0.5,2.1-1.2,3.1-1.9c1.1-0.7,2-1.3,2.8-1.9
		c-0.1-0.4-0.1-0.8,0-1.3c0.2-0.9,0.6-1.8,1.2-2.7s1.2-1.7,1.9-2.3c0.2-0.2,0.7-0.7,1.4-1.3s1.5-1.2,2.2-1.7
		c0.8-0.5,1.5-0.8,2.2-0.9s1.1,0.3,1.4,1.1v-0.1c0.1,0.5,0,1-0.3,1.7c-0.3,0.7-0.8,1.4-1.4,2.2c-0.6,0.8-1.4,1.6-2.3,2.5
		c-0.9,0.9-1.9,1.7-2.8,2.5c0,0-0.1,0.1-0.4,0.3c-0.3,0.2-0.6,0.4-0.7,0.6c0.2,0.2,0.4,0.3,0.6,0.4s0.5,0.3,0.8,0.5
		c0.4,0.2,0.8,0.5,1.3,0.8c0.4,0.3,0.8,0.7,1.1,1.1l1.6-0.2c0.6,0,1.2-0.1,1.9-0.2c0.7-0.1,1.4-0.2,2-0.3s1.3-0.2,1.8-0.3
		s1-0.2,1.2-0.4c0.2-0.1,0.5-0.1,0.8,0.1c0.3,0.1,0.4,0.3,0.5,0.7v-0.1c0.1,0.2,0.1,0.4-0.1,0.7c-0.1,0.3-0.3,0.4-0.5,0.5
		c-1.2,0.3-2.3,0.5-3.3,0.7c-0.9,0.1-1.8,0.3-2.6,0.3l-2.6,0.4c0,0.2,0.1,0.4,0.1,0.6c0,0.9-0.1,1.8-0.4,2.6s-0.7,1.6-1.3,2.3
		c-0.6,0.7-1.2,1.2-2,1.5c-0.8,0.4-1.6,0.4-2.5,0.2c-1-0.2-1.8-0.7-2.1-1.5c-0.4-0.8-0.4-1.6,0.1-2.5c0.6-1.3,1.4-2.3,2.3-3
		c0.9-0.7,1.8-1.3,2.8-1.6l-1-0.6c-0.2-0.2-0.5-0.3-0.8-0.5c-0.3-0.1-0.5-0.3-0.8-0.6v-0.1l-0.5-0.5c-1.1,0.8-2.2,1.5-3.3,2.2
		c-1.1,0.7-2.2,1.3-3.3,1.8c-1.1,0.5-2,0.9-2.9,1.1s-1.6,0.3-2.2,0.2c-0.8-0.2-1.4-0.6-1.7-1.1c-0.4-0.6-0.5-1.2-0.5-2
		c0-0.7,0.1-1.5,0.3-2.3c0.2-0.8,0.5-1.6,0.8-2.4c0.3-0.8,0.6-1.5,1-2.2c0.3-0.7,0.6-1.2,0.9-1.5c0.4-0.6,0.9-0.7,1.4-0.3
		c0.4,0.2,0.5,0.6,0.4,1.2L581.8,74.9z M583.4,72.1c-0.2,0.2-0.4,0.3-0.7,0.4c-0.3,0.1-0.5,0-0.7-0.2c-0.2-0.2-0.3-0.4-0.4-0.7
		c0-0.3,0-0.5,0.2-0.7l0.4-0.5l1.1-1.3c0.2-0.2,0.4-0.3,0.7-0.4c0.3,0,0.5,0,0.7,0.2c0.2,0.2,0.3,0.4,0.3,0.7c0,0.3,0,0.5-0.1,0.7
		L583.4,72.1z M595,86.4c0.3-1,0.4-1.8,0.3-2.3c-0.7,0.2-1.4,0.5-2,0.9c-0.1,0.1-0.4,0.3-0.8,0.6c-0.4,0.3-0.8,0.7-1.1,1.1
		s-0.6,0.8-0.7,1.2c-0.2,0.4-0.1,0.7,0.3,0.9c0.4,0.2,0.8,0.3,1.2,0.2s0.8-0.3,1.2-0.5c0.4-0.3,0.7-0.6,1-1
		C594.7,87.2,594.9,86.8,595,86.4z M592.2,76.8c0.2-0.1,0.3-0.2,0.4-0.2l-0.2,0.4L592.2,76.8z M595.5,84C595.5,84,595.4,84,595.5,84
		c-0.1,0.1-0.1,0.1-0.2,0.1v-0.2L595.5,84z"/>
</g>
</svg>
