<?xml version="1.0" encoding="utf-8"?>
<!-- Generator: Adobe Illustrator 24.1.3, SVG Export Plug-In . SVG Version: 6.00 Build 0)  -->
<svg version="1.1" id="Layer_1" xmlns="http://www.w3.org/2000/svg" xmlns:xlink="http://www.w3.org/1999/xlink" x="0px" y="0px"
	 viewBox="0 0 1920 800" style="enable-background:new 0 0 1920 800;" xml:space="preserve">
<style type="text/css">
	.st0{fill:#B9D4D0;}
	.st1{fill:#677774;}
</style>
<path class="st0" d="M-17.7-26.2H1940v859.3H-17.7L-17.7-26.2z"/>
<g>
	<path class="st1" d="M401.6,392.4c0,0.3-0.1,0.8-0.1,1.1c-6.6,27.9-12,55.6-15.3,75.5c-0.5,2.9-0.8,5.2-1.2,7.8
		c11.8-20.6,14.5-22.1,33.5-53.8c5.3-8.9,10.3-16.3,14.8-21.6c2.3-2.7,4.4-4.8,6.6-6.5s4.6-2.9,7.6-2.8c3,0.1,5.8,2.1,7.2,4.6
		c1.4,2.4,2.1,5.3,2.6,8.8c0.3,2.4,0.4,5.2,0.4,8.4c0,6.1-0.5,13.6-1.7,22.8c-1,8.8-1.5,15.9-1.5,21.4c0,5.7,0.5,9.7,1.2,12.1
		c0.7,2.4,1.4,2.7,1.4,2.7c0,0,0.5,0.2,2.1-0.6c3.2-1.7,8.9-7.1,14.8-14.4c5.9-7.3,12.3-16.3,18.4-25.4c0.8-1.1,2.5-2,3.8-2
		c2.5,0,4.6,2.1,4.6,4.6c0,0.8-0.4,1.9-0.8,2.6c-6.2,9.2-12.7,18.4-18.9,26s-11.8,13.7-17.7,16.7c-1.9,1-4,1.7-6.2,1.7
		c-1.2,0-2.5-0.2-3.7-0.8c-3.4-1.5-5.4-4.7-6.5-8.5c-1.1-3.8-1.7-8.5-1.7-14.5c0-6.1,0.6-13.5,1.7-22.7c1.1-9.1,1.6-16.4,1.6-22
		c0-2.8-0.1-5.1-0.4-7c-0.3-2.8-0.9-4.5-1.3-5.2c-0.3,0.1-0.9,0.4-1.5,0.9c-1.3,1-3.1,2.7-5.1,5c-4,4.6-8.7,11.7-14,20.4
		c-23.7,39.6-21.8,31.6-43.5,71.8c-0.2,0.4-0.4,0.9-1.2,1.6c-0.4,0.4-0.9,0.8-2,1.1s-2.7,0.1-3.7-0.5c-2.1-1.2-2.1-2.4-2.2-3
		c-0.2-0.6-0.2-1-0.2-1.5c-0.1-1.7,0-3.5,0.3-6.2c0.5-5.4,1.7-13.4,3.3-23.5c3.3-20.1,8.7-47.9,15.4-76.1c0.4-2,2.4-3.6,4.5-3.6
		c0,0,0.1,0,0.1,0C399.6,387.9,401.6,390,401.6,392.4z M374.8,495.2c0,0,0-0.1,0.1-0.2C374.9,495,374.9,495.1,374.8,495.2z"/>
	<path class="st1" d="M551.7,386.7c0,0.1,0,0.2,0,0.3c0,0-1.4,30.8-2.1,60.5c0,0.7,0,1.3,0,2c0,10.7,2.1,15.9,3,16.9
		c0.5,0.5,0.5,0.5,1.5,0.4c1-0.2,2.8-0.9,4.8-2.3c8.4-5.8,20.6-21.5,29.2-32.9c0.8-1.1,2.4-1.9,3.7-1.9c2.5,0,4.6,2.1,4.6,4.6
		c0,0.9-0.4,2.1-1,2.8c-8.6,11.5-20.3,27.3-31.3,34.9c-2.8,1.9-5.5,3.4-8.6,3.8c-0.5,0.1-1.1,0.1-1.6,0.1c-2.7,0-5.6-1-7.6-3
		c-4.5-4.3-5.8-11.2-5.8-22.1c0-1.2,0-2.4,0-3.6c0.2-9.7,0.5-19.4,0.8-28.2c-6.3,10.6-13.1,20.8-20.4,31.8
		c-4.2,6.3-9,12.5-13.7,17.6s-8.8,9-13.4,10.9c-2.3,0.9-5.6,1.4-8.2-0.5c-2.9-2.1-3.5-5.3-3.5-8.8c0-5.8,2-13.8,6.3-25.9
		c5-14.2,12.8-28,22.8-37.6c7.5-7.2,16.8-12.1,26.6-12.1c1.5,0,2.9,0.1,4.4,0.3c0.2-5,0.3-8.3,0.3-8.3c0.1-2.5,2.1-4.4,4.6-4.4
		c0,0,0.1,0,0.1,0C549.7,382.1,551.7,384.2,551.7,386.7z M517.5,413.2c-8.5,8.2-15.9,20.9-20.5,34c-4.3,12.1-5.8,19.8-5.8,23.1
		c2-1.2,5.5-4.1,9.2-8.1c4.2-4.6,8.8-10.5,12.8-16.5c9.9-14.8,18.5-27.7,26.3-42.2c-0.7-0.1-1.3-0.1-2-0.1
		C530.5,403.6,523.9,407.1,517.5,413.2z"/>
	<path class="st1" d="M741.2,317.3c2.5,0,4.6,2.1,4.6,4.6c0,2.2-1.8,4.2-3.9,4.5l-115.4,20.4c-6.8,29.5-16.5,61.2-28.9,86.5
		c-0.7,9.4-1.2,18-1.2,26.2c0,12.6,1,23.1,3.1,29.8c1,3.5,2.4,5.9,3.5,7.1c1.1,1.2,1.8,1.5,3.2,1.4c2.7-0.2,9.4-4,18-14.5
		c8.6-10.5,19.4-27.1,32.5-50.8c0.7-1.4,2.5-2.5,4.1-2.5c2.5,0,4.6,2.1,4.6,4.6c0,0.7-0.3,1.7-0.6,2.3c-13.2,24-24.2,41-33.4,52.2
		c-9.2,11.2-16.6,17.4-24.5,17.9c-0.3,0-0.5,0-0.8,0c-3.7,0-7.2-1.7-9.7-4.3c-2.6-2.8-4.3-6.4-5.6-10.7c-2.5-8.3-3.5-19.3-3.5-32.3
		c0-30.2,5.1-70.4,12.2-108.1L529.9,364c-0.3,0.1-0.7,0.1-0.9,0.1c-2.5,0-4.6-2.1-4.6-4.6c0-2.2,1.8-4.2,3.9-4.5l73-12.9
		c5.4-27.5,11.8-53.1,17.8-71.7c0,0,0-0.1,0-0.1c2.8-8.2,4.7-13,7.3-16.2c0.7-0.8,1.4-1.6,2.7-2.2c0.6-0.3,1.5-0.5,2.4-0.5
		c0.9,0,1.9,0.2,2.6,0.6c3.1,1.7,3.2,3.9,3.6,5.8c0.5,2.3,0.7,5,0.7,8.2c0,2.3-0.1,4.9-0.3,7.8c-0.4,6.9-1.3,15.5-2.7,25.1
		c-1.6,11.5-3.9,24.6-6.9,38.3l111.6-19.8c0.2,0,0.6-0.1,0.8-0.1C741,317.3,741.1,317.3,741.2,317.3z M609.2,349.9
		c-3.3,17.1-6.1,34.8-8.4,51.8c6.2-17,11.5-35.4,15.7-53.1L609.2,349.9z M627.8,273.2c-5.5,17.2-11.4,41.1-16.6,67.1l7.7-1.4
		c3.3-14.9,5.9-29.1,7.6-41.4c1.3-9.4,2.2-17.8,2.6-24.3c0.1-1.4,0.1-2.7,0.2-3.9C628.7,270.5,628.3,271.8,627.8,273.2z"/>
	<path class="st1" d="M714.9,386.7c0,0.1,0,0.2,0,0.3c0,0-1.4,30.8-2.1,60.5c0,0.7,0,1.3,0,2c0,10.7,2.1,15.9,3,16.9
		c0.5,0.5,0.5,0.5,1.5,0.4c1-0.2,2.8-0.9,4.8-2.3c8.4-5.8,20.6-21.5,29.2-32.9c0.8-1.1,2.4-1.9,3.7-1.9c2.5,0,4.6,2.1,4.6,4.6
		c0,0.9-0.4,2.1-1,2.8c-8.6,11.5-20.3,27.3-31.3,34.9c-2.8,1.9-5.5,3.4-8.6,3.8c-0.5,0.1-1.1,0.1-1.6,0.1c-2.7,0-5.6-1-7.6-3
		c-4.5-4.3-5.8-11.2-5.8-22.1c0-1.2,0-2.4,0-3.6c0.2-9.7,0.5-19.4,0.8-28.2c-6.3,10.6-13.1,20.8-20.4,31.8
		c-4.2,6.3-9,12.5-13.7,17.6s-8.8,9-13.4,10.9c-2.3,0.9-5.6,1.4-8.2-0.5c-2.9-2.1-3.5-5.3-3.5-8.8c0-5.8,2-13.8,6.3-25.9
		c5-14.2,12.8-28,22.8-37.6c7.5-7.2,16.8-12.1,26.6-12.1c1.5,0,2.9,0.1,4.4,0.3c0.2-5,0.3-8.3,0.3-8.3c0.1-2.5,2.1-4.4,4.6-4.4
		c0,0,0.1,0,0.1,0C712.9,382.1,714.9,384.2,714.9,386.7z M680.7,413.2c-8.5,8.2-15.9,20.9-20.5,34c-4.3,12.1-5.8,19.8-5.8,23.1
		c2-1.2,5.5-4.1,9.2-8.1c4.2-4.6,8.8-10.5,12.8-16.5c9.9-14.8,18.5-27.7,26.3-42.2c-0.7-0.1-1.3-0.1-2-0.1
		C693.7,403.6,687.1,407.1,680.7,413.2z"/>
	<path class="st1" d="M796.8,381.9c3.2,0.4,6.3,2.7,7.7,5.8c1,2.2,1.5,4.7,1.5,7.5c0,5-1.5,11.1-4.2,19.1c-0.6,1.7-2.5,3.2-4.4,3.2
		c-2.5,0-4.6-2.1-4.6-4.6c0-0.4,0.1-1.1,0.3-1.5c2.7-7.9,3.4-13.6,3.4-16.8c0-1.5-0.2-2.6-0.4-3c-0.3-0.7,0-0.4-0.5-0.5
		c-0.5-0.1-2,0.1-3.9,1.1c-7.9,3.8-21.8,18.6-28.7,35.1c-5,12-8,25.1-8.3,36.1c0,0.7,0,1.3,0,2c0,10,2.5,17.5,6.1,20.5
		c1.9,1.6,4.1,2.4,7.8,2c3.6-0.4,8.6-2.1,14.7-6c12.3-7.7,29.1-23.6,50.6-50.6c0.8-1,2.4-1.9,3.7-1.9c2.5,0,4.6,2.1,4.6,4.6
		c0,0.9-0.5,2.3-1.1,3c-21.8,27.5-39,44-52.9,52.7c-6.9,4.3-13,6.8-18.6,7.3c-0.8,0.1-1.6,0.1-2.3,0.1c-4.7,0-9-1.5-12.3-4.2
		c-7-5.9-9.4-15.9-9.4-27.1c0-0.9,0-1.8,0-2.7c0.4-12.4,3.6-26.4,9-39.3c7.8-18.5,21.4-34.1,33.2-39.8c2.2-1.1,4.4-1.8,6.7-2
		C795.2,381.7,796,381.8,796.8,381.9z"/>
	<path class="st1" d="M877.5,244.8c1.9,0.4,3,1.7,3.6,2.7c1.1,1.9,1.2,3.4,1.4,5.3c0.3,3.8,0.1,9.1-0.7,16.3
		c-3,28.5-14.4,85.3-38.7,162.5c-1.4,13.6-2.7,27.4-3.6,41.4c0.7-1.5,1.3-2.7,2-4.4c7.5-16.7,18.6-42,32.8-67.3
		c5.8-10.4,9.9-17,13.2-21.1c1.7-2,2.9-3.6,5.7-4.4c1.4-0.4,3.4-0.3,4.8,0.6s2.2,2.1,2.7,3.1c1.9,4.1,1.6,8.4,1.6,14.9
		s-0.3,14.6-0.4,23.9c-0.1,13.4,1.1,23.7,3.3,30.6s5,9.9,7.2,10.6s5.6,0.1,10.6-4.1c5-4.2,11-11.8,17.4-22.6c0.7-1.3,2.5-2.4,4-2.4
		c2.5,0,4.6,2.1,4.6,4.6c0,0.7-0.3,1.8-0.7,2.4c-6.7,11.4-13.1,19.6-19.4,24.9c-6.3,5.3-13.1,7.9-19.5,5.8
		c-6.3-2.2-10.4-8.3-13-16.6c-2.6-8.3-3.8-19.4-3.7-33.4c0.1-9.4,0.4-17.7,0.4-23.9c0-2.3-0.1-4.3-0.2-6c-2.5,3.5-6,9.2-10.6,17.5
		c-13.9,24.8-24.8,49.8-32.4,66.6c-3.8,8.4-6.6,14.5-9,18.2c-0.6,0.9-1.1,1.7-2,2.5c-0.4,0.4-1,0.9-1.9,1.3s-2.5,0.5-3.9,0
		c-2.7-1.1-3-3.1-3.3-4.3c-0.2-1.2-0.3-2.2-0.3-3.5c0-0.1,0-0.2,0-0.3c1-18.5,2.5-36.9,4.3-54.8c0-0.1,0-0.3,0-0.4
		c0-0.4,0.1-1,0.2-1.3c6.1-57.1,16.2-109.9,26.3-150.1c2.5-9.8,4.7-17.3,6.6-22.7c1-2.7,1.9-4.9,2.8-6.6c0.9-1.7,1.5-3.1,3.4-4.4
		c0.7-0.5,1.8-1.1,3.1-1.1C876.6,244.6,877,244.7,877.5,244.8z M869.2,281.7c-6.4,25.4-12.7,56-18.1,89.5
		c12.5-46.5,19.1-81.6,21.4-101.7C871.4,273.1,870.3,277.1,869.2,281.7z"/>
	<path class="st1" d="M999.3,386.7c0,0.1,0,0.2,0,0.3c0,0-1.4,30.8-2.1,60.5c0,0.7,0,1.3,0,2c0,10.7,2.1,15.9,3,16.9
		c0.5,0.5,0.5,0.5,1.5,0.4c1-0.2,2.8-0.9,4.8-2.3c8.4-5.8,20.6-21.5,29.2-32.9c0.8-1.1,2.4-1.9,3.7-1.9c2.5,0,4.6,2.1,4.6,4.6
		c0,0.9-0.4,2.1-1,2.8c-8.6,11.5-20.3,27.3-31.3,34.9c-2.8,1.9-5.5,3.4-8.6,3.8c-0.5,0.1-1.1,0.1-1.6,0.1c-2.7,0-5.6-1-7.6-3
		c-4.5-4.3-5.8-11.2-5.8-22.1c0-1.2,0-2.4,0-3.6c0.2-9.7,0.5-19.4,0.8-28.2c-6.3,10.6-13.1,20.8-20.4,31.8
		c-4.2,6.3-9,12.5-13.6,17.6c-4.6,5.1-8.8,9-13.4,10.9c-2.3,0.9-5.6,1.4-8.2-0.5c-2.9-2.1-3.5-5.3-3.5-8.8c0-5.8,2-13.8,6.3-25.9
		c5-14.2,12.8-28,22.8-37.6c7.5-7.2,16.8-12.1,26.6-12.1c1.5,0,2.9,0.1,4.4,0.3c0.2-5,0.3-8.3,0.3-8.3c0.1-2.5,2.1-4.4,4.6-4.4
		c0,0,0.1,0,0.1,0C997.3,382.1,999.3,384.2,999.3,386.7z M965.1,413.2c-8.5,8.2-15.9,20.9-20.5,34c-4.3,12.1-5.8,19.8-5.8,23.1
		c2-1.2,5.5-4.1,9.2-8.1c4.2-4.6,8.8-10.5,12.8-16.5c9.9-14.8,18.5-27.7,26.3-42.2c-0.7-0.1-1.3-0.1-2-0.1
		C978,403.6,971.5,407.1,965.1,413.2z"/>
	<path class="st1" d="M1205.5,230.3c3,2.9,3.5,6.4,3.5,10.9c0,0.6,0,1.1,0,1.7c-0.1,5.3-0.9,12-2.9,20.5
		c-3.9,16.9-11.8,40.2-25.2,69.6c-10.2,22.4-14.8,30.6-22.5,46.2c-9,47.9-16.8,97.8-17,138.9c0,0.5,0,1,0,1.6
		c0,4.4,0.1,8.6,0.3,12.8c0,0,0,0.1,0,0.1c0,2.5-2.1,4.6-4.6,4.6c-2.5,0-4.5-2-4.6-4.4c-0.2-4.2-0.3-8.6-0.3-13.1c0-0.6,0-1.1,0-1.7
		c0.2-31.6,4.3-68.8,10.2-105.8c-3.4,6.7-9.4,19.5-12.3,25.2c-7.2,14.1-14.2,25.3-20.5,33.4c-6.3,8.1-11.3,13.2-17.2,15
		c-0.8,0.3-1.8,0.4-2.7,0.4c-2.3,0-4.8-0.8-6.4-2.5c-2.3-2.4-3-5.5-3.2-9c0-0.5,0-1,0-1.5c0-6.8,2-16,6.2-28.5
		c4.2-12.6,11.9-28.1,22.3-41.1c10.4-13,23.4-23.6,38.7-24.6c0.2,0,0.4,0,0.6,0c0.2,0,0.4,0,0.6,0c0,0,0.1,0,0.1,0
		c0.3-0.6,0.5-1.4,0.9-2c4.5-24,9-49,13.9-69.3c6.9-28.5,14.2-48.9,20.8-61.7c3.3-6.4,6.2-10.9,9.3-13.9c1.6-1.5,3.3-2.7,5.4-3.3
		C1201,228.1,1203.8,228.7,1205.5,230.3z M1115.7,409.2c-9.5,11.9-17.1,26.8-20.9,38.2c-4,12.1-5.6,20.9-5.6,25.8
		c0,1.7,0.6,3.7,0.6,3.7c1.7-0.6,6.9-4.4,12.6-11.7c5.8-7.4,12.5-18.2,19.5-31.9c5.1-10,14.7-30.8,21.5-44.2
		C1133.7,391.4,1124,398.9,1115.7,409.2z M1192.2,250c-6,11.8-13.1,31.7-19.9,59.7c-2.4,10-4.5,23.1-6.9,34.2
		c2.9-6.3,3.9-7.5,7.2-14.6c13.2-29,20.8-51.9,24.5-67.9c1.8-8,2.7-14.3,2.7-18.6c0-2.7-0.2-2.9-0.4-3.7
		C1197.6,240.9,1195,244.4,1192.2,250z"/>
	<path class="st1" d="M1232.8,385.5c0,0.2,0,0.5,0,0.6c-1.2,8.4-1.1,10.1-2.4,38.2c-0.2,3.6-0.3,7-0.3,10.1c0,5.1,0.2,9.6,0.8,13.2
		c0.8,5.9,2.7,8.9,3.4,9.4c0.4,0.2,0.5,0.4,1.6,0.1s2.9-1.1,5.3-2.9c4.7-3.6,11.3-10.7,19.6-21.8c0.8-1,2.4-1.9,3.7-1.9
		c2.5,0,4.6,2.1,4.6,4.6c0,0.8-0.4,2.1-0.9,2.7c-8.5,11.5-15.4,19.1-21.4,23.6c-3,2.3-5.8,3.8-8.7,4.5s-6.2,0.3-8.7-1.3
		c-5-3.2-6.6-8.9-7.6-15.8c-0.6-4.2-0.9-9.1-0.9-14.4c0-3.4,0.1-6.9,0.3-10.7c0.3-6.9,0.4-8.9,0.6-13.1
		c-13.1,28.2-22.8,45.5-30.2,55.1c-4.6,6-8,9.7-13.4,10c-2.7,0.1-5.4-1.4-6.8-3.3c-1.4-1.9-2.1-4-2.6-6.3c-0.7-3.2-1-7-1-11.2
		c0-7.8,1-17,2.5-26.3c2.2-14.4,5.6-28.8,8.8-37.6c0.6-1.7,2.5-3.1,4.4-3.1c2.5,0,4.6,2.1,4.6,4.6c0,0.5-0.2,1.3-0.3,1.7
		c-2.8,7.7-6.2,21.9-8.4,35.8c-1.4,9.2-2.3,18.6-2.3,25.6c0,3.6,0.2,6.5,0.7,8.6c0.2,0.8,0.4,1.4,0.6,1.9c1-0.7,3.2-2.3,6-5.9
		c8.1-10.5,21-34.2,39.6-76.6c0.7-1.5,2.5-2.7,4.2-2.7c0,0,0,0,0,0C1230.8,380.9,1232.8,383,1232.8,385.5z"/>
	<path class="st1" d="M1309.1,242.4c1.9,1.9,2.2,3.6,2.5,5.6c0.4,2.2,0.6,4.9,0.6,8.2c0,2.5-0.1,5.4-0.3,8.6
		c-2,29.5-13.4,89.1-41.2,167.4c0,0.1-0.1,0.1-0.1,0.2c-0.7,4.9-1.3,9.8-2,14.8c4.9-12.3,10.1-21.9,15.3-29.1
		c7.7-10.7,15.5-16.7,23.5-17.2c0.5,0,1,0,1.5,0c3.5,0.2,6.8,1.6,9.3,4c2.9,2.7,4.7,6.5,5.8,10.9c0.7,3.1,1.1,6.5,1.1,10.2
		c0,4.9-0.7,10.4-2,16.5c1.7-0.7,3.3-1.5,5.1-2.2c0.4-0.2,1.2-0.3,1.7-0.3c2.5,0,4.6,2.1,4.6,4.6c0,1.7-1.3,3.6-2.9,4.3
		c-4.3,1.7-8.2,3.5-11.7,5.3c-6.6,20.5-13.6,32.7-20.1,39.3c-3.5,3.5-6.9,5.7-10.8,5.8c-0.1,0-0.2,0-0.3,0c-3.8,0-7.4-3-8.5-6.4
		c-0.5-1.6-0.8-3.2-0.8-5c0-6,3-12.9,8.9-20.4c5.3-6.7,13.1-13.5,24-19.7c2.6-8.6,3.7-16,3.7-21.9c0-3.1-0.3-5.8-0.8-8
		c-0.8-3.2-2-5.3-3.2-6.5c-1.2-1.1-2.3-1.6-3.9-1.5c-3.4,0.2-9.7,3.8-16.6,13.4c-6.9,9.6-14.3,24.7-20.8,46.2
		c-6.5,21.3-5.1,25.8-9.4,42.4v0v0c-0.1,0.5-0.3,1.3-0.6,1.8c0,0,0,0.1,0,0.1c0,0,0,0,0,0c-0.7,1.3-2.5,2.4-4,2.4
		c-2.5,0-4.6-2.1-4.6-4.6c0-0.3,0.1-0.9,0.2-1.2c0,0,0,0,0-0.1c8.5-81.7,19.6-155.8,35.4-228.7c2.5-11.3,4.8-20,6.9-26.3
		c2.1-6.3,3.4-10,6.6-12.8c0.8-0.7,1.9-1.5,3.6-1.6c0.1,0,0.2,0,0.3,0C1306.5,240.7,1308.2,241.5,1309.1,242.4z M1296.5,283.5
		c-6.8,31.2-12.6,62.7-17.8,94.8c15.7-52.6,22.7-92.7,24.1-114.3c0.1-2,0.2-3.8,0.2-5.5C1301,264.4,1298.8,272.7,1296.5,283.5z
		 M1295.5,473.1c-6.3,8-7.1,15.2-6.6,16.8c0,0,0,0,0,0c0.6-0.2,2.2-0.8,4.4-3c3.8-3.9,9-11.9,14.2-25.1
		C1302.3,465.6,1298.4,469.5,1295.5,473.1z"/>
	<path class="st1" d="M1386.8,380c7.5,2.5,13.4,9.7,15.2,20.3c0.5,2.6,0.7,5.5,0.7,8.6c0,9.2-2.2,20.5-7.2,34.1
		c-0.1,0.2-0.2,0.4-0.2,0.6c7-1.4,14.7-5.1,22.4-12.2c0.7-0.7,2.1-1.2,3.1-1.2c2.5,0,4.6,2.1,4.6,4.6c0,1.1-0.7,2.6-1.5,3.4
		c-10.8,9.8-22.2,14.3-32.7,14.9c-4.5,9.3-9.4,15.7-14.7,19.6c-3.5,2.5-7.3,4-11.1,4c-3.9,0-7.5-1.6-10.4-4.1c-5.7-5-9-13.3-10-23.6
		c-0.2-2.2-0.3-4.5-0.3-6.8c0-8.9,1.6-19,5.2-29.8c0.1-0.4,0.5-1,0.7-1.4c2-11.2,7-19.9,13.5-25.4c4.9-4.2,10.7-6.5,16.5-6.5
		c0.1,0,0.3,0,0.4,0C1382.9,379,1384.9,379.3,1386.8,380z M1353.8,442.2c0,2,0.1,4,0.3,5.8c0.9,8.8,3.9,15,6.9,17.6
		c1.5,1.3,2.9,1.8,4.4,1.8s3.4-0.5,5.7-2.2c3-2.2,6.5-6.4,10.1-12.8c-3.4-0.6-6.6-1.7-9.6-3.1c-7.4-3.5-13.4-9.2-17.2-15.9
		C1354,436.5,1353.8,439.4,1353.8,442.2z M1380.5,388.1c-3.3,0-7,1.4-10.5,4.3c-4.8,4.1-9.1,11.1-10.6,21.1
		c-0.2,1.1-0.3,2.2-0.3,3.3c0,9.7,6.5,19.4,16.4,24.2c3,1.4,6.2,2.4,9.7,2.8c0.6-1.3,1.1-2.7,1.7-4.2c4.8-12.9,6.7-23.2,6.7-31.1
		c0-2.5-0.2-4.8-0.5-6.8c-1.4-8.2-5.1-11.9-9-13.2c-1-0.3-2.1-0.5-3.2-0.5C1380.7,388.1,1380.6,388.1,1380.5,388.1z"/>
	<path class="st1" d="M1428.1,403.1c2.5,0,4.6,2.1,4.6,4.6c0,0.4-0.1,1-0.2,1.3c-2.9,10.1-5.9,22.1-7.7,33
		c-1.1,6.4-1.6,12.4-1.6,17.2c0,3.4,0.3,6.2,0.8,8.1c0.7,2.3,1.3,2.8,1.9,2.9s2.4,0.2,5.9-1.7c7-3.9,19-15,35.9-36
		c0.8-0.9,2.4-1.7,3.6-1.7c2.5,0,4.6,2.1,4.6,4.6c0,0.9-0.5,2.2-1,2.9c-17.2,21.3-29.2,33-38.6,38.2c-3.3,1.9-6.6,3-9.6,3
		c-1.2,0-2.4-0.2-3.6-0.6c-4.1-1.4-6.6-5.1-7.8-9c-1-3.2-1.4-6.9-1.4-11c0-5.6,0.8-11.9,1.9-18.5c1.9-11.4,5-23.6,8-34
		c0.5-1.8,2.4-3.3,4.3-3.4C1428,403.1,1428,403.1,1428.1,403.1z M1434.7,377.9c2.5,0,4.6,2.1,4.6,4.6c0,0.4-0.1,1-0.2,1.3
		c-1,3.5-2,7.2-3,11.1c-0.5,1.9-2.5,3.5-4.5,3.5c-2.5,0-4.6-2.1-4.6-4.6c0-0.3,0.1-0.9,0.2-1.2c1-3.9,2-7.8,3.1-11.3
		c0.5-1.8,2.4-3.3,4.3-3.4C1434.6,377.9,1434.6,377.9,1434.7,377.9z"/>
	<path class="st1" d="M1495.4,382.9c1.5,2.1,2.1,4.6,2.1,7.4c0,1.3-0.1,2.6-0.3,4c-1.4,9-7.1,21.5-19.9,38.9
		c-0.1,0.1-0.2,0.3-0.3,0.4c0.3,2,0.7,4.1,1.1,6.3c1.8,8.3,3.3,17.7,4.3,27.3c1.7-1.4,3.3-2.9,5.1-4.3
		c16.8-13.7,35.1-24.8,45.9-32.1c0.7-0.5,1.8-0.8,2.6-0.8c2.5,0,4.6,2.1,4.6,4.6c0,1.4-0.9,3.1-2.1,3.8
		c-11.2,7.6-29.1,18.5-45.3,31.7c-3.5,2.8-6.8,5.8-10,8.8c0.1,2.8,0.2,5.6,0.2,8.4c0,7.9-0.6,15.6-2,22.5c-2.1,10-5.1,17.4-8.6,22.6
		s-7.8,8.7-12.9,8.7c-2.6,0-5.1-1.1-6.9-2.8c-1.8-1.8-3-4-3.7-6.6c-0.6-2.2-0.9-4.6-0.9-7.3c0-3.7,0.6-7.8,1.8-12.5
		c3.5-13.6,12.6-25.8,23.6-36.7c-0.8-11.6-2.5-23.4-4.6-33.3c-1.7-7.8-2.4-14.9-2.4-21.3c0-8.5,1.3-15.8,3.3-21.7
		c3.5-10.4,8.8-17.2,15.5-19.1c0.8-0.2,1.7-0.4,2.7-0.3C1490.9,379.3,1493.8,380.6,1495.4,382.9z M1459,514.1
		c-1,4.1-1.5,7.5-1.5,10.3c0,2,0.2,3.6,0.5,4.7c0.4,1.4,0.9,2.2,1.2,2.5c0.3,0.3,0.3,0.3,0.5,0.3c0.4,0,2.8-0.9,5.4-4.7
		c2.6-3.8,5.3-10.2,7.2-19.3c1.2-5.7,1.7-12.5,1.7-19.6C1466.9,496.5,1461.3,505.3,1459,514.1z M1478.7,401.7
		c-1.5,4.6-2.6,10.4-2.7,17.3c7.9-12.1,11.4-20.9,12.2-26.1c0.4-2.7,0-4-0.1-4.5C1486.5,389,1481.6,393.2,1478.7,401.7z"/>
</g>
</svg>
