<?xml version="1.0" encoding="utf-8"?>
<!-- Generator: Adobe Illustrator 24.1.3, SVG Export Plug-In . SVG Version: 6.00 Build 0)  -->
<svg version="1.1" id="Layer_1" xmlns="http://www.w3.org/2000/svg" xmlns:xlink="http://www.w3.org/1999/xlink" x="0px" y="0px"
	 viewBox="0 0 32 32" style="enable-background:new 0 0 32 32;" xml:space="preserve">
<style type="text/css">
	.st0{fill:#FFFFFF;}
	.st1{fill:#B9D4D0;}
</style>
<circle class="st0" cx="16" cy="16" r="15.8"/>
<g>
	<path class="st1" d="M7.6,17.5C7.6,17.5,7.6,17.6,7.6,17.5c-0.5,2.3-1,4.5-1.2,6.1c0,0.2-0.1,0.4-0.1,0.6c1-1.6,1.2-1.7,2.7-4.2
		c0.4-0.7,0.8-1.3,1.2-1.7c0.2-0.2,0.4-0.4,0.5-0.5c0.2-0.1,0.4-0.2,0.6-0.2c0.2,0,0.5,0.2,0.6,0.4c0.1,0.2,0.2,0.4,0.2,0.7
		c0,0.2,0,0.4,0,0.7c0,0.5,0,1.1-0.1,1.8c-0.1,0.7-0.1,1.3-0.1,1.7c0,0.5,0,0.8,0.1,1s0.1,0.2,0.1,0.2s0,0,0.2-0.1
		c0.3-0.1,0.7-0.6,1.2-1.1c0.5-0.6,1-1.3,1.5-2c0.1-0.1,0.2-0.2,0.3-0.2c0.2,0,0.4,0.2,0.4,0.4c0,0.1,0,0.2-0.1,0.2
		c-0.5,0.7-1,1.5-1.5,2.1s-0.9,1.1-1.4,1.3c-0.1,0.1-0.3,0.1-0.5,0.1c-0.1,0-0.2,0-0.3-0.1c-0.3-0.1-0.4-0.4-0.5-0.7
		c-0.1-0.3-0.1-0.7-0.1-1.2s0-1.1,0.1-1.8c0.1-0.7,0.1-1.3,0.1-1.7c0-0.2,0-0.4,0-0.6s-0.1-0.4-0.1-0.4s-0.1,0-0.1,0.1
		c-0.1,0.1-0.2,0.2-0.4,0.4c-0.3,0.4-0.7,0.9-1.1,1.6c-1.9,3.1-1.7,2.5-3.5,5.7c0,0,0,0.1-0.1,0.1c0,0-0.1,0.1-0.2,0.1s-0.2,0-0.3,0
		C5.4,26.1,5.4,26,5.4,26v-0.1c0-0.1,0-0.3,0-0.5c0-0.4,0.1-1.1,0.3-1.9c0.3-1.6,0.7-3.8,1.2-6.1c0-0.2,0.2-0.3,0.4-0.3l0,0
		C7.5,17.2,7.6,17.3,7.6,17.5z M5.5,25.7L5.5,25.7L5.5,25.7z"/>
	<path class="st1" d="M24,4.6c0.2,0.2,0.3,0.5,0.3,0.9v0.1c0,0.4-0.1,1-0.2,1.6c-0.3,1.3-0.9,3.2-2,5.5c-0.8,1.8-1.2,2.4-1.8,3.7
		c-0.7,3.8-1.3,7.8-1.4,11.1v0.1c0,0.3,0,0.7,0,1l0,0c0,0.2-0.2,0.4-0.4,0.4c-0.2,0-0.4-0.2-0.4-0.4c0-0.3,0-0.7,0-1v-0.1
		c0-2.5,0.3-5.5,0.8-8.4c-0.3,0.5-0.8,1.6-1,2c-0.6,1.1-1.1,2-1.6,2.7c-0.5,0.6-0.9,1.1-1.4,1.2c-0.1,0-0.1,0-0.2,0
		c-0.2,0-0.4-0.1-0.5-0.2c-0.2-0.2-0.2-0.4-0.3-0.7V24c0-0.5,0.2-1.3,0.5-2.3s1-2.2,1.8-3.3c0.8-1,1.9-1.9,3.1-2l0,0l0,0l0,0
		c0-0.1,0-0.1,0.1-0.2c0.4-1.9,0.7-3.9,1.1-5.5c0.5-2.3,1.1-3.9,1.7-4.9c0.3-0.5,0.5-0.9,0.7-1.1c0.1-0.1,0.3-0.2,0.4-0.3
		C23.7,4.4,23.9,4.5,24,4.6z M16.9,18.9c-0.8,0.9-1.4,2.1-1.7,3c-0.3,1-0.4,1.7-0.4,2.1c0,0.1,0,0.3,0,0.3c0.1,0,0.5-0.4,1-0.9
		c0.5-0.6,1-1.4,1.6-2.5c0.4-0.8,1.2-2.5,1.7-3.5C18.3,17.4,17.5,18,16.9,18.9z M23,6.2c-0.5,0.9-1,2.5-1.6,4.8
		c-0.2,0.8-0.4,1.8-0.5,2.7c0.2-0.5,0.3-0.6,0.6-1.2c1-2.3,1.7-4.1,1.9-5.4c0.1-0.6,0.2-1.1,0.2-1.5c0-0.2,0-0.2,0-0.3
		C23.4,5.5,23.2,5.7,23,6.2z"/>
</g>
</svg>
