<?xml version="1.0" encoding="utf-8"?>
<!-- Generator: Adobe Illustrator 24.0.1, SVG Export Plug-In . SVG Version: 6.00 Build 0)  -->
<svg version="1.1" id="Layer_1" xmlns="http://www.w3.org/2000/svg" xmlns:xlink="http://www.w3.org/1999/xlink" x="0px" y="0px"
	 viewBox="0 0 32 32" style="enable-background:new 0 0 32 32;" xml:space="preserve">
<style type="text/css">
	.st0{fill:#FFFFFF;}
	.st1{enable-background:new    ;}
	.st2{fill:#CCABA6;}
</style>
<circle class="st0" cx="16" cy="16" r="15.8"/>
<g class="st1">
	<path class="st2" d="M14.7,18.8c-0.1,0.3-0.3,0.7-0.4,1.2c-0.4,1-0.7,2.2-1.2,3c-0.3,0.6-0.7,1-1.2,1.1c-0.6,0.1-1.5-0.3-1.8-1.1
		c-0.8-1.7,0.1-3.7-0.6-5.4c0-0.1-0.1-0.1-0.1,0C9.1,18,9,18.5,8.9,18.9c-0.2,0.7-0.4,1.5-0.6,2.2c-0.1,0.5-0.3,1.2-0.6,1.7
		c-0.5,0.8-1.8,0.8-2.4-0.1c-0.6-0.8-0.7-2.2-0.6-3.5c-0.2,0.2-0.5,0-0.4-0.2c0.3-0.9,0.6-3.5,1.9-2.8c1.8,1,0.5,5.1,1,6.3
		c0,0,0.1,0.1,0.1,0c0.5-0.7,0.7-2.2,0.8-2.7c0.2-0.9,0.4-2.4,1.3-2.9c0.2-0.1,1.4-0.3,2,1.1s0.2,3.6,0.4,4.4c0.3,1.2,0.4,1,0.8,0.3
		c0.5-0.8,0.9-2,1.2-2.9c0.2-0.5,0.3-0.9,0.4-1.2c0.1-0.1,0.2-0.2,0.3-0.1C14.7,18.5,14.8,18.7,14.7,18.8z"/>
	<path class="st2" d="M24.7,18.9c-0.6,1.9-1.3,3.8-2.2,5.6c-1.2,2.5-4.1,2.5-4.7-3.1l-0.1-1.6c-0.4,1.3-0.8,2.7-0.9,2.9
		c-0.1,0.3-0.2,0.4-0.7,0.5c-1.5,0.2-2.2-1.8-2.3-3.1c-0.1-1.8,0.4-3.3,1.2-3.9c1-0.8,1.9-0.3,2.7,0.7c0.2-2.7,0.8-7,1.8-9.1
		c2.6-5.3,9.2-3.1,5.1,3.3c-1.2,1.9-2.8,3.5-4.8,4.7c-0.1,1.8-0.1,3.7,0,5.6c0.2,2.7,0.6,4.9,1.7,3.8c0.7-0.8,1.2-2.4,1.4-2.8
		c0.5-1.2,0.9-2.4,1.3-3.6C24.4,18.4,24.8,18.6,24.7,18.9z M17.7,18.8c0-0.5,0-0.5,0-1.2c-0.2-0.5-0.6-1-1-1.2
		c-0.1-0.1-0.2,0-0.3,0.1c-0.6,1.5-0.7,3.4-0.2,5c0,0,0.1,0.3,0.3,0.1C16.9,20.9,17.4,19.7,17.7,18.8z M19.9,15.2
		c1.5-1,2.8-2.2,3.9-3.7c4.2-6-0.7-7.9-2.6-3C20.4,10.5,20.1,13,19.9,15.2z"/>
</g>
</svg>
