<?xml version="1.0" encoding="utf-8"?>
<!-- Generator: Adobe Illustrator 23.1.1, SVG Export Plug-In . SVG Version: 6.00 Build 0)  -->
<svg version="1.1" id="Layer_1" xmlns="http://www.w3.org/2000/svg" xmlns:xlink="http://www.w3.org/1999/xlink" x="0px" y="0px"
	 viewBox="0 0 16 16" style="enable-background:new 0 0 16 16;" xml:space="preserve">
<style type="text/css">
	.st0{fill:#FFFFFF;}
	.st1{enable-background:new    ;}
	.st2{fill:#B7D0D9;}
</style>
<title>logo-16</title>
<circle class="st0" cx="8" cy="8" r="7.9"/>
<g class="st1">
	<path class="st2" d="M7.5,9.7c-0.1,0.2-0.1,0.4-0.2,0.6c-0.2,0.5-0.4,1.1-0.6,1.5c-0.2,0.3-0.4,0.5-0.6,0.5
		c-0.3,0.1-0.7-0.1-0.9-0.6C4.8,11,5.3,10,4.9,9.1c0,0,0,0-0.1,0C4.7,9.3,4.6,9.6,4.6,9.8c-0.1,0.4-0.2,0.7-0.3,1.1
		c-0.1,0.2-0.1,0.6-0.3,0.8c-0.3,0.4-0.9,0.4-1.2,0c-0.3-0.4-0.4-1.1-0.3-1.8C2.4,10,2.2,10,2.3,9.8c0.2-0.5,0.3-1.8,1-1.4
		c0.9,0.5,0.2,2.6,0.5,3.2c0,0,0,0,0.1,0c0.3-0.4,0.4-1.1,0.4-1.4C4.3,9.8,4.4,9,4.9,8.8c0.1,0,0.7-0.1,1,0.5
		C6.2,10,6,11.1,6.1,11.5c0.1,0.6,0.2,0.5,0.4,0.2c0.2-0.4,0.4-1,0.6-1.4C7.2,10,7.2,9.8,7.3,9.6c0-0.1,0.1-0.1,0.2-0.1
		C7.5,9.6,7.6,9.7,7.5,9.7z"/>
	<path class="st2" d="M12.5,9.8c-0.3,0.9-0.7,1.9-1.1,2.8c-0.6,1.2-2,1.2-2.4-1.5l0-0.8c-0.2,0.6-0.4,1.3-0.5,1.4
		c-0.1,0.1-0.1,0.2-0.4,0.2C7.5,12,7.1,11,7.1,10.4c0-0.9,0.2-1.6,0.6-2C8.2,8,8.6,8.3,9,8.8c0.1-1.3,0.4-3.5,0.9-4.6
		c1.3-2.6,4.6-1.5,2.5,1.7c-0.6,1-1.4,1.7-2.4,2.3c-0.1,0.9-0.1,1.8,0,2.8c0.1,1.3,0.3,2.5,0.8,1.9c0.4-0.4,0.6-1.2,0.7-1.4
		c0.2-0.6,0.5-1.2,0.7-1.8C12.4,9.6,12.6,9.6,12.5,9.8z M9,9.7c0-0.2,0-0.2,0-0.6C8.9,8.9,8.7,8.7,8.5,8.6c0,0-0.1,0-0.1,0
		C8.1,9.3,8,10.3,8.3,11.1c0,0,0.1,0.2,0.1,0.1C8.6,10.8,8.9,10.2,9,9.7z M10.1,7.9c0.8-0.5,1.4-1.1,1.9-1.8c2.1-3-0.3-3.9-1.3-1.5
		C10.4,5.6,10.2,6.8,10.1,7.9z"/>
</g>
</svg>
