<svg enable-background="new 0 0 32 32" viewBox="0 0 32 32" xmlns="http://www.w3.org/2000/svg"><circle cx="16" cy="16" fill="#fff" r="15.8"/><g enable-background="new" fill="#b7d0d9"><path d="m14.7 18.8c-.1.3-.3.7-.4 1.2-.4 1-.7 2.2-1.2 3-.3.6-.7 1-1.2 1.1-.6.1-1.5-.3-1.8-1.1-.8-1.7.1-3.7-.6-5.4 0-.1-.1-.1-.1 0-.3.4-.4.9-.5 1.3-.2.7-.4 1.5-.6 2.2-.1.5-.3 1.2-.6 1.7-.5.8-1.8.8-2.4-.1-.6-.8-.7-2.2-.6-3.5-.2.2-.5 0-.4-.2.3-.9.6-3.5 1.9-2.8 1.8 1 .5 5.1 1 6.3 0 0 .1.1.1 0 .5-.7.7-2.2.8-2.7.2-.9.4-2.4 1.3-2.9.2-.1 1.4-.3 2 1.1s.2 3.6.4 4.4c.3 1.2.4 1 .8.3.5-.8.9-2 1.2-2.9.2-.5.3-.9.4-1.2.1-.1.2-.2.3-.1.2 0 .3.2.2.3z"/><path d="m24.7 18.9c-.6 1.9-1.3 3.8-2.2 5.6-1.2 2.5-4.1 2.5-4.7-3.1l-.1-1.6c-.4 1.3-.8 2.7-.9 2.9-.1.3-.2.4-.7.5-1.5.2-2.2-1.8-2.3-3.1-.1-1.8.4-3.3 1.2-3.9 1-.8 1.9-.3 2.7.7.2-2.7.8-7 1.8-9.1 2.6-5.3 9.2-3.1 5.1 3.3-1.2 1.9-2.8 3.5-4.8 4.7-.1 1.8-.1 3.7 0 5.6.2 2.7.6 4.9 1.7 3.8.7-.8 1.2-2.4 1.4-2.8.5-1.2.9-2.4 1.3-3.6.2-.4.6-.2.5.1zm-7-.1c0-.5 0-.5 0-1.2-.2-.5-.6-1-1-1.2-.1-.1-.2 0-.3.1-.6 1.5-.7 3.4-.2 5 0 0 .1.3.3.1.4-.7.9-1.9 1.2-2.8zm2.2-3.6c1.5-1 2.8-2.2 3.9-3.7 4.2-6-.7-7.9-2.6-3-.8 2-1.1 4.5-1.3 6.7z"/></g></svg>