<svg enable-background="new 0 0 16 16" viewBox="0 0 16 16" xmlns="http://www.w3.org/2000/svg"><circle cx="8" cy="8" fill="#fff" r="7.9"/><g enable-background="new" fill="#b7d0d9"><path d="m7.5 9.7c-.1.2-.1.4-.2.6-.2.5-.4 1.1-.6 1.5-.2.3-.4.5-.6.5-.3.1-.7-.1-.9-.6-.4-.7.1-1.7-.3-2.6 0 0 0 0-.1 0-.1.2-.2.5-.2.7-.1.4-.2.7-.3 1.1-.1.2-.1.6-.3.8-.3.4-.9.4-1.2 0s-.4-1.1-.3-1.8c-.1.1-.3.1-.2-.1.2-.5.3-1.8 1-1.4.9.5.2 2.6.5 3.2h.1c.3-.4.4-1.1.4-1.4 0-.4.1-1.2.6-1.4.1 0 .7-.1 1 .5.3.7.1 1.8.2 2.2.1.6.2.5.4.2.2-.4.4-1 .6-1.4.1-.3.1-.5.2-.7 0-.1.1-.1.2-.1 0 .1.1.2 0 .2z"/><path d="m12.5 9.8c-.3.9-.7 1.9-1.1 2.8-.6 1.2-2 1.2-2.4-1.5v-.8c-.2.6-.4 1.3-.5 1.4s-.1.2-.4.2c-.6.1-1-.9-1-1.5 0-.9.2-1.6.6-2 .5-.4.9-.1 1.3.4.1-1.3.4-3.5.9-4.6 1.3-2.6 4.6-1.5 2.5 1.7-.6 1-1.4 1.7-2.4 2.3-.1.9-.1 1.8 0 2.8.1 1.3.3 2.5.8 1.9.4-.4.6-1.2.7-1.4.2-.6.5-1.2.7-1.8.2-.1.4-.1.3.1zm-3.5-.1c0-.2 0-.2 0-.6-.1-.2-.3-.4-.5-.5h-.1c-.3.7-.4 1.7-.1 2.5 0 0 .1.2.1.1.2-.4.5-1 .6-1.5zm1.1-1.8c.8-.5 1.4-1.1 1.9-1.8 2.1-3-.3-3.9-1.3-1.5-.3 1-.5 2.2-.6 3.3z"/></g></svg>