<?xml version="1.0" encoding="utf-8"?>
<!-- Generator: Adobe Illustrator 23.1.1, SVG Export Plug-In . SVG Version: 6.00 Build 0)  -->
<svg version="1.1" id="Layer_1" xmlns="http://www.w3.org/2000/svg" xmlns:xlink="http://www.w3.org/1999/xlink" x="0px" y="0px"
	 viewBox="0 0 196 196" style="enable-background:new 0 0 196 196;" xml:space="preserve">
<style type="text/css">
	.st0{fill:#FFFFFF;}
	.st1{enable-background:new    ;}
	.st2{fill:#B7D0D9;}
</style>
<circle class="st0" cx="98" cy="97.8" r="96.8"/>
<g class="st1">
	<path class="st2" d="M90.1,122.4c-0.8,2-1.8,4.9-2.8,8c-2.4,6.7-4.9,14.5-8.3,20.2c-2.3,3.7-4.9,6.6-8,7.3c-3.7,1-9.8-1.9-12.2-7.4
		c-5-11.4,1-24.4-3.7-36c-0.2-0.4-0.6-0.4-0.8-0.1c-1.8,2.5-2.6,6.2-3.4,8.8c-1.3,4.9-2.4,9.8-3.7,14.8c-0.7,3-1.9,7.8-4.3,11.2
		c-3.5,5.3-12,5.5-16.3-0.5c-4-5.4-4.9-14.8-4.1-23.4c-1.1,1.1-3.4,0.2-2.6-1.4c2.2-6,4.2-23.6,13-18.7c11.8,6.8,3.1,34.2,7,42.1
		c0.1,0.2,0.6,0.4,0.7,0.1c3.5-4.8,4.8-14.9,5.6-18.1c1.4-5.9,2.6-16.1,8.9-19.4c1.1-0.6,9.6-1.7,13.3,7.2
		c3.8,9.1,1.6,23.9,2.8,29.6c1.8,8.3,2.6,6.8,5.4,2c3.1-5.4,5.8-13.3,7.8-19.2c1.1-3.2,2-6,2.9-8.2c0.4-0.8,1.3-1.2,2.2-0.8
		C90.1,120.6,90.4,121.6,90.1,122.4z"/>
	<path class="st2" d="M156.8,122.9c-4.3,12.6-8.8,25.3-14.4,37.4c-7.7,16.4-27,16.6-31.4-20.4l-0.6-10.6c-2.6,8.4-5.6,18-6.1,19.1
		c-0.7,1.8-1.1,2.8-4.8,3.2c-10.1,1.3-14.9-12-15.1-20.5c-0.5-12.1,2.9-21.7,7.9-26.2c6.4-5.6,12.6-1.9,18,4.6
		c1.1-17.8,5-46.6,12-60.7c17.3-35,61.1-20.5,34,22.3c-8,12.7-19,23.2-31.7,31.1c-0.8,12-1,24.5-0.2,37.6
		c1.1,17.9,4.1,32.8,11.3,25.1c4.7-5,8.2-15.7,9.4-18.8c3.1-7.9,6-16,8.8-24C154.4,120.2,157.5,121,156.8,122.9z M110,122.4
		c-0.1-3.2,0.1-3-0.1-7.7c-1.6-3-3.8-6.4-6.6-8c-0.6-0.5-1.4-0.1-1.7,0.5c-4.1,9.7-4.7,22.6-1.3,33c0.1,0.2,0.8,2.2,1.8,0.7
		C105,136.7,108.1,128.3,110,122.4z M124.8,98.3c10.1-6.6,19-14.9,25.9-24.6c28.2-39.8-4.6-52.6-17.2-20.2
		C128.2,66.9,126.1,83.9,124.8,98.3z"/>
</g>
</svg>
