<?xml version="1.0" encoding="utf-8"?>
<!-- Generator: Adobe Illustrator 24.1.3, SVG Export Plug-In . SVG Version: 6.00 Build 0)  -->
<svg version="1.1" id="Layer_1" xmlns="http://www.w3.org/2000/svg" xmlns:xlink="http://www.w3.org/1999/xlink" x="0px" y="0px"
	 viewBox="0 0 16 16" style="enable-background:new 0 0 16 16;" xml:space="preserve">
<style type="text/css">
	.st0{fill:#FFFFFF;}
	.st1{fill:#869E9A;}
</style>
<circle class="st0" cx="8" cy="8" r="7.9"/>
<g>
	<path class="st1" d="M4.2,8.9C4.2,8.9,4.2,8.9,4.2,8.9c-0.3,1.2-0.5,2.3-0.6,3.1c0,0.1,0,0.2,0,0.3c0.5-0.8,0.6-0.9,1.3-2.2
		c0.2-0.4,0.4-0.7,0.6-0.9C5.5,9.2,5.6,9.1,5.7,9C5.8,8.9,5.9,8.9,6,8.9c0.1,0,0.2,0.1,0.3,0.2c0.1,0.1,0.1,0.2,0.1,0.4
		c0,0.1,0,0.2,0,0.3c0,0.2,0,0.6-0.1,0.9c0,0.4-0.1,0.6-0.1,0.9c0,0.2,0,0.4,0,0.5c0,0.1,0.1,0.1,0.1,0.1c0,0,0,0,0.1,0
		c0.1-0.1,0.4-0.3,0.6-0.6c0.2-0.3,0.5-0.7,0.7-1c0,0,0.1-0.1,0.2-0.1c0.1,0,0.2,0.1,0.2,0.2c0,0,0,0.1,0,0.1
		c-0.2,0.4-0.5,0.8-0.8,1.1c-0.2,0.3-0.5,0.6-0.7,0.7c-0.1,0-0.2,0.1-0.2,0.1c0,0-0.1,0-0.1,0C6.1,12.5,6,12.3,6,12.2
		c0-0.2-0.1-0.3-0.1-0.6c0-0.2,0-0.6,0.1-0.9C6,10.3,6,10,6,9.8c0-0.1,0-0.2,0-0.3C6,9.4,6,9.3,6,9.3c0,0,0,0-0.1,0
		c-0.1,0-0.1,0.1-0.2,0.2C5.6,9.7,5.4,10,5.2,10.3c-0.9,1.6-0.9,1.3-1.7,2.9c0,0,0,0,0,0.1c0,0,0,0-0.1,0c0,0-0.1,0-0.1,0
		c-0.1,0-0.1-0.1-0.1-0.1c0,0,0,0,0-0.1c0-0.1,0-0.1,0-0.3c0-0.2,0.1-0.5,0.1-1c0.1-0.8,0.3-2,0.6-3.1c0-0.1,0.1-0.1,0.2-0.1
		c0,0,0,0,0,0C4.1,8.7,4.2,8.8,4.2,8.9z M3.1,13.1C3.1,13.1,3.1,13.1,3.1,13.1C3.1,13.1,3.1,13.1,3.1,13.1z"/>
	<path class="st1" d="M12.4,2.3c0.1,0.1,0.1,0.3,0.1,0.4c0,0,0,0,0,0.1c0,0.2,0,0.5-0.1,0.8c-0.2,0.7-0.5,1.6-1,2.8
		c-0.4,0.9-0.6,1.2-0.9,1.9c-0.4,2-0.7,4-0.7,5.7c0,0,0,0,0,0.1c0,0.2,0,0.4,0,0.5c0,0,0,0,0,0c0,0.1-0.1,0.2-0.2,0.2
		c-0.1,0-0.2-0.1-0.2-0.2c0-0.2,0-0.4,0-0.5c0,0,0,0,0-0.1c0-1.3,0.2-2.8,0.4-4.3c-0.1,0.3-0.4,0.8-0.5,1c-0.3,0.6-0.6,1-0.8,1.4
		c-0.3,0.3-0.5,0.5-0.7,0.6c0,0-0.1,0-0.1,0c-0.1,0-0.2,0-0.3-0.1c-0.1-0.1-0.1-0.2-0.1-0.4c0,0,0,0,0-0.1c0-0.3,0.1-0.7,0.2-1.2
		c0.2-0.5,0.5-1.1,0.9-1.7c0.4-0.5,0.9-1,1.5-1c0,0,0,0,0,0c0,0,0,0,0,0c0,0,0,0,0,0c0,0,0-0.1,0-0.1c0.2-1,0.4-2,0.6-2.8
		c0.3-1.2,0.6-2,0.8-2.5c0.1-0.3,0.2-0.4,0.4-0.6c0.1-0.1,0.1-0.1,0.2-0.1C12.2,2.2,12.3,2.2,12.4,2.3z M8.8,9.6
		c-0.4,0.5-0.7,1.1-0.8,1.6c-0.2,0.5-0.2,0.9-0.2,1.1c0,0.1,0,0.1,0,0.1c0.1,0,0.3-0.2,0.5-0.5c0.2-0.3,0.5-0.7,0.8-1.3
		c0.2-0.4,0.6-1.3,0.9-1.8C9.5,8.9,9.1,9.2,8.8,9.6z M11.9,3.1c-0.2,0.5-0.5,1.3-0.8,2.4c-0.1,0.4-0.2,0.9-0.3,1.4
		c0.1-0.3,0.2-0.3,0.3-0.6c0.5-1.2,0.8-2.1,1-2.8c0.1-0.3,0.1-0.6,0.1-0.8c0-0.1,0-0.1,0-0.2C12.1,2.7,12,2.9,11.9,3.1z"/>
</g>
</svg>
