<svg enable-background="new 0 0 196 196" viewBox="0 0 196 196" xmlns="http://www.w3.org/2000/svg"><circle cx="98" cy="97.8" fill="#fff" r="96.8"/><g enable-background="new" fill="#b7d0d9"><path d="m90.1 122.4c-.8 2-1.8 4.9-2.8 8-2.4 6.7-4.9 14.5-8.3 20.2-2.3 3.7-4.9 6.6-8 7.3-3.7 1-9.8-1.9-12.2-7.4-5-11.4 1-24.4-3.7-36-.2-.4-.6-.4-.8-.1-1.8 2.5-2.6 6.2-3.4 8.8-1.3 4.9-2.4 9.8-3.7 14.8-.7 3-1.9 7.8-4.3 11.2-3.5 5.3-12 5.5-16.3-.5-4-5.4-4.9-14.8-4.1-23.4-1.1 1.1-3.4.2-2.6-1.4 2.2-6 4.2-23.6 13-18.7 11.8 6.8 3.1 34.2 7 42.1.1.2.6.4.7.1 3.5-4.8 4.8-14.9 5.6-18.1 1.4-5.9 2.6-16.1 8.9-19.4 1.1-.6 9.6-1.7 13.3 7.2 3.8 9.1 1.6 23.9 2.8 29.6 1.8 8.3 2.6 6.8 5.4 2 3.1-5.4 5.8-13.3 7.8-19.2 1.1-3.2 2-6 2.9-8.2.4-.8 1.3-1.2 2.2-.8.6.1.9 1.1.6 1.9z"/><path d="m156.8 122.9c-4.3 12.6-8.8 25.3-14.4 37.4-7.7 16.4-27 16.6-31.4-20.4l-.6-10.6c-2.6 8.4-5.6 18-6.1 19.1-.7 1.8-1.1 2.8-4.8 3.2-10.1 1.3-14.9-12-15.1-20.5-.5-12.1 2.9-21.7 7.9-26.2 6.4-5.6 12.6-1.9 18 4.6 1.1-17.8 5-46.6 12-60.7 17.3-35 61.1-20.5 34 22.3-8 12.7-19 23.2-31.7 31.1-.8 12-1 24.5-.2 37.6 1.1 17.9 4.1 32.8 11.3 25.1 4.7-5 8.2-15.7 9.4-18.8 3.1-7.9 6-16 8.8-24 .5-1.9 3.6-1.1 2.9.8zm-46.8-.5c-.1-3.2.1-3-.1-7.7-1.6-3-3.8-6.4-6.6-8-.6-.5-1.4-.1-1.7.5-4.1 9.7-4.7 22.6-1.3 33 .1.2.8 2.2 1.8.7 2.9-4.2 6-12.6 7.9-18.5zm14.8-24.1c10.1-6.6 19-14.9 25.9-24.6 28.2-39.8-4.6-52.6-17.2-20.2-5.3 13.4-7.4 30.4-8.7 44.8z"/></g></svg>