<?xml version="1.0" encoding="utf-8"?>
<!-- Generator: Adobe Illustrator 24.1.3, SVG Export Plug-In . SVG Version: 6.00 Build 0)  -->
<svg version="1.1" id="Layer_1" xmlns="http://www.w3.org/2000/svg" xmlns:xlink="http://www.w3.org/1999/xlink" x="0px" y="0px"
	 viewBox="0 0 196 196" style="enable-background:new 0 0 196 196;" xml:space="preserve">
<style type="text/css">
	.st0{fill:#FFFFFF;}
	.st1{fill:#869E9A;}
</style>
<circle class="st0" cx="98" cy="97.8" r="96.8"/>
<g>
	<path class="st1" d="M49.1,105.5c0,0.2,0,0.4-0.1,0.6c-3.3,14-6,27.8-7.6,37.7c-0.2,1.5-0.4,2.6-0.6,3.9c5.9-10.3,7.3-11,16.8-26.9
		c2.7-4.5,5.1-8.1,7.4-10.8c1.1-1.3,2.2-2.4,3.3-3.2c1.1-0.8,2.3-1.5,3.8-1.4s2.9,1.1,3.6,2.3c0.7,1.2,1.1,2.6,1.3,4.4
		c0.1,1.2,0.2,2.6,0.2,4.2c0,3-0.3,6.8-0.8,11.4c-0.5,4.4-0.7,7.9-0.7,10.7c0,2.8,0.2,4.8,0.6,6c0.4,1.2,0.7,1.4,0.7,1.4
		s0.2,0.1,1-0.3c1.6-0.8,4.4-3.6,7.4-7.2c2.9-3.6,6.1-8.2,9.2-12.7c0.4-0.6,1.2-1,1.9-1c1.3,0,2.3,1,2.3,2.3c0,0.4-0.2,1-0.4,1.3
		c-3.1,4.6-6.4,9.2-9.4,13c-3.1,3.8-5.9,6.9-8.8,8.4c-0.9,0.5-2,0.8-3.1,0.8c-0.6,0-1.3-0.1-1.9-0.4c-1.7-0.7-2.7-2.3-3.3-4.2
		c-0.6-1.9-0.8-4.2-0.8-7.3c0-3,0.3-6.8,0.8-11.3c0.5-4.6,0.8-8.2,0.8-11c0-1.4-0.1-2.6-0.2-3.5c-0.2-1.4-0.5-2.3-0.7-2.6
		c-0.2,0.1-0.4,0.2-0.8,0.5c-0.7,0.5-1.6,1.3-2.5,2.5c-2,2.3-4.4,5.8-7,10.2c-11.8,19.8-10.9,15.8-21.7,35.9
		c-0.1,0.2-0.2,0.4-0.6,0.8c-0.2,0.2-0.5,0.4-1,0.6c-0.5,0.1-1.3,0.1-1.8-0.2c-1-0.6-1-1.2-1.1-1.5c-0.1-0.3-0.1-0.5-0.1-0.7
		c-0.1-0.8,0-1.8,0.1-3.1c0.3-2.7,0.8-6.7,1.7-11.7c1.7-10.1,4.4-24,7.7-38c0.2-1,1.2-1.8,2.2-1.8c0,0,0,0,0,0
		C48.1,103.2,49.1,104.3,49.1,105.5z M35.7,156.9c0,0,0,0,0.1-0.1C35.7,156.8,35.7,156.8,35.7,156.9z"/>
	<path class="st1" d="M152.1,24.5c1.5,1.4,1.7,3.2,1.7,5.4c0,0.3,0,0.6,0,0.9c0,2.7-0.5,6-1.4,10.2c-1.9,8.4-5.9,20.1-12.6,34.8
		c-5.1,11.2-7.4,15.3-11.2,23.1c-4.5,24-8.4,48.9-8.5,69.4c0,0.3,0,0.5,0,0.8c0,2.2,0.1,4.3,0.1,6.4c0,0,0,0.1,0,0.1
		c0,1.3-1,2.3-2.3,2.3c-1.2,0-2.3-1-2.3-2.2c-0.1-2.1-0.1-4.3-0.1-6.5c0-0.3,0-0.6,0-0.8c0.1-15.8,2.2-34.4,5.1-52.9
		c-1.7,3.3-4.7,9.8-6.2,12.6c-3.6,7.1-7.1,12.7-10.2,16.7c-3.1,4-5.7,6.6-8.6,7.5c-0.4,0.1-0.9,0.2-1.4,0.2c-1.2,0-2.4-0.4-3.2-1.3
		c-1.2-1.2-1.5-2.8-1.6-4.5c0-0.2,0-0.5,0-0.8c0-3.4,1-8,3.1-14.3c2.1-6.3,6-14.1,11.2-20.5c5.2-6.5,11.7-11.8,19.3-12.3
		c0.1,0,0.2,0,0.3,0c0.1,0,0.2,0,0.3,0c0,0,0.1,0,0.1,0c0.2-0.3,0.3-0.7,0.4-1c2.3-12,4.5-24.5,6.9-34.6
		c3.4-14.3,7.1-24.4,10.4-30.9c1.6-3.2,3.1-5.4,4.7-6.9c0.8-0.8,1.6-1.4,2.7-1.6C149.8,23.3,151.2,23.6,152.1,24.5z M107.2,113.9
		c-4.8,5.9-8.5,13.4-10.5,19.1c-2,6.1-2.8,10.5-2.8,12.9c0,0.8,0.3,1.8,0.3,1.8c0.9-0.3,3.4-2.2,6.3-5.9c2.9-3.7,6.2-9.1,9.7-16
		c2.6-5,7.4-15.4,10.7-22.1C116.1,105,111.3,108.7,107.2,113.9z M145.4,34.3c-3,5.9-6.6,15.8-10,29.9c-1.2,5-2.2,11.5-3.4,17.1
		c1.5-3.2,2-3.8,3.6-7.3C142.2,59.4,146,48,147.8,40c0.9-4,1.3-7.1,1.4-9.3c0-1.4-0.1-1.4-0.2-1.9C148.1,29.7,146.8,31.5,145.4,34.3
		z"/>
</g>
</svg>
