<svg enable-background="new 0 0 64 64" viewBox="0 0 64 64" xmlns="http://www.w3.org/2000/svg"><circle cx="32.1" cy="32.1" fill="#fff" r="31.2"/><g enable-background="new" fill="#b7d0d9"><path d="m29.6 37.7c-.3.6-.5 1.5-.8 2.4-.7 2-1.5 4.4-2.5 6-.7 1.1-1.5 2-2.4 2.2-1.1.3-3-.6-3.7-2.2-1.5-3.4.3-7.3-1.1-10.8-.1-.1-.2-.1-.3 0-.5.8-.8 1.9-1 2.6-.4 1.5-.7 3-1.1 4.4-.2.9-.6 2.3-1.3 3.3-1 1.6-3.6 1.7-4.9-.1-1.2-1.6-1.5-4.4-1.2-7-.3.3-1 .1-.8-.4.6-1.8 1.3-7.1 3.9-5.6 3.5 2.1.9 10.3 2.1 12.6 0 .1.2.1.2 0 1-1.4 1.4-4.5 1.7-5.4.4-1.8.8-4.8 2.7-5.8.3-.2 2.9-.5 4 2.2 1.2 2.7.5 7.2.8 8.9.5 2.5.8 2.1 1.6.6.9-1.6 1.7-4 2.3-5.8.3-1 .6-1.8.9-2.4.1-.3.4-.4.6-.3.3.1.5.4.3.6z"/><path d="m49.7 37.9c-1.3 3.8-2.6 7.6-4.3 11.2-2.3 4.9-8.1 5-9.4-6.1l-.2-3.2c-.8 2.5-1.7 5.4-1.8 5.7-.2.5-.3.8-1.4 1-3 .4-4.5-3.6-4.5-6.2-.1-3.6.9-6.5 2.4-7.8 1.9-1.7 3.8-.6 5.4 1.4.3-5.3 1.5-14 3.6-18.2 5.2-10.5 18.3-6.2 10.2 6.7-2.4 3.8-5.7 6.9-9.5 9.3-.3 3.6-.3 7.3-.1 11.3.3 5.4 1.2 9.8 3.4 7.5 1.4-1.5 2.4-4.7 2.8-5.7.9-2.4 1.8-4.8 2.6-7.2 0-.5 1-.3.8.3zm-14.1-.2c0-1 0-.9 0-2.3-.5-.9-1.2-1.9-2-2.4-.2-.1-.4 0-.5.1-1.2 2.9-1.4 6.8-.4 9.9 0 .1.3.6.5.2.9-1.2 1.8-3.7 2.4-5.5zm4.5-7.2c3-2 5.7-4.5 7.8-7.4 8.5-12-1.4-15.8-5.1-6-1.7 4-2.4 9.1-2.7 13.4z"/></g></svg>