<?xml version="1.0" encoding="utf-8"?>
<!-- Generator: Adobe Illustrator 24.0.1, SVG Export Plug-In . SVG Version: 6.00 Build 0)  -->
<svg version="1.1" id="Layer_1" xmlns="http://www.w3.org/2000/svg" xmlns:xlink="http://www.w3.org/1999/xlink" x="0px" y="0px"
	 viewBox="0 0 64 64" style="enable-background:new 0 0 64 64;" xml:space="preserve">
<style type="text/css">
	.st0{fill:#FFFFFF;}
	.st1{enable-background:new    ;}
	.st2{fill:#CCABA6;}
</style>
<circle class="st0" cx="32.1" cy="32.1" r="31.2"/>
<g class="st1">
	<path class="st2" d="M29.6,37.7c-0.3,0.6-0.5,1.5-0.8,2.4c-0.7,2-1.5,4.4-2.5,6c-0.7,1.1-1.5,2-2.4,2.2c-1.1,0.3-3-0.6-3.7-2.2
		c-1.5-3.4,0.3-7.3-1.1-10.8c-0.1-0.1-0.2-0.1-0.3,0c-0.5,0.8-0.8,1.9-1,2.6c-0.4,1.5-0.7,3-1.1,4.4c-0.2,0.9-0.6,2.3-1.3,3.3
		c-1,1.6-3.6,1.7-4.9-0.1c-1.2-1.6-1.5-4.4-1.2-7c-0.3,0.3-1,0.1-0.8-0.4c0.6-1.8,1.3-7.1,3.9-5.6c3.5,2.1,0.9,10.3,2.1,12.6
		c0,0.1,0.2,0.1,0.2,0c1-1.4,1.4-4.5,1.7-5.4c0.4-1.8,0.8-4.8,2.7-5.8c0.3-0.2,2.9-0.5,4,2.2c1.2,2.7,0.5,7.2,0.8,8.9
		c0.5,2.5,0.8,2.1,1.6,0.6c0.9-1.6,1.7-4,2.3-5.8c0.3-1,0.6-1.8,0.9-2.4c0.1-0.3,0.4-0.4,0.6-0.3C29.6,37.2,29.8,37.5,29.6,37.7z"/>
	<path class="st2" d="M49.7,37.9c-1.3,3.8-2.6,7.6-4.3,11.2c-2.3,4.9-8.1,5-9.4-6.1l-0.2-3.2c-0.8,2.5-1.7,5.4-1.8,5.7
		c-0.2,0.5-0.3,0.8-1.4,1c-3,0.4-4.5-3.6-4.5-6.2c-0.1-3.6,0.9-6.5,2.4-7.8c1.9-1.7,3.8-0.6,5.4,1.4c0.3-5.3,1.5-14,3.6-18.2
		c5.2-10.5,18.3-6.2,10.2,6.7c-2.4,3.8-5.7,6.9-9.5,9.3c-0.3,3.6-0.3,7.3-0.1,11.3c0.3,5.4,1.2,9.8,3.4,7.5c1.4-1.5,2.4-4.7,2.8-5.7
		c0.9-2.4,1.8-4.8,2.6-7.2C48.9,37.1,49.9,37.3,49.7,37.9z M35.6,37.7c0-1,0-0.9,0-2.3c-0.5-0.9-1.2-1.9-2-2.4
		c-0.2-0.1-0.4,0-0.5,0.1c-1.2,2.9-1.4,6.8-0.4,9.9c0,0.1,0.3,0.6,0.5,0.2C34.1,42,35,39.5,35.6,37.7z M40.1,30.5
		c3-2,5.7-4.5,7.8-7.4c8.5-12-1.4-15.8-5.1-6C41.1,21.1,40.4,26.2,40.1,30.5z"/>
</g>
</svg>
