<?xml version="1.0" encoding="utf-8"?>
<!-- Generator: Adobe Illustrator 23.1.1, SVG Export Plug-In . SVG Version: 6.00 Build 0)  -->
<svg version="1.1" id="Layer_1" xmlns="http://www.w3.org/2000/svg" xmlns:xlink="http://www.w3.org/1999/xlink" x="0px" y="0px"
	 viewBox="0 0 1920 800" style="enable-background:new 0 0 1920 800;" xml:space="preserve">
<style type="text/css">
	.st0{fill:#B7CFD8;}
	.st1{enable-background:new    ;}
	.st2{fill:#FFFFFF;}
</style>
<title>motion-banner</title>
<rect x="-17.7" y="-26.2" class="st0" width="1957.7" height="859.3"/>
<g class="st1">
	<path class="st2" d="M909.5,414c-0.7,1.7-1.5,4.1-2.4,6.7c-3.2,9.5-7.2,21.3-13.5,22.9c-3.9,1-8.5-2.6-10.2-6.3
		c-3.9-8.8,0.2-18.8-2.4-28c-0.1-0.1-0.2-0.1-0.3,0c-3.6,9-4.9,31.5-12,32.6c-13.7,2.2-9.3-24.5-10.7-35.2c0-0.2-0.3-0.2-0.4,0
		c-1.1,2.1-1.7,4.7-2.2,6.7c-1.2,4.2-2,8.6-3.1,12.8c-0.9,3.4-2.8,11.6-6.9,12.8c-2.1,0.9-6.8,0.4-9.8-3.8
		c-3.3-4.5-3.7-12.1-3.6-19.2c-0.8,1.3-3.1,0.6-2.5-1c0.3-0.9,4.1-21.7,12.5-14.3c7.8,6.7,1.2,24.4,4.7,33.4c0.1,0,0.1,0,0.2,0
		c2.7-4.3,3.8-12.7,4.4-15.5c1.2-5.2,2.2-14.1,7.4-17.1c10.5-6,11.6,18.4,11.7,19.3c0.3,2.3,0.2,8.5,1.3,12.1c0.1,0.1,0.3,0.1,0.3,0
		c0.8-2.5,3.4-15.8,6-23.7c0.9-2.7,2.2-6.6,6.3-6.7c12.7-0.4,6.3,28.1,10.9,35.8c0.2,0.5,0.8,0.5,1.1,0.1c3.4-4.2,6.2-12.6,8.3-18.6
		c0.9-2.7,1.7-5.1,2.4-6.9c0.2-0.4,0.6-0.7,1-0.7C909.2,412.1,909.8,413.1,909.5,414z"/>
	<path class="st2" d="M946,414.2c-2.4,7.4-5.9,12.3-12.1,14.1c-2.6,9.6-9,20.2-20.2,15.9c-10.4-4-12.5-16.2-9.3-27
		c-6.4-14.5,5.9-27,18.5-21.8c11.6,4.7,13.8,18.9,11.7,30c4.7-2,7.2-6.5,8.9-11.9C944,411.9,946.6,412.6,946,414.2z M906.1,413.8
		c6.4-8.7,19.4-2.5,13,1.3H919c-1.6,2.9-2.8,5.9-3.3,9.1c5.7,2.6,12.6,2.6,15.9,2c2.4-10.7,1.1-23-8.6-27.8
		C911.6,392.7,903.2,403.8,906.1,413.8z M930.9,428.9c-4.5,0.6-10.5-0.1-15.4-2C915.5,437.6,926.5,443.1,930.9,428.9z"/>
</g>
<g class="st1">
	<path class="st2" d="M975.8,414c-0.7,1.7-1.5,4.1-2.4,6.7c-2.2,6.7-4.9,14.6-8.5,19.3c-4.6,5.7-12.9,6.1-18.4-1.8
		c-8.8-12.3-0.3-26.9-0.6-61.3c-5.4-1-8.6,0.5-10,2.3c-0.5,0.6-1.4,0.7-1.9,0.2c-0.6-0.5-0.7-1.3-0.2-1.9c2.8-3.5,7.6-4,12.1-3.3
		c-0.1-3.3-0.3-6.8-0.5-10.5c-0.1-0.9-2.2-9.1,3.6-8.2c2.9,0.5,5.6,2.4,7.2,5.2s1.6,11.3,1.5,15.7c2.4,0.1,4.8-0.2,7.1-0.8
		c4.7-1.3,5.5-3.8,5-5.2c-0.3-0.8-1.4-1.5-2.1-1.1c-0.7,0.3-1.5,0.1-1.9-0.6c-0.3-0.6-0.1-1.4,0.6-1.8c2.2-1.2,5.1,0.3,5.9,2.7
		c1,2.8-0.5,6.9-6.8,8.5c-2.5,0.7-5.2,1-7.8,1c0.2,22.6-2.7,42.9-2.7,43.6c-0.8,11.4,1.1,24.3,7.9,15.5c3.2-4.3,6-12.5,8-18.4
		c0.9-2.7,1.7-5,2.4-6.8c0.3-0.7,1.1-1,1.8-0.7C975.8,412.5,976.1,413.3,975.8,414z"/>
</g>
<g class="st1">
	<path class="st2" d="M1005.6,414c-0.7,1.7-1.5,4.1-2.4,6.7c-2,5.7-4.4,12.6-7.3,17.3c-6.5,10.7-15.2,7.8-18,1.9
		c-2.2-4.7-2.3-11.1-2.2-16.1c0.2-5.7,0.3-9.3,0.4-11.7c-0.2,1.1-0.4,2-1.1,3.7c-0.7,1.6-3.2,0.9-2.6-0.7c1.1-3,1.8-6,1.6-9.2
		c-0.8-11,9.9-9.5,13.4-1.4c2.4,5.3,1.2,11.6,1.4,16.9c0,1.3,0,2.6,0,3.9c-0.6,7.5,1.1,10.9,2.9,12.4c0.4,0.4,1,0.3,1.4-0.1
		c3.1-4.5,5.7-12.2,7.6-17.8c0.9-2.7,1.6-5,2.4-6.8c0.2-0.6,0.9-1,1.5-0.8C1005.4,412.4,1005.9,413.3,1005.6,414z M979.7,377.3
		c10.7-0.9,8.6,14-0.1,14C971,391.3,971.1,378,979.7,377.3z"/>
</g>
<g class="st1">
	<path class="st2" d="M1042.2,414.2c-2.4,7.4-5.9,12.3-12.1,14.1c-2.6,9.6-9,20.2-20.2,15.9c-10.4-4-12.5-16.2-9.3-27
		c-6.4-14.5,5.9-27,18.5-21.8c11.6,4.7,13.8,18.9,11.7,30c4.7-2,7.2-6.5,8.9-11.9C1040.2,411.9,1042.8,412.6,1042.2,414.2z
		 M1002.3,413.8c6.4-8.7,19.4-2.5,13,1.3h-0.1c-1.6,2.9-2.8,5.9-3.3,9.1c5.7,2.6,12.6,2.6,15.9,2c2.4-10.7,1.1-23-8.6-27.8
		C1007.8,392.7,999.4,403.8,1002.3,413.8z M1027.1,428.9c-4.5,0.6-10.5-0.1-15.4-2C1011.7,437.6,1022.7,443.1,1027.1,428.9z"/>
</g>
<g class="st1">
	<path class="st2" d="M1097.6,414c-0.7,1.7-1.5,4.1-2.3,6.7c-2,5.6-4.1,12.1-6.9,16.8c-1.9,3.1-4.1,5.5-6.7,6.1
		c-3.1,0.8-8.2-1.6-10.2-6.2c-4.2-9.5,0.8-20.3-3.1-30c-0.2-0.3-0.5-0.3-0.7-0.1c-1.5,2.1-2.2,5.2-2.8,7.3c-1.1,4.1-2,8.2-3.1,12.3
		c-0.6,2.5-1.6,6.5-3.6,9.3c-2.9,4.4-10,4.6-13.6-0.4c-3.3-4.5-4.1-12.3-3.4-19.5c-0.9,0.9-2.8,0.2-2.2-1.2
		c1.8-5,3.5-19.7,10.8-15.6c9.8,5.7,2.6,28.5,5.8,35.1c0.1,0.2,0.5,0.3,0.6,0.1c2.9-4,4-12.4,4.7-15.1c1.2-4.9,2.2-13.4,7.4-16.2
		c0.9-0.5,8-1.4,11.1,6c3.2,7.6,1.3,19.9,2.3,24.7c1.5,6.9,2.2,5.7,4.5,1.7c2.6-4.5,4.8-11.1,6.5-16c0.9-2.7,1.7-5,2.4-6.8
		c0.3-0.7,1.1-1,1.8-0.7C1097.6,412.5,1097.9,413.3,1097.6,414z"/>
</g>
</svg>
