<?xml version="1.0" encoding="utf-8"?>
<!-- Generator: Adobe Illustrator 24.1.3, SVG Export Plug-In . SVG Version: 6.00 Build 0)  -->
<svg version="1.1" id="Layer_1" xmlns="http://www.w3.org/2000/svg" xmlns:xlink="http://www.w3.org/1999/xlink" x="0px" y="0px"
	 viewBox="0 0 1920 800" style="enable-background:new 0 0 1920 800;" xml:space="preserve">
<style type="text/css">
	.st0{fill:#B9D4D0;}
	.st1{fill:none;}
	.st2{fill:#677774;}
</style>
<path class="st0" d="M-17.7-26.2H1940v859.3H-17.7V-26.2z"/>
<rect x="728.7" y="346.9" class="st1" width="512.2" height="113"/>
<g>
	<path class="st2" d="M492.1,383.1c2.5,0,4.6,2.1,4.6,4.6c0,0.4-0.1,1-0.2,1.3c-2.9,10.1-5.9,22.1-7.7,33
		c-1.1,6.4-1.6,12.4-1.6,17.2c0,3.4,0.3,6.2,0.8,8.1c0.7,2.3,1.3,2.8,1.9,2.9c0.6,0.2,2.4,0.2,5.9-1.7c7-3.9,19-15,35.9-36
		c0.8-0.9,2.4-1.7,3.6-1.7c2.5,0,4.6,2.1,4.6,4.6c0,0.9-0.5,2.2-1,2.9c-17.2,21.3-29.2,33-38.6,38.2c-3.3,1.9-6.6,3-9.6,3
		c-1.2,0-2.4-0.2-3.6-0.6c-4.1-1.4-6.6-5.1-7.8-9c-1-3.2-1.4-6.9-1.4-11c0-5.6,0.8-11.9,1.9-18.5c1.9-11.4,5-23.6,8-34
		c0.5-1.8,2.4-3.3,4.3-3.4C492,383.1,492.1,383.1,492.1,383.1z M498.7,357.9c2.5,0,4.6,2.1,4.6,4.6c0,0.4-0.1,1-0.2,1.3
		c-1,3.5-2,7.2-3,11.1c-0.5,1.9-2.5,3.5-4.5,3.5c-2.5,0-4.6-2.1-4.6-4.6c0-0.3,0.1-0.9,0.2-1.2c1-3.9,2.1-7.8,3.1-11.3
		c0.5-1.8,2.4-3.3,4.3-3.4C498.6,357.9,498.7,357.9,498.7,357.9z"/>
	<path class="st2" d="M581.3,223.2c1.3,1,1.9,2.1,2.4,3.2c1,2.2,1.4,4.5,1.7,7.5c0.2,2.3,0.3,5,0.3,8c0,4.6-0.3,9.9-0.8,15.8
		c-3.3,38.9-17.4,105.6-44.4,156.6c-0.3,6-0.5,11.8-0.5,17.2c0,4.6,0.1,8.8,0.4,12.8c0.7,10.4,2.5,18.7,4.8,23.3
		c1.2,2.3,2.4,3.6,3.4,4.2s2,0.8,3.8,0.4c3.6-0.8,10.1-5.3,18.3-14.9s18.2-24.3,30-44.8c0.7-1.3,2.5-2.3,4-2.3
		c2.5,0,4.6,2.1,4.6,4.6c0,0.7-0.3,1.7-0.6,2.3c-12,20.7-22.2,35.7-30.9,46.1c-8.7,10.3-15.9,16.3-23.2,17.9
		c-1.2,0.3-2.3,0.4-3.5,0.4c-2.5,0-4.9-0.6-7-1.9c-3-1.8-5.3-4.6-7-8c-3.4-6.7-5-15.8-5.7-26.8c-0.3-4.4-0.4-9.2-0.4-14.1
		c0-4.6,0.1-9.5,0.3-14.5c-0.2-0.5-0.4-1.4-0.4-1.9c0-0.7,0.3-1.7,0.6-2.2c0-0.1,0.1-0.1,0.1-0.2c2.4-43.3,12.3-98.6,22.8-138.8v0v0
		c4.3-16.5,8.1-28.3,11.3-36.4c1.6-4,3.1-7.1,4.6-9.4c1.5-2.3,2.7-4.4,6-5.2c0.4-0.1,0.9-0.1,1.3-0.1
		C578.8,222,580.3,222.4,581.3,223.2z M574.1,240.1c-3,7.4-6.7,19-10.9,35.3c-8.5,32.4-16.5,75.4-20.5,113.1
		c19.5-45.7,30.4-99.3,33.2-131.6c0.5-5.7,0.7-10.8,0.7-15c0-2.6-0.1-4.8-0.3-6.7C575.6,236.6,574.9,238.2,574.1,240.1z"/>
	<path class="st2" d="M650.3,223.2c1.3,1,1.9,2.1,2.4,3.2c1,2.2,1.4,4.5,1.7,7.5c0.2,2.3,0.3,5,0.3,8c0,4.6-0.3,9.9-0.8,15.8
		c-3.3,38.9-17.4,105.6-44.4,156.6c-0.3,6-0.5,11.8-0.5,17.2c0,4.6,0.1,8.8,0.4,12.8c0.7,10.4,2.5,18.7,4.8,23.3
		c1.2,2.3,2.4,3.6,3.4,4.2s2,0.8,3.8,0.4c3.6-0.8,10.1-5.3,18.3-14.9s18.2-24.3,30-44.8c0.7-1.3,2.5-2.3,4-2.3
		c2.5,0,4.6,2.1,4.6,4.6c0,0.7-0.3,1.7-0.6,2.3c-12,20.7-22.2,35.7-30.9,46.1c-8.7,10.3-15.9,16.3-23.2,17.9
		c-1.2,0.3-2.3,0.4-3.5,0.4c-2.5,0-4.9-0.6-7-1.9c-3-1.8-5.3-4.6-7-8c-3.4-6.7-5-15.8-5.7-26.8c-0.3-4.4-0.4-9.2-0.4-14.1
		c0-4.6,0.1-9.5,0.3-14.5c-0.2-0.5-0.4-1.4-0.4-1.9c0-0.7,0.3-1.7,0.6-2.2c0-0.1,0.1-0.1,0.1-0.2c2.4-43.3,12.3-98.6,22.8-138.8v0v0
		c4.3-16.5,8.1-28.3,11.3-36.4c1.6-4,3.1-7.1,4.6-9.4c1.5-2.3,2.7-4.4,6-5.2c0.4-0.1,0.8-0.1,1.3-0.1
		C647.8,222,649.3,222.4,650.3,223.2z M643.1,240.1c-3,7.4-6.7,19-10.9,35.3c-8.5,32.4-16.5,75.4-20.5,113.1
		c19.5-45.7,30.4-99.3,33.2-131.6c0.5-5.7,0.7-10.8,0.7-15c0-2.6-0.1-4.8-0.3-6.7C644.6,236.6,643.9,238.2,643.1,240.1z"/>
	<path class="st2" d="M732.7,365.5c0,0.2,0,0.5,0,0.6c-1.2,8.4-1.1,10.1-2.4,38.2c-0.2,3.6-0.3,7-0.3,10.1c0,5.1,0.2,9.6,0.8,13.2
		c0.8,5.9,2.7,8.9,3.4,9.4c0.4,0.2,0.5,0.4,1.6,0.1s2.9-1.1,5.3-2.9c4.7-3.6,11.3-10.7,19.6-21.8c0.8-1,2.4-1.9,3.7-1.9
		c2.5,0,4.6,2.1,4.6,4.6c0,0.8-0.4,2.1-0.9,2.7c-8.5,11.5-15.4,19.1-21.4,23.6c-3,2.3-5.8,3.8-8.7,4.5s-6.2,0.3-8.7-1.3
		c-5-3.2-6.6-8.9-7.6-15.8c-0.6-4.2-0.9-9.1-0.9-14.4c0-3.4,0.1-6.9,0.3-10.7c0.3-6.9,0.4-8.9,0.6-13.1
		c-13.1,28.2-22.8,45.5-30.2,55.1c-4.6,6-8,9.7-13.4,10c-2.7,0.1-5.4-1.4-6.8-3.3c-1.4-1.9-2.1-4-2.6-6.3c-0.7-3.2-1-7-1-11.2
		c0-7.8,1.1-17,2.5-26.3c2.2-14.4,5.6-28.8,8.8-37.6c0.6-1.7,2.5-3.1,4.4-3.1c2.5,0,4.6,2.1,4.6,4.6c0,0.5-0.2,1.3-0.3,1.7
		c-2.8,7.7-6.2,21.9-8.4,35.8c-1.4,9.2-2.3,18.6-2.3,25.6c0,3.6,0.2,6.5,0.7,8.6c0.2,0.8,0.4,1.4,0.6,1.9c1-0.7,3.2-2.3,6-5.9
		c8.1-10.5,21-34.2,39.6-76.6c0.7-1.5,2.5-2.7,4.2-2.7c0,0,0,0,0,0C730.7,361,732.7,363,732.7,365.5z"/>
	<path class="st2" d="M788.4,363c1.5,2.1,2.1,4.6,2.1,7.4c0,1.3-0.1,2.6-0.3,4c-1.4,9-7.1,21.5-19.9,38.9c-0.1,0.1-0.2,0.3-0.3,0.4
		c0.3,2,0.7,4.1,1.1,6.3c1.8,8.3,3.3,17.7,4.3,27.3c1.7-1.4,3.3-2.9,5.1-4.3c16.8-13.7,35.1-24.8,45.9-32.1c0.7-0.5,1.8-0.8,2.6-0.8
		c2.5,0,4.6,2.1,4.6,4.6c0,1.4-0.9,3.1-2.1,3.8c-11.2,7.7-29.1,18.5-45.3,31.7c-3.5,2.8-6.8,5.8-10,8.8c0.1,2.8,0.2,5.6,0.2,8.4
		c0,7.9-0.6,15.6-2,22.4c-2.1,10-5.1,17.4-8.6,22.6c-3.5,5.2-7.8,8.7-12.9,8.7c-2.6,0-5.1-1.1-6.9-2.8s-3-4-3.7-6.6
		c-0.6-2.2-0.9-4.6-0.9-7.3c0-3.7,0.6-7.8,1.8-12.5c3.5-13.6,12.6-25.8,23.6-36.7c-0.8-11.6-2.5-23.4-4.6-33.3
		c-1.7-7.8-2.4-14.9-2.4-21.3c0-8.5,1.3-15.8,3.3-21.7c3.5-10.4,8.8-17.2,15.5-19.1c0.8-0.2,1.7-0.4,2.7-0.3
		C783.9,359.4,786.7,360.6,788.4,363z M751.9,494.1c-1,4.1-1.5,7.5-1.5,10.3c0,2,0.2,3.6,0.5,4.7c0.4,1.4,0.9,2.2,1.2,2.5
		s0.3,0.3,0.5,0.3c0.4,0,2.8-0.9,5.4-4.7c2.6-3.8,5.3-10.2,7.2-19.3c1.2-5.7,1.7-12.5,1.7-19.6C759.8,476.6,754.2,485.3,751.9,494.1
		z M771.6,381.7c-1.5,4.6-2.6,10.4-2.7,17.3c7.9-12.1,11.4-20.9,12.1-26.1c0.4-2.7,0-4-0.1-4.5C779.4,369,774.5,373.2,771.6,381.7z"
		/>
	<path class="st2" d="M980.2,297.4c2.5,0,4.6,2.1,4.6,4.6c0,2.2-1.8,4.2-3.9,4.5l-115.4,20.4c-6.8,29.5-16.5,61.2-28.9,86.5
		c-0.7,9.4-1.2,18-1.2,26.2c0,12.6,1,23.1,3.1,29.8c1,3.5,2.4,5.9,3.5,7.1c1.1,1.2,1.8,1.5,3.2,1.4c2.7-0.2,9.4-4,18-14.5
		c8.6-10.5,19.4-27.1,32.5-50.8c0.7-1.4,2.5-2.5,4.1-2.5c2.5,0,4.6,2.1,4.6,4.6c0,0.7-0.3,1.7-0.6,2.3c-13.2,24-24.2,41-33.4,52.2
		s-16.6,17.4-24.5,17.9c-0.3,0-0.5,0-0.8,0c-3.7,0-7.2-1.7-9.7-4.3c-2.6-2.8-4.3-6.4-5.6-10.7c-2.5-8.3-3.5-19.3-3.5-32.3
		c0-30.2,5.1-70.4,12.2-108.1L769,344c-0.3,0.1-0.7,0.1-0.9,0.1c-2.5,0-4.6-2.1-4.6-4.6c0-2.2,1.8-4.2,3.9-4.5l73-12.9
		c5.4-27.5,11.8-53.1,17.8-71.7c0,0,0-0.1,0-0.1c2.8-8.2,4.7-13,7.3-16.2c0.7-0.8,1.4-1.6,2.7-2.2c0.6-0.3,1.5-0.5,2.4-0.5
		c0.9,0,1.9,0.2,2.6,0.6c3.1,1.7,3.2,3.9,3.6,5.8c0.5,2.3,0.7,5,0.7,8.2c0,2.3-0.1,4.9-0.3,7.8c-0.4,6.9-1.3,15.5-2.7,25.1
		c-1.6,11.5-3.9,24.6-6.9,38.3l111.6-19.8c0.2,0,0.6-0.1,0.8-0.1C980.1,297.4,980.2,297.4,980.2,297.4z M848.3,330
		c-3.3,17.1-6.1,34.8-8.4,51.8c6.2-17,11.5-35.4,15.7-53.1L848.3,330z M866.9,253.3c-5.5,17.2-11.4,41.1-16.6,67.1l7.7-1.4
		c3.3-14.9,5.9-29.1,7.6-41.4c1.3-9.4,2.2-17.8,2.6-24.3c0.1-1.4,0.1-2.7,0.2-3.9C867.8,250.6,867.4,251.8,866.9,253.3z"/>
	<path class="st2" d="M907.1,369.3c2.5,0,4.6,2.1,4.6,4.6c0,0.3,0,0.7-0.1,0.9c-4.8,24.8-8.4,46.1-11.2,68.4
		c8.7-19.1,16-33.8,22-43.6c4.2-6.9,7.3-11.4,11.6-13.9c2.2-1.2,5.7-1.6,8.1,0c2.5,1.6,3.4,4,4.2,6.5c0.1,0.3,0.2,0.8,0.2,1
		c0.3,6.7,0.8,13,1.7,18c0.9,5,2.3,8.7,3.7,10.2c1.3,1.6,2,2,5.2,1.1c3.3-0.9,8.6-4.1,15.7-10.4c0.7-0.6,2.1-1.2,3-1.2
		c2.5,0,4.6,2.1,4.6,4.6c0,1.1-0.7,2.7-1.5,3.4c-7.6,6.7-13.6,10.7-19.3,12.3c-1.4,0.4-2.9,0.6-4.3,0.6c-4.1,0-7.9-1.6-10.4-4.5
		c-3.3-3.8-4.7-8.9-5.7-14.6c-1-5.5-1.4-11.7-1.7-18.1c-1.5,1.6-4.3,4.9-7.2,9.7c-7.8,12.9-18.9,36.3-33.1,68.6
		c-0.7,1.5-2.5,2.7-4.2,2.7c-2.5,0-4.6-2.1-4.6-4.6c0-0.1,0-0.3,0-0.4c2.8-34.3,7.5-62.6,14.2-97.7c0.4-2,2.3-3.7,4.4-3.8
		C907.1,369.3,907.1,369.3,907.1,369.3z"/>
	<path class="st2" d="M1031.4,366.7c0,0.1,0,0.2,0,0.3c0,0-1.4,30.8-2.1,60.5c0,0.7,0,1.3,0,2c0,10.7,2.1,15.9,3,16.9
		c0.5,0.5,0.5,0.5,1.5,0.4c1-0.2,2.8-0.9,4.8-2.3c8.4-5.8,20.6-21.5,29.2-32.9c0.8-1.1,2.4-1.9,3.7-1.9c2.5,0,4.6,2.1,4.6,4.6
		c0,0.9-0.4,2.1-1,2.8c-8.6,11.5-20.3,27.3-31.3,34.9c-2.8,1.9-5.5,3.4-8.6,3.8c-0.5,0.1-1.1,0.1-1.6,0.1c-2.7,0-5.6-1-7.6-3
		c-4.5-4.3-5.8-11.2-5.8-22.1c0-1.2,0-2.4,0-3.6c0.2-9.7,0.5-19.4,0.8-28.2c-6.3,10.6-13.1,20.8-20.4,31.8
		c-4.2,6.3-9,12.5-13.7,17.6s-8.8,9-13.4,10.9c-2.3,0.9-5.6,1.4-8.2-0.5c-2.9-2.1-3.5-5.3-3.5-8.8c0-5.8,2-13.8,6.3-25.9
		c5-14.2,12.8-28,22.8-37.6c7.5-7.2,16.8-12.1,26.6-12.1c1.5,0,2.9,0.1,4.4,0.3c0.2-5,0.3-8.3,0.3-8.3c0.1-2.5,2.1-4.4,4.6-4.4
		c0,0,0.1,0,0.1,0C1029.4,362.2,1031.4,364.3,1031.4,366.7z M997.2,393.3c-8.5,8.2-15.9,20.9-20.5,34c-4.3,12.1-5.8,19.8-5.8,23.1
		c2-1.2,5.5-4.1,9.2-8.1c4.2-4.6,8.8-10.5,12.8-16.5c9.9-14.8,18.5-27.7,26.3-42.2c-0.7-0.1-1.3-0.1-2-0.1
		C1010.1,383.6,1003.6,387.2,997.2,393.3z"/>
	<path class="st2" d="M1220.8,297.4c2.5,0,4.6,2.1,4.6,4.6c0,2.2-1.8,4.2-3.9,4.5l-115.4,20.4c-6.8,29.5-16.5,61.2-28.9,86.5
		c-0.7,9.4-1.2,18-1.2,26.2c0,12.6,1,23.1,3.1,29.8c1,3.5,2.4,5.9,3.5,7.1c1.1,1.2,1.8,1.5,3.1,1.4c2.7-0.2,9.4-4,18-14.5
		c8.6-10.5,19.4-27.1,32.5-50.8c0.7-1.4,2.5-2.5,4.1-2.5c2.5,0,4.6,2.1,4.6,4.6c0,0.7-0.3,1.7-0.6,2.3c-13.2,24-24.2,41-33.4,52.2
		c-9.2,11.2-16.6,17.4-24.5,17.9c-0.3,0-0.5,0-0.8,0c-3.7,0-7.2-1.7-9.7-4.3c-2.6-2.8-4.3-6.4-5.6-10.7c-2.5-8.3-3.5-19.3-3.5-32.3
		c0-30.2,5.1-70.4,12.2-108.1l-69.5,12.3c-0.3,0.1-0.7,0.1-0.9,0.1c-2.5,0-4.6-2.1-4.6-4.6c0-2.2,1.8-4.2,3.9-4.5l73-12.9
		c5.4-27.5,11.8-53.1,17.8-71.7c0,0,0-0.1,0-0.1c2.8-8.2,4.7-13,7.3-16.2c0.7-0.8,1.4-1.6,2.7-2.2c0.6-0.3,1.5-0.5,2.4-0.5
		c0.9,0,1.9,0.2,2.6,0.6c3.1,1.7,3.2,3.9,3.6,5.8c0.5,2.3,0.7,5,0.7,8.2c0,2.3-0.1,4.9-0.3,7.8c-0.4,6.9-1.3,15.5-2.7,25.1
		c-1.6,11.5-3.9,24.6-6.9,38.3l111.6-19.8c0.2,0,0.6-0.1,0.8-0.1C1220.7,297.4,1220.8,297.4,1220.8,297.4z M1088.9,330
		c-3.3,17.1-6.1,34.8-8.4,51.8c6.2-17,11.5-35.4,15.7-53.1L1088.9,330z M1107.5,253.3c-5.5,17.2-11.4,41.1-16.6,67.1l7.7-1.4
		c3.3-14.9,5.9-29.1,7.6-41.4c1.3-9.4,2.2-17.8,2.6-24.3c0.1-1.4,0.1-2.7,0.2-3.9C1108.4,250.6,1107.9,251.8,1107.5,253.3z"/>
	<path class="st2" d="M1147,383.1c2.5,0,4.6,2.1,4.6,4.6c0,0.4-0.1,1-0.2,1.3c-2.9,10.1-5.9,22.1-7.7,33c-1.1,6.4-1.6,12.4-1.6,17.2
		c0,3.4,0.3,6.2,0.8,8.1c0.7,2.3,1.3,2.8,1.9,2.9c0.5,0.2,2.4,0.2,5.9-1.7c7-3.9,19-15,35.9-36c0.8-0.9,2.4-1.7,3.6-1.7
		c2.5,0,4.6,2.1,4.6,4.6c0,0.9-0.5,2.2-1,2.9c-17.2,21.3-29.2,33-38.6,38.2c-3.3,1.9-6.6,3-9.6,3c-1.2,0-2.4-0.2-3.6-0.6
		c-4.1-1.4-6.6-5.1-7.8-9c-1-3.2-1.4-6.9-1.4-11c0-5.6,0.8-11.9,1.9-18.5c1.9-11.4,5-23.6,8-34c0.5-1.8,2.4-3.3,4.3-3.4
		C1146.9,383.1,1147,383.1,1147,383.1z M1153.6,357.9c2.5,0,4.6,2.1,4.6,4.6c0,0.4-0.1,1-0.2,1.3c-1,3.5-2,7.2-3,11.1
		c-0.5,1.9-2.5,3.5-4.5,3.5c-2.5,0-4.6-2.1-4.6-4.6c0-0.3,0.1-0.9,0.2-1.2c1-3.9,2-7.8,3.1-11.3c0.5-1.8,2.4-3.3,4.3-3.4
		C1153.5,357.9,1153.6,357.9,1153.6,357.9z"/>
	<path class="st2" d="M1228.4,360c7.5,2.5,13.4,9.7,15.2,20.3c0.5,2.6,0.7,5.5,0.7,8.6c0,9.2-2.2,20.5-7.3,34.1
		c-0.1,0.2-0.2,0.4-0.2,0.6c7-1.4,14.7-5.1,22.4-12.2c0.7-0.7,2.1-1.2,3.1-1.2c2.5,0,4.6,2.1,4.6,4.6c0,1.1-0.7,2.6-1.5,3.4
		c-10.8,9.8-22.2,14.3-32.7,14.9c-4.5,9.3-9.4,15.7-14.7,19.6c-3.5,2.5-7.3,4-11.1,4c-3.9,0-7.5-1.6-10.4-4.1c-5.7-5-9-13.3-10-23.6
		c-0.2-2.2-0.3-4.5-0.3-6.8c0-8.9,1.6-19,5.2-29.8c0.1-0.4,0.5-1,0.7-1.4c2-11.2,7-19.9,13.5-25.4c4.9-4.2,10.7-6.5,16.5-6.5
		c0.2,0,0.3,0,0.4,0C1224.5,359.1,1226.5,359.4,1228.4,360z M1195.4,422.2c0,2,0.1,4,0.3,5.8c0.9,8.8,3.9,15,6.9,17.6
		c1.5,1.3,2.9,1.8,4.4,1.8c1.5,0,3.4-0.5,5.7-2.2c3-2.2,6.5-6.4,10-12.8c-3.4-0.6-6.6-1.7-9.6-3.1c-7.4-3.5-13.4-9.2-17.2-15.9
		C1195.6,416.6,1195.4,419.5,1195.4,422.2z M1222.1,368.2c-3.3,0-7,1.4-10.5,4.3c-4.8,4.1-9.1,11.1-10.6,21.1
		c-0.2,1.1-0.3,2.2-0.3,3.3c0,9.7,6.5,19.4,16.4,24.2c3,1.4,6.2,2.4,9.7,2.8c0.6-1.3,1.1-2.7,1.7-4.2c4.8-12.9,6.7-23.2,6.7-31.1
		c0-2.5-0.2-4.8-0.5-6.8c-1.4-8.2-5.1-11.9-9-13.2c-1-0.3-2.1-0.5-3.2-0.5C1222.3,368.2,1222.2,368.2,1222.1,368.2z"/>
	<path class="st2" d="M1277.6,372.5c0,0.3-0.1,0.8-0.1,1.1c-6.6,27.9-12,55.6-15.3,75.5c-0.5,2.9-0.8,5.2-1.2,7.8
		c11.8-20.6,14.5-22.1,33.5-53.8c5.3-8.9,10.3-16.3,14.8-21.6c2.3-2.7,4.4-4.8,6.6-6.5c2.2-1.6,4.6-2.9,7.6-2.8
		c3,0.1,5.8,2.1,7.2,4.6c1.4,2.4,2.1,5.3,2.6,8.8c0.3,2.4,0.4,5.2,0.4,8.4c0,6.1-0.5,13.6-1.7,22.8c-1,8.8-1.5,15.9-1.5,21.4
		c0,5.7,0.5,9.7,1.2,12.1c0.7,2.4,1.4,2.7,1.4,2.7c0,0,0.5,0.2,2.1-0.6c3.2-1.7,8.9-7.1,14.8-14.4c5.9-7.3,12.3-16.3,18.4-25.4
		c0.8-1.1,2.5-2,3.8-2c2.5,0,4.6,2.1,4.6,4.6c0,0.8-0.4,1.9-0.8,2.6c-6.2,9.2-12.7,18.4-18.9,26c-6.2,7.6-11.8,13.7-17.7,16.7
		c-1.9,1-4,1.7-6.2,1.7c-1.2,0-2.5-0.2-3.7-0.8c-3.4-1.5-5.4-4.7-6.5-8.5c-1.1-3.8-1.7-8.5-1.7-14.5c0-6.1,0.6-13.5,1.7-22.7
		c1.1-9.1,1.6-16.4,1.6-22c0-2.8-0.1-5.1-0.4-7c-0.3-2.8-0.9-4.5-1.3-5.2c-0.3,0.1-0.9,0.4-1.5,0.9c-1.3,1-3.1,2.7-5.1,5
		c-4,4.6-8.7,11.7-14,20.4c-23.7,39.6-21.8,31.6-43.5,71.8c-0.2,0.4-0.4,0.9-1.2,1.6c-0.4,0.4-0.9,0.8-2,1.1
		c-1.1,0.3-2.7,0.1-3.7-0.5c-2.1-1.2-2.1-2.4-2.2-3c-0.2-0.6-0.2-1-0.2-1.5c-0.1-1.7,0-3.5,0.3-6.2c0.5-5.4,1.7-13.4,3.3-23.5
		c3.3-20.1,8.7-47.9,15.4-76.1c0.4-2,2.4-3.6,4.5-3.6c0,0,0.1,0,0.1,0C1275.6,368,1277.6,370,1277.6,372.5z M1250.8,475.2
		c0,0,0-0.1,0.1-0.2C1250.9,475.1,1250.9,475.1,1250.8,475.2z"/>
	<path class="st2" d="M1397,363c1.5,2.1,2.1,4.6,2.1,7.4c0,1.3-0.1,2.6-0.3,4c-1.4,9-7.1,21.5-19.9,38.9c-0.1,0.1-0.2,0.3-0.3,0.4
		c0.3,2,0.7,4.1,1.1,6.3c1.8,8.3,3.3,17.7,4.3,27.3c1.7-1.4,3.3-2.9,5.1-4.3c16.8-13.7,35.1-24.8,45.9-32.1c0.7-0.5,1.8-0.8,2.6-0.8
		c2.5,0,4.6,2.1,4.6,4.6c0,1.4-0.9,3.1-2.1,3.8c-11.2,7.7-29.1,18.5-45.3,31.7c-3.5,2.8-6.8,5.8-10,8.8c0.1,2.8,0.2,5.6,0.2,8.4
		c0,7.9-0.6,15.6-2,22.4c-2.1,10-5.1,17.4-8.6,22.6c-3.5,5.2-7.8,8.7-12.9,8.7c-2.6,0-5.1-1.1-6.9-2.8s-3-4-3.7-6.6
		c-0.6-2.2-0.9-4.6-0.9-7.3c0-3.7,0.6-7.8,1.8-12.5c3.5-13.6,12.6-25.8,23.6-36.7c-0.8-11.6-2.5-23.4-4.6-33.3
		c-1.7-7.8-2.4-14.9-2.4-21.3c0-8.5,1.3-15.8,3.3-21.7c3.5-10.4,8.8-17.2,15.5-19.1c0.8-0.2,1.7-0.4,2.7-0.3
		C1392.5,359.4,1395.4,360.6,1397,363z M1360.6,494.1c-1,4.1-1.5,7.5-1.5,10.3c0,2,0.2,3.6,0.5,4.7c0.4,1.4,0.9,2.2,1.2,2.5
		c0.3,0.3,0.3,0.3,0.5,0.3c0.4,0,2.8-0.9,5.4-4.7c2.6-3.8,5.3-10.2,7.2-19.3c1.2-5.7,1.7-12.5,1.7-19.6
		C1368.5,476.6,1362.9,485.3,1360.6,494.1z M1380.3,381.7c-1.5,4.6-2.6,10.4-2.7,17.3c7.9-12.1,11.4-20.9,12.2-26.1
		c0.4-2.7,0-4-0.1-4.5C1388.1,369,1383.2,373.2,1380.3,381.7z"/>
</g>
</svg>
