<svg enable-background="new 0 0 1920 800" viewBox="0 0 1920 800" xmlns="http://www.w3.org/2000/svg"><path d="m-17.7-26.2h1957.7v859.3h-1957.7z" fill="#b7cfd8"/><g fill="#fff"><g enable-background="new"><path d="m909.5 414c-.7 1.7-1.5 4.1-2.4 6.7-3.2 9.5-7.2 21.3-13.5 22.9-3.9 1-8.5-2.6-10.2-6.3-3.9-8.8.2-18.8-2.4-28-.1-.1-.2-.1-.3 0-3.6 9-4.9 31.5-12 32.6-13.7 2.2-9.3-24.5-10.7-35.2 0-.2-.3-.2-.4 0-1.1 2.1-1.7 4.7-2.2 6.7-1.2 4.2-2 8.6-3.1 12.8-.9 3.4-2.8 11.6-6.9 12.8-2.1.9-6.8.4-9.8-3.8-3.3-4.5-3.7-12.1-3.6-19.2-.8 1.3-3.1.6-2.5-1 .3-.9 4.1-21.7 12.5-14.3 7.8 6.7 1.2 24.4 4.7 33.4h.2c2.7-4.3 3.8-12.7 4.4-15.5 1.2-5.2 2.2-14.1 7.4-17.1 10.5-6 11.6 18.4 11.7 19.3.3 2.3.2 8.5 1.3 12.1.1.1.3.1.3 0 .8-2.5 3.4-15.8 6-23.7.9-2.7 2.2-6.6 6.3-6.7 12.7-.4 6.3 28.1 10.9 35.8.2.5.8.5 1.1.1 3.4-4.2 6.2-12.6 8.3-18.6.9-2.7 1.7-5.1 2.4-6.9.2-.4.6-.7 1-.7 1.2-.1 1.8.9 1.5 1.8z"/><path d="m946 414.2c-2.4 7.4-5.9 12.3-12.1 14.1-2.6 9.6-9 20.2-20.2 15.9-10.4-4-12.5-16.2-9.3-27-6.4-14.5 5.9-27 18.5-21.8 11.6 4.7 13.8 18.9 11.7 30 4.7-2 7.2-6.5 8.9-11.9.5-1.6 3.1-.9 2.5.7zm-39.9-.4c6.4-8.7 19.4-2.5 13 1.3h-.1c-1.6 2.9-2.8 5.9-3.3 9.1 5.7 2.6 12.6 2.6 15.9 2 2.4-10.7 1.1-23-8.6-27.8-11.4-5.7-19.8 5.4-16.9 15.4zm24.8 15.1c-4.5.6-10.5-.1-15.4-2 0 10.7 11 16.2 15.4 2z"/></g><path d="m975.8 414c-.7 1.7-1.5 4.1-2.4 6.7-2.2 6.7-4.9 14.6-8.5 19.3-4.6 5.7-12.9 6.1-18.4-1.8-8.8-12.3-.3-26.9-.6-61.3-5.4-1-8.6.5-10 2.3-.5.6-1.4.7-1.9.2-.6-.5-.7-1.3-.2-1.9 2.8-3.5 7.6-4 12.1-3.3-.1-3.3-.3-6.8-.5-10.5-.1-.9-2.2-9.1 3.6-8.2 2.9.5 5.6 2.4 7.2 5.2s1.6 11.3 1.5 15.7c2.4.1 4.8-.2 7.1-.8 4.7-1.3 5.5-3.8 5-5.2-.3-.8-1.4-1.5-2.1-1.1-.7.3-1.5.1-1.9-.6-.3-.6-.1-1.4.6-1.8 2.2-1.2 5.1.3 5.9 2.7 1 2.8-.5 6.9-6.8 8.5-2.5.7-5.2 1-7.8 1 .2 22.6-2.7 42.9-2.7 43.6-.8 11.4 1.1 24.3 7.9 15.5 3.2-4.3 6-12.5 8-18.4.9-2.7 1.7-5 2.4-6.8.3-.7 1.1-1 1.8-.7.7.2 1 1 .7 1.7z"/><path d="m1005.6 414c-.7 1.7-1.5 4.1-2.4 6.7-2 5.7-4.4 12.6-7.3 17.3-6.5 10.7-15.2 7.8-18 1.9-2.2-4.7-2.3-11.1-2.2-16.1.2-5.7.3-9.3.4-11.7-.2 1.1-.4 2-1.1 3.7-.7 1.6-3.2.9-2.6-.7 1.1-3 1.8-6 1.6-9.2-.8-11 9.9-9.5 13.4-1.4 2.4 5.3 1.2 11.6 1.4 16.9v3.9c-.6 7.5 1.1 10.9 2.9 12.4.4.4 1 .3 1.4-.1 3.1-4.5 5.7-12.2 7.6-17.8.9-2.7 1.6-5 2.4-6.8.2-.6.9-1 1.5-.8.8.2 1.3 1.1 1 1.8zm-25.9-36.7c10.7-.9 8.6 14-.1 14-8.6 0-8.5-13.3.1-14z"/><path d="m1042.2 414.2c-2.4 7.4-5.9 12.3-12.1 14.1-2.6 9.6-9 20.2-20.2 15.9-10.4-4-12.5-16.2-9.3-27-6.4-14.5 5.9-27 18.5-21.8 11.6 4.7 13.8 18.9 11.7 30 4.7-2 7.2-6.5 8.9-11.9.5-1.6 3.1-.9 2.5.7zm-39.9-.4c6.4-8.7 19.4-2.5 13 1.3h-.1c-1.6 2.9-2.8 5.9-3.3 9.1 5.7 2.6 12.6 2.6 15.9 2 2.4-10.7 1.1-23-8.6-27.8-11.4-5.7-19.8 5.4-16.9 15.4zm24.8 15.1c-4.5.6-10.5-.1-15.4-2 0 10.7 11 16.2 15.4 2z"/><path d="m1097.6 414c-.7 1.7-1.5 4.1-2.3 6.7-2 5.6-4.1 12.1-6.9 16.8-1.9 3.1-4.1 5.5-6.7 6.1-3.1.8-8.2-1.6-10.2-6.2-4.2-9.5.8-20.3-3.1-30-.2-.3-.5-.3-.7-.1-1.5 2.1-2.2 5.2-2.8 7.3-1.1 4.1-2 8.2-3.1 12.3-.6 2.5-1.6 6.5-3.6 9.3-2.9 4.4-10 4.6-13.6-.4-3.3-4.5-4.1-12.3-3.4-19.5-.9.9-2.8.2-2.2-1.2 1.8-5 3.5-19.7 10.8-15.6 9.8 5.7 2.6 28.5 5.8 35.1.1.2.5.3.6.1 2.9-4 4-12.4 4.7-15.1 1.2-4.9 2.2-13.4 7.4-16.2.9-.5 8-1.4 11.1 6 3.2 7.6 1.3 19.9 2.3 24.7 1.5 6.9 2.2 5.7 4.5 1.7 2.6-4.5 4.8-11.1 6.5-16 .9-2.7 1.7-5 2.4-6.8.3-.7 1.1-1 1.8-.7.7.2 1 1 .7 1.7z"/></g></svg>