<?xml version="1.0" encoding="utf-8"?>
<!-- Generator: Adobe Illustrator 24.0.1, SVG Export Plug-In . SVG Version: 6.00 Build 0)  -->
<svg version="1.1" id="Layer_1" xmlns="http://www.w3.org/2000/svg" xmlns:xlink="http://www.w3.org/1999/xlink" x="0px" y="0px"
	 viewBox="0 0 1920 800" style="enable-background:new 0 0 1920 800;" xml:space="preserve">
<style type="text/css">
	.st0{fill:#CCABA6;}
	.st1{fill:none;}
	.st2{enable-background:new    ;}
	.st3{fill:#FFFFFF;}
</style>
<path class="st0" d="M-17.7-26.2H1940v859.3H-17.7V-26.2z"/>
<rect x="728.7" y="346.9" class="st1" width="512.2" height="113"/>
<g class="st2">
	<path class="st3" d="M758.7,416.8c-0.6,1.5-1.4,3.7-2.2,6c-1.8,5.1-4,11.3-6.6,15.6c-5.9,9.6-13.7,7-16.2,1.7c-2-4.2-2.1-10-2-14.5
		c0.2-5.1,0.3-8.4,0.4-10.5c-0.2,1-0.4,1.8-1,3.3c-0.6,1.4-2.9,0.8-2.3-0.6c1-2.7,1.6-5.4,1.4-8.3c-0.7-9.9,8.9-8.5,12.1-1.3
		c2.2,4.8,1.1,10.4,1.3,15.2c0,1.2,0,2.3,0,3.5c-0.5,6.8,1,9.8,2.6,11.2c0.4,0.4,0.9,0.3,1.3-0.1c2.8-4,5.1-11,6.8-16
		c0.8-2.4,1.4-4.5,2.2-6.1c0.2-0.5,0.8-0.9,1.4-0.7C758.5,415.4,759,416.2,758.7,416.8z M735.4,383.8c9.6-0.8,7.7,12.6-0.1,12.6
		C727.6,396.4,727.7,384.4,735.4,383.8z"/>
	<path class="st3" d="M789.6,417.2c-3.3,9.5-6.6,19-10.9,28.1c-2.1,4.6-6.4,9.1-11.4,7.6c-20-6-12.2-73.2-3.3-91.3
		c13-26.3,45.8-15.4,25.5,16.7c-6,9.4-14.2,17.4-23.8,23.3c-0.5,6-0.7,17.7-0.1,28.2c0.5,7.1,1.3,13.6,2.8,17.3
		c2.3,5.8,5.5,2.5,8.5-3.1c2.7-5.3,8.6-22.2,10.5-27.5C787.7,415.1,790,415.8,789.6,417.2z M765.8,398.8
		c7.6-4.9,14.1-11.2,19.3-18.5c21.2-29.9-3.3-39.3-12.8-15c-2.9,7.3-4.3,15.2-5.4,22.9C766.5,391.6,766.2,395.2,765.8,398.8z"/>
	<path class="st3" d="M820.8,417.2c-3.3,9.5-6.6,19-10.9,28.1c-2.1,4.6-6.4,9.1-11.4,7.6c-20-6-12.2-73.2-3.3-91.3
		c13-26.3,45.8-15.4,25.5,16.7c-6,9.4-14.2,17.4-23.8,23.3c-0.5,6-0.7,17.7-0.1,28.2c0.5,7.1,1.3,13.6,2.8,17.3
		c2.3,5.8,5.5,2.5,8.5-3.1c2.7-5.3,8.6-22.2,10.5-27.5C818.9,415.1,821.3,415.8,820.8,417.2z M797,398.8
		c7.6-4.9,14.1-11.2,19.3-18.5c21.2-29.9-3.3-39.3-12.8-15c-2.9,7.3-4.3,15.2-5.4,22.9C797.8,391.6,797.4,395.2,797,398.8z"/>
	<path class="st3" d="M870.8,416.8c-0.6,1.5-1.4,3.7-2.2,6c-1.5,4.5-3.2,9.6-5.3,13.6c-5.8,10.9-13.8,10.2-16.8,3.7
		c-2-4.2-2.1-10.1-2-14.6c0-1.2,0.1-2.2,0.1-3.4c-5.1,14.8-16.2,17.5-21.7,7.7c-2-3.6-2.2-8.4-2.1-13c-0.2,0.7-0.5,1.3-0.7,2.1
		c-0.5,1.4-2.8,0.4-2.2-1.1c1-2.7,1.4-5.5,2.3-8.3c2.2-6,7.5-8.2,9.5-3.4c2.5,5.8,0.9,14.1,1.8,20c2.2,15,15.8-8.1,11-19.9
		c-0.8-1.9,8.4-7.4,12.5,2c1.8,4,1.4,8.7,1.3,13c-0.1,2.6-0.1,5.1-0.2,7.6c0,4.5,1.2,13.8,4.9,6.7c2.1-4,3.9-9.3,5.3-13.4
		c0.8-2.4,1.5-4.5,2.2-6.1c0.3-0.6,1-0.9,1.6-0.6C870.8,415.5,871.1,416.2,870.8,416.8z"/>
	<path class="st3" d="M898.7,416.9c-1.4,4-2.9,8.5-6.4,11.3c-1.6,1.4-3.6,2.2-5.7,2.7c3.7,17.4-7.8,26.8-17.9,24.8
		c-6.8-1.7-11-9.1-7.4-15.5c2.8-4.9,8.9-6.9,15.4-9.2c-0.4-2.2-0.9-4.6-1.6-7.2c-0.9-3-2-5.5-3.1-8.5c-0.9,1.4-1.2,2.2-2.2,4.4
		c-0.3,0.6-0.8,1.1-1.4,0.9c-0.6-0.2-1-0.8-0.9-1.4c0.7-2.8,2-5.1,3.5-7.1c-0.8-2.7-1.3-5.4-0.9-8.2c2-18.2,25.6-11.7,9.1,3.1
		l-1.4,1.3c1,2.5,2.2,5,3.2,7.5c1.9,4.2,3.9,8.5,5,12.8c1.4-0.4,2.8-0.9,4-1.7c3.5-2.3,4.9-6.8,6.2-10.6
		C896.9,414.8,899.2,415.4,898.7,416.9z M877.1,433.6c-5.8,2.1-11.4,4-13.6,7.9c-2.8,4.9,0.4,10.5,5.8,12
		C873.5,454.3,878.6,447,877.1,433.6z M877.6,405.3c13.1-11.8-4.3-14.6-1.3-1.4c0.2,0.6,0.4,1.3,0.6,2.1
		C877.1,405.8,877.3,405.5,877.6,405.3z"/>
	<path class="st3" d="M925.6,416.8c-0.6,1.5-1.3,3.7-2.2,6c-2,6-4.4,13.1-7.6,17.4c-4.1,5.1-11.6,5.5-16.6-1.6
		c-7.9-11.1-0.3-24.2-0.5-55.2c-4.9-0.9-7.7,0.4-9,2.1c-0.5,0.5-1.3,0.6-1.7,0.2c-0.5-0.5-0.6-1.2-0.2-1.7c2.5-3.2,6.8-3.6,10.9-3
		c-0.1-3-0.3-6.1-0.5-9.4c-0.1-0.8-2-8.2,3.2-7.4c2.6,0.5,5,2.2,6.5,4.7c1.4,2.5,1.4,10.2,1.4,14.1c2.2,0.1,4.3-0.2,6.4-0.7
		c4.2-1.2,5-3.4,4.5-4.7c-0.3-0.7-1.3-1.4-1.9-1c-0.6,0.3-1.4,0.1-1.7-0.5c-0.3-0.5-0.1-1.3,0.5-1.6c2-1.1,4.6,0.3,5.3,2.4
		c0.9,2.5-0.5,6.2-6.1,7.7c-2.2,0.6-4.7,0.9-7,0.9c0.2,20.3-2.4,38.6-2.4,39.2c-0.7,10.3,1,21.9,7.1,13.9c2.9-3.9,5.4-11.2,7.2-16.6
		c0.8-2.4,1.5-4.5,2.2-6.1c0.3-0.6,1-0.9,1.6-0.6C925.6,415.5,925.8,416.2,925.6,416.8z"/>
	<path class="st3" d="M963.7,416.8c-0.7,1.5-1.4,3.7-2.2,6c-2.1,5.9-4.4,13-7.6,17.2c-5.5,7.1-19.4,5.5-18.2-9.8
		c0.3-3.9,1.4-7.6,2.9-11.2c2.2-5.3,5.4-9.5,2-11.5c-3.7-2.1-9.5,0.9-11.9,1.5c-1.4,3.3-2.9,7.1-4.2,10.5c-0.6,1.6-2.7,0.4-2.2-1.2
		c1-2.6,2.3-6,3.7-9.1c-1.1-0.2-2.1-0.6-2.8-1.6c-2.2-3.2,0.1-9.4,2.1-11.4c1.5-1.5,3.2-2.1,4.6-1.3c3.1,1.8,1.4,7.6,0.2,11
		c11.8-5.2,21.1,0.3,20.2,11.4c-0.4,4.3-2.2,8.3-3.8,12.3c-5.8,14.8,2.3,13.2,5.6,8.7c3-3.9,5.4-11.2,7.1-16.4
		c0.9-2.4,1.5-4.5,2.2-6.1c0.3-0.6,0.9-0.9,1.5-0.6C963.6,415.5,963.9,416.2,963.7,416.8z M927.1,397.9c-1.6,1.5-3.1,6.6-1.9,8.3
		c0.5,0.6,1.7,0.8,2,0.5c0.5-1.3,0.9-2.5,1.3-3.7C929.6,399.5,929.7,395.2,927.1,397.9z"/>
	<path class="st3" d="M1009.1,416.8c-0.6,1.5-1.4,3.7-2.2,6c-2.2,6.5-4.9,14.2-8.5,18.2c-2.3,2.6-5.6,3.5-8.5,2.7
		c-5.8-1.7-9.7-7.6-10.9-13.7c-0.4-1.9-0.5-3.9-0.5-5.8c-1.3,3.6-2.1,6.9-3.6,11c-0.4,0.9-1,3-2.1,3.3c-9.2,3.5-14.4-8.2-13.3-20.4
		c0.6-7.4,3.3-14.8,10.1-15.8c4.7-0.7,8,2.8,10.6,7c0.5-3.1,1.2-6,1.7-9c0.1-0.6,1.3-1.4,2-1.3c6.7,0.9,8.1,7.9,7.4,13.7
		c-0.3,2.2-1.7,10-1.8,16.8c-0.1,3.1,0.1,6.5,1.1,8.7c0.9,1.9,3.2,4.2,6.1,1.3c3.2-3.5,6-11.7,7.9-17.5c0.9-2.4,1.5-4.5,2.2-6.1
		c0.3-0.6,0.9-0.9,1.5-0.6C1009,415.5,1009.3,416.2,1009.1,416.8z M979.5,413.1c-1.2-2.3-3-5.6-5.2-7.3c-0.7-0.5-1.8-0.3-2.2,0.6
		c-2.6,6.7-3.1,14.9-1.3,22c0.5,2.2,1.3,3.8,2.3,2.2c2.4-3.7,4.6-11.2,5.8-14.8C979.2,415,979.3,414,979.5,413.1z"/>
	<path class="st3" d="M1036,416.8c-0.6,1.5-1.3,3.7-2.2,6c-2,6-4.4,13.1-7.6,17.4c-4.1,5.1-11.6,5.5-16.6-1.6
		c-7.9-11.1-0.3-24.2-0.5-55.2c-4.9-0.9-7.7,0.4-9,2.1c-0.5,0.5-1.3,0.6-1.7,0.2c-0.5-0.5-0.6-1.2-0.2-1.7c2.5-3.2,6.8-3.6,10.9-3
		c-0.1-3-0.3-6.1-0.5-9.4c-0.1-0.8-2-8.2,3.2-7.4c2.6,0.5,5,2.2,6.5,4.7c1.4,2.5,1.4,10.2,1.3,14.1c2.2,0.1,4.3-0.2,6.4-0.7
		c4.2-1.2,5-3.4,4.5-4.7c-0.3-0.7-1.3-1.4-1.9-1c-0.6,0.3-1.4,0.1-1.7-0.5c-0.3-0.5-0.1-1.3,0.5-1.6c2-1.1,4.6,0.3,5.3,2.4
		c0.9,2.5-0.5,6.2-6.1,7.7c-2.2,0.6-4.7,0.9-7,0.9c0.2,20.3-2.4,38.6-2.4,39.2c-0.7,10.3,1,21.9,7.1,13.9c2.9-3.9,5.4-11.2,7.2-16.6
		c0.8-2.4,1.5-4.5,2.2-6.1c0.3-0.6,1-0.9,1.6-0.6C1036,415.5,1036.3,416.2,1036,416.8z"/>
	<path class="st3" d="M1062.8,416.8c-0.6,1.5-1.3,3.7-2.2,6c-1.8,5.1-4,11.3-6.6,15.6c-5.8,9.6-13.7,7-16.2,1.7
		c-2-4.2-2.1-10-2-14.5c0.2-5.1,0.3-8.4,0.4-10.5c-0.2,1-0.4,1.8-1,3.3c-0.6,1.4-2.9,0.8-2.3-0.6c1-2.7,1.6-5.4,1.4-8.3
		c-0.7-9.9,8.9-8.5,12.1-1.3c2.2,4.8,1.1,10.4,1.3,15.2c0,1.2,0,2.3,0,3.5c-0.5,6.8,1,9.8,2.6,11.2c0.4,0.4,0.9,0.3,1.3-0.1
		c2.8-4,5.1-11,6.8-16c0.8-2.4,1.4-4.5,2.2-6.1c0.2-0.5,0.8-0.9,1.3-0.7C1062.6,415.4,1063.1,416.2,1062.8,416.8z M1039.5,383.8
		c9.6-0.8,7.7,12.6-0.1,12.6C1031.7,396.4,1031.8,384.4,1039.5,383.8z"/>
	<path class="st3" d="M1095.7,417c-2.2,6.7-5.3,11.1-10.9,12.7c-2.3,8.6-8.1,18.2-18.2,14.3c-9.4-3.6-11.2-14.6-8.4-24.3
		c-5.8-13,5.3-24.3,16.6-19.6c10.4,4.2,12.4,17,10.5,27c4.2-1.8,6.5-5.8,8-10.7C1093.9,414.9,1096.3,415.6,1095.7,417z
		 M1059.8,416.7c5.8-7.8,17.5-2.2,11.7,1.2h-0.1c-1.4,2.6-2.5,5.3-3,8.2c5.1,2.3,11.3,2.3,14.3,1.8c2.2-9.6,1-20.7-7.7-25
		C1064.8,397.7,1057.2,407.7,1059.8,416.7z M1082.2,430.2c-4,0.5-9.4-0.1-13.9-1.8C1068.3,438.1,1078.2,443,1082.2,430.2z"/>
	<path class="st3" d="M1145.6,416.8c-0.6,1.5-1.3,3.7-2.1,6c-1.8,5-3.7,10.9-6.2,15.1c-1.7,2.8-3.7,5-6,5.5
		c-2.8,0.7-7.4-1.4-9.2-5.6c-3.8-8.5,0.7-18.3-2.8-27c-0.2-0.3-0.5-0.3-0.6-0.1c-1.3,1.9-2,4.7-2.5,6.6c-1,3.7-1.8,7.4-2.8,11.1
		c-0.5,2.2-1.4,5.8-3.2,8.4c-2.6,4-9,4.1-12.2-0.4c-3-4-3.7-11.1-3.1-17.5c-0.8,0.8-2.5,0.2-2-1.1c1.6-4.5,3.2-17.7,9.7-14
		c8.8,5.1,2.3,25.6,5.2,31.6c0.1,0.2,0.5,0.3,0.5,0.1c2.6-3.6,3.6-11.2,4.2-13.6c1.1-4.4,2-12.1,6.7-14.6c0.8-0.5,7.2-1.3,10,5.4
		c2.9,6.8,1.2,17.9,2.1,22.2c1.3,6.2,2,5.1,4,1.5c2.3-4,4.3-10,5.8-14.4c0.8-2.4,1.5-4.5,2.2-6.1c0.3-0.6,1-0.9,1.6-0.6
		C1145.6,415.5,1145.9,416.2,1145.6,416.8z"/>
	<path class="st3" d="M1173.4,416.9c-1.3,4-2.9,8.5-6.4,11.3c-1.6,1.4-3.6,2.2-5.7,2.7c3.7,17.4-7.8,26.8-17.9,24.8
		c-6.8-1.7-11-9.1-7.4-15.5c2.8-4.9,8.9-6.9,15.4-9.2c-0.4-2.2-0.9-4.6-1.6-7.2c-0.9-3-2-5.5-3.1-8.5c-0.9,1.4-1.2,2.2-2.2,4.4
		c-0.3,0.6-0.8,1.1-1.4,0.9c-0.6-0.2-1-0.8-0.9-1.4c0.7-2.8,2-5.1,3.5-7.1c-0.8-2.7-1.3-5.4-0.9-8.2c2-18.2,25.6-11.7,9.1,3.1
		l-1.3,1.3c1,2.5,2.2,5,3.2,7.5c1.9,4.2,3.9,8.5,5,12.8c1.4-0.4,2.8-0.9,4-1.7c3.5-2.3,5-6.8,6.2-10.6
		C1171.6,414.8,1174,415.4,1173.4,416.9z M1151.8,433.6c-5.8,2.1-11.4,4-13.6,7.9c-2.8,4.9,0.4,10.5,5.8,12
		C1148.3,454.3,1153.3,447,1151.8,433.6z M1152.4,405.3c13.1-11.8-4.3-14.6-1.3-1.4c0.2,0.6,0.4,1.3,0.6,2.1
		C1151.9,405.8,1152.1,405.5,1152.4,405.3z"/>
</g>
</svg>
