<?xml version="1.0" encoding="utf-8"?>
<!-- Generator: Adobe Illustrator 25.1.0, SVG Export Plug-In . SVG Version: 6.00 Build 0)  -->
<svg version="1.1" id="Layer_1" xmlns="http://www.w3.org/2000/svg" xmlns:xlink="http://www.w3.org/1999/xlink" x="0px" y="0px"
	 viewBox="0 0 1024 768" style="enable-background:new 0 0 1024 768;" xml:space="preserve">
<style type="text/css">
	.st0{fill:#5F768E;}
	.st1{fill:#718CA5;}
</style>
<rect x="-15.9" y="-12" class="st0" width="1052.3" height="792"/>
<g>
	<circle class="st1" cx="-56.2" cy="48.5" r="19.1"/>
	<circle class="st1" cx="59.2" cy="55.6" r="19.1"/>
	<circle class="st1" cx="-21.2" cy="188.4" r="19.1"/>
	<circle class="st1" cx="69.9" cy="240.3" r="19.1"/>
	<circle class="st1" cx="-0.2" cy="373.6" r="19.1"/>
	<circle class="st1" cx="-23.6" cy="482.5" r="19.1"/>
	<circle class="st1" cx="110.4" cy="429" r="19.1"/>
	<circle class="st1" cx="173.8" cy="310.4" r="19.1"/>
	<circle class="st1" cx="185.1" cy="145.9" r="19.1"/>
	<circle class="st1" cx="255.2" cy="22" r="19.1"/>
	<circle class="st1" cx="364.4" cy="46.9" r="19.1"/>
	<circle class="st1" cx="330.7" cy="187" r="19.1"/>
	<circle class="st1" cx="276.3" cy="303.9" r="19.1"/>
	<circle class="st1" cx="292.4" cy="446.8" r="19.1"/>
	<circle class="st1" cx="167.8" cy="597" r="19.1"/>
	<circle class="st1" cx="69.4" cy="637.2" r="19.1"/>
	<circle class="st1" cx="62.4" cy="745.2" r="19.1"/>
	<circle class="st1" cx="254.7" cy="761.9" r="19.1"/>
	<circle class="st1" cx="369.4" cy="603.3" r="19.1"/>
	<circle class="st1" cx="399.3" cy="453.9" r="19.1"/>
	<circle class="st1" cx="452.5" cy="337.4" r="19.1"/>
	<circle class="st1" cx="477.1" cy="175.1" r="19.1"/>
	<circle class="st1" cx="518.5" cy="11.4" r="19.1"/>
	<circle class="st1" cx="586.1" cy="-49.9" r="19.1"/>
	<circle class="st1" cx="700.1" cy="2.4" r="19.1"/>
	<circle class="st1" cx="665" cy="200.3" r="19.1"/>
	<circle class="st1" cx="588.1" cy="287.9" r="19.1"/>
	<circle class="st1" cx="703.4" cy="370.6" r="19.1"/>
	<circle class="st1" cx="611.2" cy="491.9" r="19.1"/>
	<circle class="st1" cx="496.3" cy="636.2" r="19.1"/>
	<circle class="st1" cx="574.6" cy="677.5" r="19.1"/>
	<circle class="st1" cx="759.2" cy="587.3" r="19.1"/>
	<circle class="st1" cx="710.4" cy="710.3" r="19.1"/>
	<circle class="st1" cx="463.9" cy="757.4" r="19.1"/>
</g>
<g>
	<circle class="st1" cx="1570.7" cy="774.7" r="19.1"/>
	<circle class="st1" cx="1457" cy="753.8" r="19.1"/>
	<circle class="st1" cx="1552.8" cy="631.7" r="19.1"/>
	<circle class="st1" cx="1468.6" cy="569.2" r="19.1"/>
	<circle class="st1" cx="1554.2" cy="445.3" r="19.1"/>
	<circle class="st1" cx="1590.4" cy="339.9" r="19.1"/>
	<circle class="st1" cx="1451" cy="377" r="19.1"/>
	<circle class="st1" cx="1373.8" cy="487.2" r="19.1"/>
	<circle class="st1" cx="1342.9" cy="649.1" r="19.1"/>
	<circle class="st1" cx="1258.4" cy="763.7" r="19.1"/>
	<circle class="st1" cx="1153" cy="725.8" r="19.1"/>
	<circle class="st1" cx="1203.2" cy="590.8" r="19.1"/>
	<circle class="st1" cx="1271.3" cy="481.2" r="19.1"/>
	<circle class="st1" cx="1272.5" cy="337.5" r="19.1"/>
	<circle class="st1" cx="1414.2" cy="203.3" r="19.1"/>
	<circle class="st1" cx="1516.7" cy="175.2" r="19.1"/>
	<circle class="st1" cx="1536.6" cy="68.8" r="19.1"/>
	<circle class="st1" cx="1347.7" cy="29.2" r="19.1"/>
	<circle class="st1" cx="1214.8" cy="172.9" r="19.1"/>
	<circle class="st1" cx="1167.2" cy="317.6" r="19.1"/>
	<circle class="st1" cx="1100.4" cy="426.8" r="19.1"/>
	<circle class="st1" cx="1056.5" cy="585" r="19.1"/>
	<circle class="st1" cx="995.7" cy="742.6" r="19.1"/>
	<circle class="st1" cx="921.3" cy="795.3" r="19.1"/>
	<circle class="st1" cx="814.4" cy="729.8" r="19.1"/>
	<circle class="st1" cx="873" cy="537.5" r="19.1"/>
	<circle class="st1" cx="959.8" cy="459.8" r="19.1"/>
	<circle class="st1" cx="855.2" cy="363.8" r="19.1"/>
	<circle class="st1" cx="961.4" cy="254.5" r="19.1"/>
	<circle class="st1" cx="1092.8" cy="125" r="19.1"/>
	<circle class="st1" cx="1020" cy="74.5" r="19.1"/>
	<circle class="st1" cx="825.9" cy="142" r="19.1"/>
	<circle class="st1" cx="889.1" cy="25.7" r="19.1"/>
	<circle class="st1" cx="1139.5" cy="8.6" r="19.1"/>
</g>
</svg>
