<svg id="Layer_1" data-name="Layer 1" xmlns="http://www.w3.org/2000/svg" viewBox="0 0 1662.37 826.58"><defs><style>.cls-1{fill:#5f768e;}.cls-2{fill:#718ca5;}</style></defs><rect class="cls-1" x="36.61" y="28.1" width="1052.3" height="792"/><circle class="cls-2" cx="35.42" cy="44.69" r="19.06"/><circle class="cls-2" cx="149.29" cy="64.73" r="19.06"/><circle class="cls-2" cx="54.48" cy="187.64" r="19.06"/><circle class="cls-2" cx="139.12" cy="249.46" r="19.06"/><circle class="cls-2" cx="54.48" cy="373.99" r="19.06"/><circle class="cls-2" cx="19.06" cy="479.64" r="19.06"/><circle class="cls-2" cx="158.19" cy="441.52" r="19.06"/><circle class="cls-2" cx="234.5" cy="330.71" r="19.06"/><circle class="cls-2" cx="264.19" cy="168.57" r="19.06"/><circle class="cls-2" cx="347.8" cy="53.34" r="19.06"/><circle class="cls-2" cx="453.5" cy="90.36" r="19.06"/><circle class="cls-2" cx="404.32" cy="225.77" r="19.06"/><circle class="cls-2" cx="337.04" cy="335.86" r="19.06"/><circle class="cls-2" cx="337.04" cy="479.64" r="19.06"/><circle class="cls-2" cx="196.31" cy="614.91" r="19.06"/><circle class="cls-2" cx="94.07" cy="643.78" r="19.06"/><circle class="cls-2" cx="75.01" cy="750.33" r="19.06"/><circle class="cls-2" cx="264.19" cy="788.45" r="19.06"/><circle class="cls-2" cx="396" cy="643.78" r="19.06"/><circle class="cls-2" cx="442.45" cy="498.71" r="19.06"/><circle class="cls-2" cx="508.41" cy="388.94" r="19.06"/><circle class="cls-2" cx="551.09" cy="230.4" r="19.06"/><circle class="cls-2" cx="610.61" cy="72.4" r="19.06"/><circle class="cls-2" cx="684.64" cy="19.06" r="19.06"/><circle class="cls-2" cx="792.06" cy="83.8" r="19.06"/><circle class="cls-2" cx="734.98" cy="276.57" r="19.06"/><circle class="cls-2" cx="648.74" cy="354.93" r="19.06"/><circle class="cls-2" cx="754.04" cy="450.1" r="19.06"/><circle class="cls-2" cx="648.74" cy="560.23" r="19.06"/><circle class="cls-2" cx="518.35" cy="690.7" r="19.06"/><circle class="cls-2" cx="591.55" cy="740.61" r="19.06"/><circle class="cls-2" cx="785.09" cy="671.64" r="19.06"/><circle class="cls-2" cx="722.77" cy="788.45" r="19.06"/><circle class="cls-2" cx="472.56" cy="807.52" r="19.06"/><circle class="cls-2" cx="886.66" cy="44.69" r="19.06"/><circle class="cls-2" cx="1000.54" cy="64.73" r="19.06"/><circle class="cls-2" cx="905.73" cy="187.64" r="19.06"/><circle class="cls-2" cx="990.37" cy="249.46" r="19.06"/><circle class="cls-2" cx="905.73" cy="373.99" r="19.06"/><circle class="cls-2" cx="870.31" cy="479.64" r="19.06"/><circle class="cls-2" cx="1009.43" cy="441.52" r="19.06"/><circle class="cls-2" cx="1085.74" cy="330.71" r="19.06"/><circle class="cls-2" cx="1115.44" cy="168.57" r="19.06"/><circle class="cls-2" cx="1199.05" cy="53.34" r="19.06"/><circle class="cls-2" cx="1304.74" cy="90.36" r="19.06"/><circle class="cls-2" cx="1255.56" cy="225.77" r="19.06"/><circle class="cls-2" cx="1188.29" cy="335.86" r="19.06"/><circle class="cls-2" cx="1188.29" cy="479.64" r="19.06"/><circle class="cls-2" cx="1047.56" cy="614.91" r="19.06"/><circle class="cls-2" cx="945.32" cy="643.78" r="19.06"/><circle class="cls-2" cx="926.25" cy="750.33" r="19.06"/><circle class="cls-2" cx="1115.44" cy="788.45" r="19.06"/><circle class="cls-2" cx="1247.25" cy="643.78" r="19.06"/><circle class="cls-2" cx="1293.69" cy="498.71" r="19.06"/><circle class="cls-2" cx="1359.65" cy="388.94" r="19.06"/><circle class="cls-2" cx="1402.33" cy="230.4" r="19.06"/><circle class="cls-2" cx="1461.86" cy="72.4" r="19.06"/><circle class="cls-2" cx="1535.88" cy="19.06" r="19.06"/><circle class="cls-2" cx="1643.31" cy="83.8" r="19.06"/><circle class="cls-2" cx="1586.22" cy="276.57" r="19.06"/><circle class="cls-2" cx="1499.98" cy="354.93" r="19.06"/><circle class="cls-2" cx="1605.29" cy="450.1" r="19.06"/><circle class="cls-2" cx="1499.98" cy="560.23" r="19.06"/><circle class="cls-2" cx="1369.59" cy="690.7" r="19.06"/><circle class="cls-2" cx="1442.79" cy="740.61" r="19.06"/><circle class="cls-2" cx="1636.34" cy="671.64" r="19.06"/><circle class="cls-2" cx="1574.01" cy="788.45" r="19.06"/><circle class="cls-2" cx="1323.81" cy="807.52" r="19.06"/></svg>