<?xml version="1.0" encoding="utf-8"?>
<!-- Generator: Adobe Illustrator 25.1.0, SVG Export Plug-In . SVG Version: 6.00 Build 0)  -->
<svg version="1.1" id="Layer_1" xmlns="http://www.w3.org/2000/svg" xmlns:xlink="http://www.w3.org/1999/xlink" x="0px" y="0px"
	 viewBox="0 0 1024 768" style="enable-background:new 0 0 1024 768;" xml:space="preserve">
<style type="text/css">
	.st0{fill:#5F768E;}
	.st1{fill:#718CA5;}
</style>
<rect x="-15.9" y="-12" class="st0" width="1052.3" height="792"/>
<g>
	<circle class="st1" cx="-171.5" cy="53.9" r="13.6"/>
	<circle class="st1" cx="-89.1" cy="59" r="13.6"/>
	<circle class="st1" cx="-146.5" cy="153.8" r="13.6"/>
	<circle class="st1" cx="-81.5" cy="190.9" r="13.6"/>
	<circle class="st1" cx="-131.6" cy="286.1" r="13.6"/>
	<circle class="st1" cx="-148.2" cy="363.9" r="13.6"/>
	<circle class="st1" cx="-52.5" cy="325.7" r="13.6"/>
	<circle class="st1" cx="-7.3" cy="240.9" r="13.6"/>
	<circle class="st1" cx="0.8" cy="123.5" r="13.6"/>
	<circle class="st1" cx="50.9" cy="35" r="13.6"/>
	<circle class="st1" cx="128.9" cy="52.8" r="13.6"/>
	<circle class="st1" cx="104.8" cy="152.8" r="13.6"/>
	<circle class="st1" cx="65.9" cy="236.4" r="13.6"/>
	<circle class="st1" cx="77.5" cy="338.4" r="13.6"/>
	<circle class="st1" cx="-11.6" cy="445.7" r="13.6"/>
	<circle class="st1" cx="-81.8" cy="474.4" r="13.6"/>
	<circle class="st1" cx="-86.8" cy="551.6" r="13.6"/>
	<circle class="st1" cx="50.5" cy="563.4" r="13.6"/>
	<circle class="st1" cx="132.5" cy="450.2" r="13.6"/>
	<circle class="st1" cx="153.8" cy="343.5" r="13.6"/>
	<circle class="st1" cx="191.8" cy="260.3" r="13.6"/>
	<circle class="st1" cx="209.4" cy="144.3" r="13.6"/>
	<circle class="st1" cx="239" cy="27.4" r="13.6"/>
	<circle class="st1" cx="287.2" cy="-16.4" r="13.6"/>
	<circle class="st1" cx="368.7" cy="20.9" r="13.6"/>
	<circle class="st1" cx="343.6" cy="162.3" r="13.6"/>
	<circle class="st1" cx="288.7" cy="224.9" r="13.6"/>
	<circle class="st1" cx="371.1" cy="284" r="13.6"/>
	<circle class="st1" cx="305.2" cy="370.6" r="13.6"/>
	<circle class="st1" cx="223.1" cy="473.7" r="13.6"/>
	<circle class="st1" cx="279.1" cy="503.2" r="13.6"/>
	<circle class="st1" cx="410.9" cy="438.7" r="13.6"/>
	<circle class="st1" cx="376" cy="526.6" r="13.6"/>
	<circle class="st1" cx="200" cy="560.3" r="13.6"/>
</g>
<g>
	<circle class="st1" cx="-17.6" cy="653.1" r="13.6"/>
	<circle class="st1" cx="64.8" cy="658.2" r="13.6"/>
	<circle class="st1" cx="7.4" cy="753" r="13.6"/>
	<circle class="st1" cx="72.4" cy="790.1" r="13.6"/>
	<circle class="st1" cx="22.4" cy="885.3" r="13.6"/>
	<circle class="st1" cx="5.7" cy="963.1" r="13.6"/>
	<circle class="st1" cx="101.4" cy="924.9" r="13.6"/>
	<circle class="st1" cx="146.7" cy="840.1" r="13.6"/>
	<circle class="st1" cx="154.7" cy="722.7" r="13.6"/>
	<circle class="st1" cx="204.8" cy="634.2" r="13.6"/>
	<circle class="st1" cx="282.8" cy="651.9" r="13.6"/>
	<circle class="st1" cx="258.8" cy="752" r="13.6"/>
	<circle class="st1" cx="219.9" cy="835.5" r="13.6"/>
	<circle class="st1" cx="231.4" cy="937.6" r="13.6"/>
	<circle class="st1" cx="142.4" cy="1044.9" r="13.6"/>
	<circle class="st1" cx="72.1" cy="1073.6" r="13.6"/>
	<circle class="st1" cx="67.1" cy="1150.7" r="13.6"/>
	<circle class="st1" cx="204.5" cy="1162.6" r="13.6"/>
	<circle class="st1" cx="286.4" cy="1049.4" r="13.6"/>
	<circle class="st1" cx="307.7" cy="942.7" r="13.6"/>
	<circle class="st1" cx="345.7" cy="859.5" r="13.6"/>
	<circle class="st1" cx="363.3" cy="743.5" r="13.6"/>
	<circle class="st1" cx="392.9" cy="626.6" r="13.6"/>
	<circle class="st1" cx="441.1" cy="582.8" r="13.6"/>
	<circle class="st1" cx="522.6" cy="620.1" r="13.6"/>
	<circle class="st1" cx="497.5" cy="761.5" r="13.6"/>
	<circle class="st1" cx="442.6" cy="824.1" r="13.6"/>
	<circle class="st1" cx="525" cy="883.2" r="13.6"/>
	<circle class="st1" cx="459.1" cy="969.8" r="13.6"/>
	<circle class="st1" cx="377" cy="1072.9" r="13.6"/>
	<circle class="st1" cx="433" cy="1102.4" r="13.6"/>
	<circle class="st1" cx="564.8" cy="1037.9" r="13.6"/>
	<circle class="st1" cx="529.9" cy="1125.8" r="13.6"/>
	<circle class="st1" cx="353.9" cy="1159.4" r="13.6"/>
</g>
<g>
	<circle class="st1" cx="446.7" cy="19.5" r="13.6"/>
	<circle class="st1" cx="528.6" cy="30.4" r="13.6"/>
	<circle class="st1" cx="464.6" cy="120.9" r="13.6"/>
	<circle class="st1" cx="526.8" cy="162.5" r="13.6"/>
	<circle class="st1" cx="470.1" cy="253.9" r="13.6"/>
	<circle class="st1" cx="447.9" cy="330.4" r="13.6"/>
	<circle class="st1" cx="546.1" cy="299" r="13.6"/>
	<circle class="st1" cx="597.3" cy="217.7" r="13.6"/>
	<circle class="st1" cx="613.7" cy="101.1" r="13.6"/>
	<circle class="st1" cx="669.9" cy="16.4" r="13.6"/>
	<circle class="st1" cx="746.5" cy="39.7" r="13.6"/>
	<circle class="st1" cx="715.4" cy="137.8" r="13.6"/>
	<circle class="st1" cx="670.6" cy="218.4" r="13.6"/>
	<circle class="st1" cx="674.8" cy="321" r="13.6"/>
	<circle class="st1" cx="578.4" cy="421.7" r="13.6"/>
	<circle class="st1" cx="506.3" cy="445.3" r="13.6"/>
	<circle class="st1" cx="495.8" cy="521.9" r="13.6"/>
	<circle class="st1" cx="632" cy="543.5" r="13.6"/>
	<circle class="st1" cx="721.8" cy="436.4" r="13.6"/>
	<circle class="st1" cx="750.6" cy="331.5" r="13.6"/>
	<circle class="st1" cx="794.5" cy="251.2" r="13.6"/>
	<circle class="st1" cx="820.2" cy="136.8" r="13.6"/>
	<circle class="st1" cx="858.1" cy="22.3" r="13.6"/>
	<circle class="st1" cx="909.3" cy="-18" r="13.6"/>
	<circle class="st1" cx="987.9" cy="25" r="13.6"/>
	<circle class="st1" cx="952.8" cy="164.3" r="13.6"/>
	<circle class="st1" cx="893.6" cy="222.8" r="13.6"/>
	<circle class="st1" cx="971.6" cy="287.6" r="13.6"/>
	<circle class="st1" cx="899.7" cy="369.3" r="13.6"/>
	<circle class="st1" cx="810.5" cy="466.3" r="13.6"/>
	<circle class="st1" cx="864.2" cy="499.7" r="13.6"/>
	<circle class="st1" cx="1000.3" cy="444.8" r="13.6"/>
	<circle class="st1" cx="959.2" cy="530" r="13.6"/>
	<circle class="st1" cx="781.2" cy="551" r="13.6"/>
</g>
<g>
	<circle class="st1" cx="1122.4" cy="654.7" r="13.6"/>
	<circle class="st1" cx="1096.5" cy="733.1" r="13.6"/>
	<circle class="st1" cx="1019.4" cy="653.5" r="13.6"/>
	<circle class="st1" cx="966.9" cy="706.9" r="13.6"/>
	<circle class="st1" cx="887.6" cy="634.2" r="13.6"/>
	<circle class="st1" cx="816.6" cy="598.3" r="13.6"/>
	<circle class="st1" cx="829.2" cy="700.6" r="13.6"/>
	<circle class="st1" cx="899.7" cy="765.9" r="13.6"/>
	<circle class="st1" cx="1011.2" cy="803.7" r="13.6"/>
	<circle class="st1" cx="1084" cy="874.6" r="13.6"/>
	<circle class="st1" cx="1047" cy="945.5" r="13.6"/>
	<circle class="st1" cx="956.3" cy="896.8" r="13.6"/>
	<circle class="st1" cx="885.5" cy="837.9" r="13.6"/>
	<circle class="st1" cx="783.8" cy="823.1" r="13.6"/>
	<circle class="st1" cx="702.7" cy="709.6" r="13.6"/>
	<circle class="st1" cx="692.9" cy="634.4" r="13.6"/>
	<circle class="st1" cx="619.5" cy="609.9" r="13.6"/>
	<circle class="st1" cx="573.1" cy="739.7" r="13.6"/>
	<circle class="st1" cx="661.7" cy="847.8" r="13.6"/>
	<circle class="st1" cx="759.5" cy="895.6" r="13.6"/>
	<circle class="st1" cx="830.3" cy="953.5" r="13.6"/>
	<circle class="st1" cx="937.9" cy="1000.1" r="13.6"/>
	<circle class="st1" cx="1043.5" cy="1058.4" r="13.6"/>
	<circle class="st1" cx="1073.5" cy="1116.2" r="13.6"/>
	<circle class="st1" cx="1016.7" cy="1185.5" r="13.6"/>
	<circle class="st1" cx="886.3" cy="1125.3" r="13.6"/>
	<circle class="st1" cx="839.8" cy="1056.2" r="13.6"/>
	<circle class="st1" cx="761.7" cy="1120.9" r="13.6"/>
	<circle class="st1" cx="694.7" cy="1035.1" r="13.6"/>
	<circle class="st1" cx="616" cy="929.5" r="13.6"/>
	<circle class="st1" cx="573.1" cy="976" r="13.6"/>
	<circle class="st1" cx="601.9" cy="1120" r="13.6"/>
	<circle class="st1" cx="525.8" cy="1063.9" r="13.6"/>
	<circle class="st1" cx="538.1" cy="885" r="13.6"/>
</g>
</svg>
