<?xml version="1.0" encoding="utf-8"?>
<!-- Generator: Adobe Illustrator 24.0.1, SVG Export Plug-In . SVG Version: 6.00 Build 0)  -->
<svg version="1.1" id="Layer_1" xmlns="http://www.w3.org/2000/svg" xmlns:xlink="http://www.w3.org/1999/xlink" x="0px" y="0px"
	 viewBox="0 0 1920 800" style="enable-background:new 0 0 1920 800;" xml:space="preserve">
<style type="text/css">
	.st0{fill:#CCABA6;}
	.st1{fill:#FFFFFF;}
	.st2{enable-background:new    ;}
</style>
<path class="st0" d="M-17.7-26.2H1940v859.3H-17.7L-17.7-26.2z"/>
<g>
	<path class="st1" d="M913.7,413.9c-3.1,10.6-9.2,12.8-18.5,15.1c-1.1,3.3-2.5,6.5-4.3,9.5c-6.4,10.3-16.3,8.3-16.8,2.6
		c-0.1-1.8,0.5-6.2,9.5-10c0.5-0.2,1-0.4,1.5-0.5c1.4-7.1,1-15.7-0.5-20.6c-1-3-2.2-4.1-4-4.1c-2.5,0-6.7,5.3-9.3,9.1
		c0.1,15.8-2.1,37.9-3.3,45.6c-1.8,11.9-5.5,21.4-10.7,27.4c-16.8,19.6-48.7-0.8-17.5-33.3c5.6-5.9,11.8-10.8,18.2-15.5
		c0.4-11.4,0.1-30.4-0.6-36.9c-0.1-0.9-2.7-8.9,3.7-8.2c3.2,0.4,6.2,2.2,8,4.9c1.2,1.8,1.9,6,2.1,11.5c4.4-6.4,10.8-13.3,16.3-12.6
		c2.3,0.3,4.5,1.7,6.1,3.9c1.4,2.1,2,4.5,2.5,6.3c1.2,5.9,1.2,12.1-0.2,17.9c7.8-2.1,12.9-5.1,15.2-12.9c0.2-0.7,1-1.1,1.7-0.9
		S913.9,413.2,913.7,413.9L913.7,413.9z M857.9,442.6c-4.5,3.4-8.9,6.9-13.1,10.8c-30.1,29-8.6,44.9,2.8,31.5
		C854,477.3,857,460.7,857.9,442.6z M884.4,433.5c-6,2.6-8,5.5-7.8,7.4c0.2,2.4,3.4,0.6,5-1.4C882.8,437.9,883.7,435.9,884.4,433.5z
		"/>
	<g class="st2">
		<path class="st1" d="M956.1,414c-0.8,1.7-1.6,4.1-2.4,6.7c-2.3,6.6-4.9,14.5-8.5,19.1c-6.1,7.9-21.6,6.1-20.2-10.9
			c0.3-4.3,1.6-8.5,3.2-12.5c2.4-5.9,6-10.6,2.2-12.8c-4.1-2.3-10.5,1-13.2,1.7c-1.6,3.7-3.2,7.9-4.7,11.7c-0.7,1.8-3,0.4-2.4-1.3
			c1.1-2.9,2.6-6.7,4.1-10.1c-1.2-0.2-2.3-0.7-3.1-1.8c-2.4-3.5,0.1-10.4,2.3-12.7c1.7-1.7,3.6-2.3,5.1-1.4c3.4,2,1.5,8.5,0.2,12.2
			c13.1-5.8,23.4,0.3,22.5,12.7c-0.4,4.8-2.4,9.2-4.2,13.7c-6.5,16.4,2.6,14.7,6.2,9.7c3.3-4.3,6-12.4,7.9-18.2c1-2.7,1.7-5,2.5-6.8
			c0.3-0.7,1-1,1.7-0.7C956,412.5,956.3,413.3,956.1,414L956.1,414z M915.4,393c-1.8,1.7-3.4,7.3-2.1,9.2c0.5,0.7,1.9,0.9,2.2,0.6
			c0.6-1.4,1-2.8,1.4-4.1C918.2,394.7,918.3,389.9,915.4,393L915.4,393z"/>
		<path class="st1" d="M986.8,414c-0.7,1.7-1.5,4.1-2.4,6.7c-2,5.7-4.4,12.6-7.3,17.3c-6.5,10.7-15.2,7.8-18,1.9
			c-2.2-4.7-2.3-11.1-2.2-16.1c0.2-5.7,0.3-9.3,0.4-11.7c-0.2,1.1-0.4,2-1.1,3.7c-0.7,1.6-3.2,0.9-2.6-0.7c1.1-3,1.8-6,1.6-9.2
			c-0.8-11,9.9-9.5,13.4-1.4c2.4,5.3,1.2,11.6,1.4,16.9v3.9c-0.6,7.5,1.1,10.9,2.9,12.4c0.4,0.4,1,0.3,1.4-0.1
			c3.1-4.5,5.7-12.2,7.6-17.8c0.9-2.7,1.6-5,2.4-6.8c0.2-0.6,0.9-1,1.5-0.8C986.6,412.4,987.1,413.3,986.8,414L986.8,414z
			 M960.9,377.3c10.7-0.9,8.6,14-0.1,14C952.2,391.3,952.3,378,960.9,377.3z"/>
	</g>
	<g class="st2">
		<path class="st1" d="M1041.1,414c-0.7,1.7-1.5,4.1-2.3,6.7c-2,5.6-4.1,12.1-6.9,16.8c-1.9,3.1-4.1,5.5-6.7,6.1
			c-3.1,0.8-8.2-1.6-10.2-6.2c-4.2-9.5,0.8-20.3-3.1-30c-0.2-0.3-0.5-0.3-0.7-0.1c-1.5,2.1-2.2,5.2-2.8,7.3c-1.1,4.1-2,8.2-3.1,12.3
			c-0.6,2.5-1.6,6.5-3.6,9.3c-2.9,4.4-10,4.6-13.6-0.4c-3.3-4.5-4.1-12.3-3.4-19.5c-0.9,0.9-2.8,0.2-2.2-1.2
			c1.8-5,3.5-19.7,10.8-15.6c9.8,5.7,2.6,28.5,5.8,35.1c0.1,0.2,0.5,0.3,0.6,0.1c2.9-4,4-12.4,4.7-15.1c1.2-4.9,2.2-13.4,7.4-16.2
			c0.9-0.5,8-1.4,11.1,6c3.2,7.6,1.3,19.9,2.3,24.7c1.5,6.9,2.2,5.7,4.5,1.7c2.6-4.5,4.8-11.1,6.5-16c0.9-2.7,1.7-5,2.4-6.8
			c0.3-0.7,1.1-1,1.8-0.7C1041.1,412.5,1041.4,413.3,1041.1,414L1041.1,414z"/>
		<path class="st1" d="M1071,414c-0.7,1.7-1.5,4.1-2.4,6.7c-2.2,6.7-4.9,14.6-8.5,19.3c-4.6,5.7-12.9,6.1-18.4-1.8
			c-8.8-12.3-0.3-26.9-0.6-61.3c-5.4-1-8.6,0.5-10,2.3c-0.5,0.6-1.4,0.7-1.9,0.2c-0.6-0.5-0.7-1.3-0.2-1.9c2.8-3.5,7.6-4,12.1-3.3
			c-0.1-3.3-0.3-6.8-0.5-10.5c-0.1-0.9-2.2-9.1,3.6-8.2c2.9,0.5,5.6,2.4,7.2,5.2s1.6,11.3,1.5,15.7c2.4,0.1,4.8-0.2,7.1-0.8
			c4.7-1.3,5.5-3.8,5-5.2c-0.3-0.8-1.4-1.5-2.1-1.1c-0.7,0.3-1.5,0.1-1.9-0.6c-0.3-0.6-0.1-1.4,0.6-1.8c2.2-1.2,5.1,0.3,5.9,2.7
			c1,2.8-0.5,6.9-6.8,8.5c-2.5,0.7-5.2,1-7.8,1c0.2,22.6-2.7,42.9-2.7,43.6c-0.8,11.4,1.1,24.3,7.9,15.5c3.2-4.3,6-12.5,8-18.4
			c0.9-2.7,1.7-5,2.4-6.8c0.3-0.7,1.1-1,1.8-0.7C1071,412.5,1071.3,413.3,1071,414L1071,414z"/>
	</g>
</g>
</svg>
