<?xml version="1.0" encoding="utf-8"?>
<!-- Generator: Adobe Illustrator 24.1.3, SVG Export Plug-In . SVG Version: 6.00 Build 0)  -->
<svg version="1.1" id="Layer_1" xmlns="http://www.w3.org/2000/svg" xmlns:xlink="http://www.w3.org/1999/xlink" x="0px" y="0px"
	 viewBox="0 0 1920 800" style="enable-background:new 0 0 1920 800;" xml:space="preserve">
<style type="text/css">
	.st0{fill:#B9D4D0;}
	.st1{fill:#677774;}
</style>
<path class="st0" d="M-17.7-26.2H1940v859.3H-17.7V-26.2z"/>
<g>
	<path class="st1" d="M773.3,317.7c0,0.3-0.1,0.8-0.1,1.1c-9.6,41.3-17.1,82.6-22.2,123c12.6-48.2,29.7-78.4,45.1-93.8
		c6.2-6.2,12.2-10.2,18.1-11.5c1.5-0.3,3-0.5,4.4-0.4c4.4,0.2,8.5,2.2,11.1,5.7c2.8,3.8,4,8.9,4,14.9c0,1.4-0.1,2.9-0.2,4.4
		c-0.5,5.8-2,12.5-4.5,20c9.8-4.1,21.1-8,34.3-11.6c0.3-0.1,0.9-0.2,1.2-0.2c2.5,0,4.6,2.1,4.6,4.6c0,1.9-1.5,3.9-3.4,4.4
		c-16.9,4.6-30.6,9.8-41.7,15c-10.3,20.2-20.5,32-29.1,37.9c-4,2.7-7.6,4.4-11.3,4.4c-0.4,0-0.9,0-1.4-0.1c-2.1-0.2-4.2-1.2-5.7-2.9
		c-1.4-1.7-2-3.9-2-6c0-4.1,1.9-8.2,5.3-12.7c3.4-4.5,8.4-9.4,15.3-14.5c5.8-4.3,13.2-8.7,22-13c4.4-10.6,6.6-19.4,7.2-26.1
		c0.1-1.2,0.1-2.2,0.1-3.2c0-4.9-1-8.2-2.2-9.9c-1.4-2-2.8-2.5-6.1-1.8c-3.3,0.8-8.2,3.6-13.7,9c-21.8,21.8-51.7,84-59.2,198.4
		c0,0.8,0,1.5,0,2.3c0,0,0,0,0,0c0,2.5-2.1,4.6-4.6,4.6c-2.3,0-4.4-1.9-4.6-4.2c-0.1-0.3-0.1-0.8-0.1-1.1c0-0.1,0-0.3,0-0.4
		c0-0.5,0.1-1.1,0.1-1.6c0.4-74.1,11.3-155,30-235.7c0.4-2,2.4-3.6,4.5-3.6c0,0,0,0,0.1,0C771.3,313.1,773.3,315.2,773.3,317.7z
		 M800.7,406.7c-6.4,4.7-10.7,9-13.4,12.6c-2.4,3.3-3.3,5.9-3.4,7c1-0.2,3.1-0.8,5.9-2.7c5-3.4,11.9-10.6,19.3-22.3
		C806,403.1,803.2,404.9,800.7,406.7z"/>
	<path class="st1" d="M875,328.7c2.5,0,4.6,2.1,4.6,4.6c0,0.3,0,0.7-0.1,0.9c-4.8,24.8-8.4,46.1-11.2,68.4c8.7-19.1,16-33.8,22-43.6
		c4.2-6.9,7.3-11.4,11.6-13.9c2.2-1.2,5.7-1.6,8.1,0c2.5,1.6,3.4,4,4.2,6.5c0.1,0.3,0.2,0.8,0.2,1c0.3,6.7,0.8,13,1.7,18
		c0.9,5,2.3,8.7,3.7,10.2s2,2,5.2,1s8.6-4.1,15.7-10.4c0.7-0.6,2.1-1.2,3-1.2c2.5,0,4.6,2.1,4.6,4.6c0,1.1-0.7,2.7-1.5,3.4
		c-7.6,6.7-13.6,10.7-19.3,12.3c-1.4,0.4-2.9,0.6-4.3,0.6c-4.1,0-7.9-1.6-10.4-4.5c-3.3-3.8-4.7-8.9-5.7-14.6
		c-1-5.5-1.4-11.7-1.7-18.1c-1.5,1.6-4.3,4.9-7.2,9.7c-7.8,12.9-18.9,36.3-33.1,68.6c-0.7,1.5-2.5,2.7-4.2,2.7
		c-2.5,0-4.6-2.1-4.6-4.6c0-0.1,0-0.3,0-0.4c2.8-34.3,7.5-62.6,14.2-97.7c0.4-2,2.3-3.7,4.4-3.8C874.9,328.7,875,328.7,875,328.7z"
		/>
	<path class="st1" d="M951.7,342.5c2.5,0,4.6,2.1,4.6,4.6c0,0.4-0.1,1-0.2,1.3c-2.9,10.1-5.9,22.1-7.7,33
		c-1.1,6.4-1.6,12.4-1.6,17.2c0,3.4,0.3,6.2,0.8,8.1c0.7,2.3,1.3,2.8,1.9,2.9c0.6,0.2,2.4,0.2,5.9-1.7c7-3.9,19-15,35.9-36
		c0.8-0.9,2.4-1.7,3.6-1.7c2.5,0,4.6,2.1,4.6,4.6c0,0.9-0.5,2.2-1,2.9c-17.2,21.3-29.2,33-38.6,38.3c-3.3,1.9-6.6,3-9.6,3
		c-1.2,0-2.4-0.2-3.6-0.6c-4.1-1.4-6.6-5.1-7.8-9c-1-3.2-1.4-6.9-1.4-11c0-5.6,0.8-11.9,1.9-18.5c1.9-11.4,5-23.6,8-34
		c0.5-1.8,2.4-3.3,4.3-3.4C951.6,342.5,951.6,342.5,951.7,342.5z M958.3,317.3c2.5,0,4.6,2.1,4.6,4.6c0,0.4-0.1,1-0.2,1.3
		c-1,3.5-2,7.2-3,11.1c-0.5,1.9-2.5,3.5-4.5,3.5c-2.5,0-4.6-2.1-4.6-4.6c0-0.3,0.1-0.9,0.2-1.2c1-3.9,2.1-7.8,3.1-11.3
		c0.5-1.8,2.4-3.3,4.3-3.4C958.2,317.3,958.2,317.3,958.3,317.3z"/>
	<path class="st1" d="M1010,331.9c0,0.3-0.1,0.8-0.1,1.1c-6.6,27.9-12,55.6-15.3,75.5c-0.5,2.9-0.8,5.2-1.2,7.8
		c11.8-20.6,14.5-22.1,33.5-53.8c5.3-8.9,10.3-16.3,14.8-21.6c2.3-2.7,4.4-4.8,6.6-6.5s4.6-2.9,7.6-2.8c3,0.1,5.8,2.1,7.2,4.6
		c1.4,2.4,2.1,5.3,2.6,8.8c0.3,2.4,0.4,5.2,0.4,8.4c0,6.1-0.5,13.6-1.7,22.8c-1,8.8-1.5,15.9-1.5,21.4c0,5.7,0.5,9.7,1.2,12.1
		c0.7,2.4,1.4,2.7,1.4,2.7c0,0,0.5,0.2,2.1-0.6c3.2-1.7,8.9-7.1,14.8-14.4c5.9-7.3,12.3-16.3,18.4-25.4c0.8-1.1,2.5-2,3.8-2
		c2.5,0,4.6,2.1,4.6,4.6c0,0.8-0.4,1.9-0.8,2.6c-6.2,9.2-12.7,18.4-18.9,26c-6.2,7.6-11.8,13.7-17.7,16.7c-1.9,1-4,1.7-6.2,1.7
		c-1.2,0-2.5-0.2-3.7-0.8c-3.4-1.5-5.4-4.7-6.5-8.5c-1.1-3.8-1.7-8.5-1.7-14.5c0-6.1,0.6-13.5,1.7-22.7c1.1-9.1,1.6-16.4,1.6-22
		c0-2.8-0.1-5.1-0.4-7c-0.3-2.8-0.9-4.5-1.3-5.2c-0.3,0.1-0.9,0.4-1.5,0.9c-1.3,1-3.1,2.7-5.1,5c-4,4.6-8.7,11.7-14,20.4
		c-23.7,39.6-21.8,31.6-43.5,71.8c-0.2,0.4-0.4,0.9-1.2,1.6c-0.4,0.4-0.9,0.8-2,1.1c-1.1,0.3-2.7,0.1-3.7-0.5
		c-2.1-1.2-2.1-2.4-2.2-3c-0.2-0.6-0.2-1-0.2-1.5c-0.1-1.7,0-3.5,0.3-6.2c0.5-5.4,1.7-13.4,3.3-23.5c3.3-20.1,8.7-47.9,15.4-76.1
		c0.4-2,2.4-3.6,4.5-3.6c0,0,0.1,0,0.1,0C1008,327.4,1010,329.4,1010,331.9z M983.2,434.6c0,0,0-0.1,0.1-0.2
		C983.3,434.5,983.2,434.6,983.2,434.6z"/>
	<path class="st1" d="M1254.7,256.8c2.5,0,4.6,2.1,4.6,4.6c0,2.2-1.8,4.2-3.9,4.5L1140,286.3c-6.8,29.5-16.5,61.2-28.9,86.5
		c-0.7,9.4-1.2,18-1.2,26.2c0,12.6,1,23.1,3.1,29.8c1,3.5,2.4,5.9,3.5,7.1s1.8,1.5,3.1,1.4c2.7-0.2,9.4-4,18-14.5
		c8.6-10.5,19.4-27.1,32.5-50.8c0.7-1.4,2.5-2.5,4.1-2.5c2.5,0,4.6,2.1,4.6,4.6c0,0.7-0.3,1.7-0.6,2.3c-13.2,24-24.2,41-33.4,52.2
		c-9.2,11.2-16.6,17.4-24.5,17.9c-0.3,0-0.5,0-0.8,0c-3.7,0-7.2-1.7-9.7-4.3c-2.6-2.8-4.3-6.4-5.6-10.7c-2.5-8.3-3.5-19.3-3.5-32.3
		c0-30.2,5.1-70.4,12.2-108.1l-69.5,12.3c-0.3,0.1-0.7,0.1-0.9,0.1c-2.5,0-4.6-2.1-4.6-4.6c0-2.2,1.8-4.2,3.9-4.5l73-12.9
		c5.4-27.5,11.8-53.1,17.8-71.7c0,0,0-0.1,0-0.1c2.8-8.2,4.7-13,7.3-16.2c0.7-0.8,1.4-1.6,2.7-2.2c0.6-0.3,1.5-0.5,2.4-0.5
		c0.9,0,1.9,0.2,2.6,0.6c3.1,1.7,3.2,3.9,3.6,5.8c0.5,2.3,0.7,5,0.7,8.2c0,2.3-0.1,4.9-0.3,7.8c-0.4,6.9-1.3,15.5-2.7,25.1
		c-1.6,11.5-3.9,24.6-6.9,38.3l111.6-19.8c0.2,0,0.6-0.1,0.8-0.1C1254.6,256.8,1254.7,256.8,1254.7,256.8z M1122.8,289.4
		c-3.3,17.1-6.1,34.8-8.4,51.8c6.2-17,11.5-35.4,15.7-53.1L1122.8,289.4z M1141.3,212.7c-5.5,17.2-11.4,41.1-16.6,67.1l7.7-1.4
		c3.3-14.9,5.9-29.1,7.6-41.4c1.3-9.4,2.2-17.8,2.6-24.3c0.1-1.4,0.1-2.7,0.2-3.9C1142.3,210,1141.8,211.2,1141.3,212.7z"/>
</g>
</svg>
