<svg enable-background="new 0 0 1920 800" viewBox="0 0 1920 800" xmlns="http://www.w3.org/2000/svg"><path d="m-17.7-26.2h1957.7v859.3h-1957.7z" fill="#b7cfd8"/><g fill="#fff"><path d="m913.7 413.9c-3.1 10.6-9.2 12.8-18.5 15.1-1.1 3.3-2.5 6.5-4.3 9.5-6.4 10.3-16.3 8.3-16.8 2.6-.1-1.8.5-6.2 9.5-10 .5-.2 1-.4 1.5-.5 1.4-7.1 1-15.7-.5-20.6-1-3-2.2-4.1-4-4.1-2.5 0-6.7 5.3-9.3 9.1.1 15.8-2.1 37.9-3.3 45.6-1.8 11.9-5.5 21.4-10.7 27.4-16.8 19.6-48.7-.8-17.5-33.3 5.6-5.9 11.8-10.8 18.2-15.5.4-11.4.1-30.4-.6-36.9-.1-.9-2.7-8.9 3.7-8.2 3.2.4 6.2 2.2 8 4.9 1.2 1.8 1.9 6 2.1 11.5 4.4-6.4 10.8-13.3 16.3-12.6 2.3.3 4.5 1.7 6.1 3.9 1.4 2.1 2 4.5 2.5 6.3 1.2 5.9 1.2 12.1-.2 17.9 7.8-2.1 12.9-5.1 15.2-12.9.2-.7 1-1.1 1.7-.9s1.1 1 .9 1.7zm-55.8 28.7c-4.5 3.4-8.9 6.9-13.1 10.8-30.1 29-8.6 44.9 2.8 31.5 6.4-7.6 9.4-24.2 10.3-42.3zm26.5-9.1c-6 2.6-8 5.5-7.8 7.4.2 2.4 3.4.6 5-1.4 1.2-1.6 2.1-3.6 2.8-6z"/><g enable-background="new"><path d="m956.1 414c-.8 1.7-1.6 4.1-2.4 6.7-2.3 6.6-4.9 14.5-8.5 19.1-6.1 7.9-21.6 6.1-20.2-10.9.3-4.3 1.6-8.5 3.2-12.5 2.4-5.9 6-10.6 2.2-12.8-4.1-2.3-10.5 1-13.2 1.7-1.6 3.7-3.2 7.9-4.7 11.7-.7 1.8-3 .4-2.4-1.3 1.1-2.9 2.6-6.7 4.1-10.1-1.2-.2-2.3-.7-3.1-1.8-2.4-3.5.1-10.4 2.3-12.7 1.7-1.7 3.6-2.3 5.1-1.4 3.4 2 1.5 8.5.2 12.2 13.1-5.8 23.4.3 22.5 12.7-.4 4.8-2.4 9.2-4.2 13.7-6.5 16.4 2.6 14.7 6.2 9.7 3.3-4.3 6-12.4 7.9-18.2 1-2.7 1.7-5 2.5-6.8.3-.7 1-1 1.7-.7.7.2 1 1 .8 1.7zm-40.7-21c-1.8 1.7-3.4 7.3-2.1 9.2.5.7 1.9.9 2.2.6.6-1.4 1-2.8 1.4-4.1 1.3-4 1.4-8.8-1.5-5.7z"/><path d="m986.8 414c-.7 1.7-1.5 4.1-2.4 6.7-2 5.7-4.4 12.6-7.3 17.3-6.5 10.7-15.2 7.8-18 1.9-2.2-4.7-2.3-11.1-2.2-16.1.2-5.7.3-9.3.4-11.7-.2 1.1-.4 2-1.1 3.7-.7 1.6-3.2.9-2.6-.7 1.1-3 1.8-6 1.6-9.2-.8-11 9.9-9.5 13.4-1.4 2.4 5.3 1.2 11.6 1.4 16.9v3.9c-.6 7.5 1.1 10.9 2.9 12.4.4.4 1 .3 1.4-.1 3.1-4.5 5.7-12.2 7.6-17.8.9-2.7 1.6-5 2.4-6.8.2-.6.9-1 1.5-.8.8.2 1.3 1.1 1 1.8zm-25.9-36.7c10.7-.9 8.6 14-.1 14-8.6 0-8.5-13.3.1-14z"/></g><g enable-background="new"><path d="m1041.1 414c-.7 1.7-1.5 4.1-2.3 6.7-2 5.6-4.1 12.1-6.9 16.8-1.9 3.1-4.1 5.5-6.7 6.1-3.1.8-8.2-1.6-10.2-6.2-4.2-9.5.8-20.3-3.1-30-.2-.3-.5-.3-.7-.1-1.5 2.1-2.2 5.2-2.8 7.3-1.1 4.1-2 8.2-3.1 12.3-.6 2.5-1.6 6.5-3.6 9.3-2.9 4.4-10 4.6-13.6-.4-3.3-4.5-4.1-12.3-3.4-19.5-.9.9-2.8.2-2.2-1.2 1.8-5 3.5-19.7 10.8-15.6 9.8 5.7 2.6 28.5 5.8 35.1.1.2.5.3.6.1 2.9-4 4-12.4 4.7-15.1 1.2-4.9 2.2-13.4 7.4-16.2.9-.5 8-1.4 11.1 6 3.2 7.6 1.3 19.9 2.3 24.7 1.5 6.9 2.2 5.7 4.5 1.7 2.6-4.5 4.8-11.1 6.5-16 .9-2.7 1.7-5 2.4-6.8.3-.7 1.1-1 1.8-.7.7.2 1 1 .7 1.7z"/><path d="m1071 414c-.7 1.7-1.5 4.1-2.4 6.7-2.2 6.7-4.9 14.6-8.5 19.3-4.6 5.7-12.9 6.1-18.4-1.8-8.8-12.3-.3-26.9-.6-61.3-5.4-1-8.6.5-10 2.3-.5.6-1.4.7-1.9.2-.6-.5-.7-1.3-.2-1.9 2.8-3.5 7.6-4 12.1-3.3-.1-3.3-.3-6.8-.5-10.5-.1-.9-2.2-9.1 3.6-8.2 2.9.5 5.6 2.4 7.2 5.2s1.6 11.3 1.5 15.7c2.4.1 4.8-.2 7.1-.8 4.7-1.3 5.5-3.8 5-5.2-.3-.8-1.4-1.5-2.1-1.1-.7.3-1.5.1-1.9-.6-.3-.6-.1-1.4.6-1.8 2.2-1.2 5.1.3 5.9 2.7 1 2.8-.5 6.9-6.8 8.5-2.5.7-5.2 1-7.8 1 .2 22.6-2.7 42.9-2.7 43.6-.8 11.4 1.1 24.3 7.9 15.5 3.2-4.3 6-12.5 8-18.4.9-2.7 1.7-5 2.4-6.8.3-.7 1.1-1 1.8-.7.7.2 1 1 .7 1.7z"/></g></g></svg>