<svg enable-background="new 0 0 1920 800" viewBox="0 0 1920 800" xmlns="http://www.w3.org/2000/svg"><path d="m-17.7-26.2h1957.7v859.3h-1957.7z" fill="#b7cfd8"/><g enable-background="new" fill="#fff"><path d="m954.9 413.3c-2.3 7.7-5.5 13.3-14 12.7-4.7 10.5-19 25.7-28.5 8.1-2.4-4.5-2.7-9.9-2.2-15.2-.7 2-1.6 4-2.7 5.8-3.7 6.2-10.3 10.7-17.4 9.3-10.8-2.9-10.7-12.5-10.3-21.4-.3 1.2-.6 2-1.1 3.2-.6 1.6-3.2.9-2.6-.7 1.1-3 1.8-6 1.6-9.2-.5-7.3 6.9-18.8 12.6-6 4.4 9.8-.8 29.1 6.2 31 5.2-1.8 9-7.1 11-12.5 2.6-7.3 3.2-15.4 2.7-23.1-.2-3.6 13.8-7.6 14.4 9.6.2 6.1-.1 12.3-.5 18.4-.2 3 .3 14.8 4.5 12.4 3.7-2.4 7.3-6.5 9.6-10.8-9.4-5.5-8.3-22.4-1.6-26.8 2.3-1.5 5.4-1.2 7 1.5 3.3 5.7.2 17.6-1.8 23.9 6.5.4 8.9-6.4 10.5-10.9.6-1.6 3.1-.9 2.6.7zm-15.5 9.1c2.6-7.2 4.1-17.7 1.9-21.4-.8-1.4-2.2-1.5-3.2-.7-5 4.1-6.1 17.7 1.3 22.1z"/><path d="m995.3 413.9c-3.9 11.6-8.8 19.7-18.3 24.7-11.5 6.2-19.5 3.4-23.2-1.8-4.2-5.7-4.3-13-3.2-19.6 3.1-18.7 14.6-26.6 22.5-26.2 16.2.7 5.2 30.1-11.1 27.4-4.6 15.6 2.2 25 15.1 17.1 8.1-4.9 13.4-14.8 15.6-22.4.5-1.6 3.1-.9 2.6.8zm-32.4 1.9c8.3.9 14.8-9.7 14.9-16.2-7.7 1.9-12.2 9-14.9 16.2z"/><path d="m1051.2 414.3c-1.6 4.7-3.4 9.8-7.3 13.1-3.8 3.2-8.4 5.1-13.1 6.6l-.3 1.1c-1.1 2.9-2.3 5.4-3.9 8.1-7 11.2-17.8 8.9-18.3 2.7-.5-5.5 6.8-9.4 11.9-11.4 1.6-7.8 1.1-17.1-.5-22.5-1-3.3-2.5-5.3-4.2-5.6-3.3-.7-9.2 8.8-11.6 13.2.3 6 .8 11.2 1.5 12.4 1.7 2.9-1.3 7-7.8 3.9-9.4-4.6-6-38.7-5-49.2 1-11 2.1-22.5 6.4-32.8 12.7-30 49.8-20.1 29.3 16.9-6 11-14.6 20.3-24.8 27.5-.1 1.9 0 9 .2 16.3 4.8-7.5 12.5-16.6 19.2-15.8 3.7.4 7.6 3.4 9.3 11.2 1.6 7 1.3 14.5-.4 20.8 3.6-1.2 7.1-2.8 10-5.2 3.8-3 5.3-7.6 6.8-12 .5-1.6 3.1-.9 2.6.7zm-47.7-19.4c8.1-5.9 15-13.3 20.3-21.8 21.6-34.5-6.3-43.4-15.2-15.9-2.7 8.4-3.8 17.2-4.5 25.9-.3 3.9-.4 7.9-.6 11.8zm16 42.8c-6.5 2.8-8.7 6-8.5 8 .2 2.7 3.7.7 5.4-1.5 1.3-1.7 2.3-3.9 3.1-6.5z"/></g></svg>