<?xml version="1.0" encoding="utf-8"?>
<!-- Generator: Adobe Illustrator 23.1.1, SVG Export Plug-In . SVG Version: 6.00 Build 0)  -->
<svg version="1.1" id="Layer_1" xmlns="http://www.w3.org/2000/svg" xmlns:xlink="http://www.w3.org/1999/xlink" x="0px" y="0px"
	 viewBox="0 0 1920 800" style="enable-background:new 0 0 1920 800;" xml:space="preserve">
<style type="text/css">
	.st0{fill:#B7CFD8;}
	.st1{enable-background:new    ;}
	.st2{fill:#FFFFFF;}
</style>
<title>web-banner</title>
<rect x="-17.7" y="-26.2" class="st0" width="1957.7" height="859.3"/>
<g class="st1">
	<path class="st2" d="M954.9,413.3c-2.3,7.7-5.5,13.3-14,12.7c-4.7,10.5-19,25.7-28.5,8.1c-2.4-4.5-2.7-9.9-2.2-15.2
		c-0.7,2-1.6,4-2.7,5.8c-3.7,6.2-10.3,10.7-17.4,9.3c-10.8-2.9-10.7-12.5-10.3-21.4c-0.3,1.2-0.6,2-1.1,3.2
		c-0.6,1.6-3.2,0.9-2.6-0.7c1.1-3,1.8-6,1.6-9.2c-0.5-7.3,6.9-18.8,12.6-6c4.4,9.8-0.8,29.1,6.2,31c5.2-1.8,9-7.1,11-12.5
		c2.6-7.3,3.2-15.4,2.7-23.1c-0.2-3.6,13.8-7.6,14.4,9.6c0.2,6.1-0.1,12.3-0.5,18.4c-0.2,3,0.3,14.8,4.5,12.4
		c3.7-2.4,7.3-6.5,9.6-10.8c-9.4-5.5-8.3-22.4-1.6-26.8c2.3-1.5,5.4-1.2,7,1.5c3.3,5.7,0.2,17.6-1.8,23.9c6.5,0.4,8.9-6.4,10.5-10.9
		C952.9,411,955.4,411.7,954.9,413.3z M939.4,422.4c2.6-7.2,4.1-17.7,1.9-21.4c-0.8-1.4-2.2-1.5-3.2-0.7
		C933.1,404.4,932,418,939.4,422.4z"/>
	<path class="st2" d="M995.3,413.9c-3.9,11.6-8.8,19.7-18.3,24.7c-11.5,6.2-19.5,3.4-23.2-1.8c-4.2-5.7-4.3-13-3.2-19.6
		c3.1-18.7,14.6-26.6,22.5-26.2c16.2,0.7,5.2,30.1-11.1,27.4c-4.6,15.6,2.2,25,15.1,17.1c8.1-4.9,13.4-14.8,15.6-22.4
		C993.2,411.5,995.8,412.2,995.3,413.9z M962.9,415.8c8.3,0.9,14.8-9.7,14.9-16.2C970.1,401.5,965.6,408.6,962.9,415.8z"/>
	<path class="st2" d="M1051.2,414.3c-1.6,4.7-3.4,9.8-7.3,13.1c-3.8,3.2-8.4,5.1-13.1,6.6l-0.3,1.1c-1.1,2.9-2.3,5.4-3.9,8.1
		c-7,11.2-17.8,8.9-18.3,2.7c-0.5-5.5,6.8-9.4,11.9-11.4c1.6-7.8,1.1-17.1-0.5-22.5c-1-3.3-2.5-5.3-4.2-5.6
		c-3.3-0.7-9.2,8.8-11.6,13.2c0.3,6,0.8,11.2,1.5,12.4c1.7,2.9-1.3,7-7.8,3.9c-9.4-4.6-6-38.7-5-49.2c1-11,2.1-22.5,6.4-32.8
		c12.7-30,49.8-20.1,29.3,16.9c-6,11-14.6,20.3-24.8,27.5c-0.1,1.9,0,9,0.2,16.3c4.8-7.5,12.5-16.6,19.2-15.8
		c3.7,0.4,7.6,3.4,9.3,11.2c1.6,7,1.3,14.5-0.4,20.8c3.6-1.2,7.1-2.8,10-5.2c3.8-3,5.3-7.6,6.8-12
		C1049.1,412,1051.7,412.7,1051.2,414.3z M1003.5,394.9c8.1-5.9,15-13.3,20.3-21.8c21.6-34.5-6.3-43.4-15.2-15.9
		c-2.7,8.4-3.8,17.2-4.5,25.9C1003.8,387,1003.7,391,1003.5,394.9z M1019.5,437.7c-6.5,2.8-8.7,6-8.5,8c0.2,2.7,3.7,0.7,5.4-1.5
		C1017.7,442.5,1018.7,440.3,1019.5,437.7z"/>
</g>
</svg>
