<?xml version="1.0" encoding="utf-8"?>
<!-- Generator: Adobe Illustrator 24.1.3, SVG Export Plug-In . SVG Version: 6.00 Build 0)  -->
<svg version="1.1" id="Layer_1" xmlns="http://www.w3.org/2000/svg" xmlns:xlink="http://www.w3.org/1999/xlink" x="0px" y="0px"
	 viewBox="0 0 1920 800" style="enable-background:new 0 0 1920 800;" xml:space="preserve">
<style type="text/css">
	.st0{fill:#B9D4D0;}
	.st1{fill:#677774;}
</style>
<path class="st0" d="M-17.7-26.2H1940v859.3H-17.7V-26.2z"/>
<g>
	<path class="st1" d="M927.6,348.8c2.5,0,4.6,2.1,4.6,4.6c0,0.7-0.3,1.7-0.6,2.3c-2.7,4.8-6.3,17.3-9.5,31.1
		c-3.2,13.8-6.3,29.1-9,41.1c-2.2,9.6-4.3,18.3-6.4,25.2c-2.1,6.9-3.5,11.9-7.7,15.3c-1.1,0.8-2.5,1.6-4.2,1.7
		c-1.7,0.1-3.3-0.5-4.5-1.3c-2.4-1.6-3.7-3.9-5.1-6.9c-2.8-6-5.5-15.4-8.5-29.8c0,0,0,0,0,0c-1.3-5.8-2.2-10.9-3.3-16.8
		c-3.8,6.9-6.1,10.6-13.1,22.6c-4.9,8.4-9.6,16.4-13.8,22.8s-7.4,11.2-11.6,13.9c-1,0.7-2.2,1.3-3.8,1.5c-1.6,0.2-3.6-0.4-4.9-1.5
		c-2.6-2.2-2.9-4.8-3.2-7.9c-0.6-6.1,0.2-15.3,2.6-29.9c4.3-27.1,9.2-56.3,12.8-71c0.4-2,2.4-3.6,4.5-3.6c2.5,0,4.6,2.1,4.6,4.6
		c0,0.3-0.1,0.9-0.2,1.2c-3.4,13.8-8.3,43.2-12.6,70.3c-2.1,13.3-2.8,21.9-2.5,26.4c1.8-2,4.2-5.1,6.8-9.1c4-6.1,8.7-14,13.6-22.4
		c10.1-17.2,10.1-16.6,19.1-33.8c0.7-1.4,2.5-2.5,4.1-2.5c2.1,0,4.1,1.7,4.5,3.7c2.9,14.8,3.5,20.2,5.6,29.4c0,0,0,0,0,0
		c3,14.2,5.8,23.3,7.9,27.9c0.3,0.6,0.5,1,0.8,1.5c0.9-1.7,2.3-4.5,3.7-9c2-6.4,4-15,6.2-24.6v0v0c2.7-11.8,5.8-27.1,9-41.1
		c3.3-14,6.4-26.3,10.4-33.5C924.3,349.9,926.1,348.8,927.6,348.8C927.6,348.8,927.6,348.8,927.6,348.8z"/>
	<path class="st1" d="M971.8,356.2c2.2,1.4,3.5,3.7,3.9,6c0.5,2.3,0.4,4.7-0.1,7.4c-1,5.4-3.5,12-8.1,19.8
		c-6.4,11.1-16.9,20.9-26.3,24.8c-1.4,6.4-2.1,12.3-2.1,17.2c0,9,2.4,14.6,5.5,16.4c1,0.6,2.4,1,4.2,1c3.3,0,8.1-1.4,14.5-5.3
		c9.9-6,23-17.5,39.3-35.9c0.8-0.9,2.3-1.5,3.4-1.5c2.5,0,4.6,2.1,4.6,4.6c0,1-0.5,2.3-1.1,3c-16.6,18.8-30.2,30.9-41.4,37.6
		c-7.2,4.3-13.7,6.6-19.3,6.6c-3.2,0-6.1-0.7-8.7-2.3c-7.4-4.4-10.1-13.6-10.1-24.4c0-10.1,2.3-22.3,6.7-35.4
		c3.1-9.5,5.2-12.9,8.9-19.7c4.4-7.9,8.6-13.4,12.7-16.9c2-1.8,4-3,6.3-3.8c1.1-0.4,2.4-0.5,3.6-0.5S970.7,355.5,971.8,356.2z
		 M964.3,366.3c-2.8,2.4-6.6,7.2-10.6,14.4c-3.8,6.9-5.3,9.1-8.3,18.2c-0.3,0.8-0.5,1.7-0.8,2.5c5.4-4.2,11.5-10.4,15-16.5v0v0
		c4.2-7.2,6.3-13,7-16.8c0.3-1.6,0.3-2.6,0.2-3.4C966.2,364.9,965.4,365.4,964.3,366.3z"/>
	<path class="st1" d="M1050.9,218.3c1.9,1.9,2.2,3.6,2.5,5.6c0.4,2.2,0.6,4.9,0.6,8.2c0,2.5-0.1,5.4-0.3,8.6
		c-2,29.5-13.4,89.1-41.2,167.4c0,0.1-0.1,0.1-0.1,0.2c-0.7,4.9-1.3,9.8-2,14.8c4.9-12.3,10.1-21.9,15.3-29.1
		c7.7-10.7,15.5-16.7,23.5-17.2c0.5,0,1,0,1.5,0c3.5,0.2,6.8,1.6,9.3,4c2.9,2.7,4.7,6.5,5.8,10.9c0.7,3.1,1.1,6.5,1.1,10.2
		c0,4.9-0.7,10.4-2,16.5c1.7-0.7,3.3-1.5,5.1-2.2c0.4-0.2,1.2-0.3,1.7-0.3c2.5,0,4.6,2.1,4.6,4.6c0,1.7-1.3,3.6-2.9,4.3
		c-4.3,1.7-8.2,3.5-11.7,5.3c-6.6,20.5-13.6,32.7-20.1,39.3c-3.5,3.5-6.9,5.7-10.8,5.8c-0.1,0-0.2,0-0.3,0c-3.8,0-7.4-3-8.5-6.4
		c-0.5-1.6-0.8-3.2-0.8-5c0-6,3-12.9,8.9-20.4c5.3-6.7,13.1-13.5,24-19.7c2.6-8.6,3.7-16,3.7-22c0-3.1-0.3-5.8-0.8-8
		c-0.8-3.2-2-5.3-3.2-6.5c-1.2-1.1-2.3-1.6-3.9-1.5c-3.4,0.2-9.7,3.8-16.6,13.4c-6.9,9.6-14.3,24.7-20.8,46.2
		c-6.5,21.3-5.1,25.8-9.5,42.4v0v0c-0.1,0.5-0.3,1.3-0.6,1.8c0,0,0,0.1,0,0.1c0,0,0,0,0,0c-0.7,1.3-2.5,2.4-4,2.4
		c-2.5,0-4.6-2.1-4.6-4.6c0-0.3,0.1-0.9,0.2-1.2c0,0,0,0,0-0.1c8.5-81.7,19.6-155.8,35.4-228.7c2.5-11.3,4.8-20,6.9-26.3
		s3.4-10,6.6-12.8c0.8-0.7,1.9-1.5,3.6-1.6c0.1,0,0.2,0,0.3,0C1048.3,216.7,1050,217.4,1050.9,218.3z M1038.3,259.5
		c-6.8,31.2-12.6,62.7-17.8,94.8c15.7-52.6,22.7-92.7,24.1-114.3c0.1-2,0.2-3.8,0.2-5.5C1042.9,240.4,1040.7,248.6,1038.3,259.5z
		 M1037.4,449.1c-6.3,8-7.1,15.2-6.6,16.8c0,0,0,0,0,0c0.6-0.2,2.2-0.8,4.4-3c3.8-3.9,9-11.9,14.2-25.1
		C1044.2,441.6,1040.2,445.5,1037.4,449.1z"/>
</g>
</svg>
